M48
METRIC,LZ,000.000
;FILE_FORMAT=3:3
;TYPE=PLATED
;Layer: PTH_Through
;EasyEDA v6.5.57, 2026-06-27 20:36:30
;db5aa68870094b5ea620e0544f82f9b8,aded602c09064ad3b3ee905135c3d30b,10
;Gerber Generator version 0.2
;Holesize 1 = 0.310 mm
T01C0.310
;Holesize 2 = 0.600 mm
T02C0.600
;Holesize 3 = 0.800 mm
T03C0.800
;Holesize 4 = 2.200 mm
T04C2.200
%
G05
G90
T01
X001499Y-004800
X004499Y000100
X005599Y000600
X-001201Y-007300
X003899Y-000800
X001599Y000500
X-001701Y-004900
X-003301Y-004000
X003899Y-001600
X002699Y-000600
X000999Y002100
X004399Y006700
X001099Y005900
X001099Y003600
X-001101Y003600
X-001101Y005900
X-007500Y001200
X-000901Y-001100
X000899Y-001100
X-000901Y-002900
X000899Y-002900
X-004601Y-003800
X003899Y-008800
X-003901Y-008700
X-007501Y-010800
X008500Y-009000
X005200Y-008600
X006599Y-001100
X-005100Y-009400
X-003201Y002000
X-000901Y-004900
X-002600Y000000
X007499Y-010800
X-009201Y-003000
X-004201Y-005600
X003999Y-005600
X003099Y001300
X000100Y000900
X-004500Y006700
X-009400Y003000
X000700Y-008600
X-009300Y-007500
X-004400Y003700
T02
X009199Y001505
X009199Y000235
X009199Y-001035
X009199Y-002305
T03
X004324Y-011474G85X004324Y-010874
X004324Y-007394G85X004324Y-006594
X-004326Y-007394G85X-004326Y-006594
X-004326Y-011474G85X-004326Y-010874
T04
X007500Y-005200
X-007500Y-005200
X007500Y004800
X-007500Y004800
M30
