M48
METRIC,LZ,000.000
;FILE_FORMAT=3:3
;TYPE=PLATED
;Layer: PTH_Through_Via
;EasyEDA v6.5.57, 2026-06-27 20:36:30
;db5aa68870094b5ea620e0544f82f9b8,aded602c09064ad3b3ee905135c3d30b,10
;Gerber Generator version 0.2
;Holesize 1 = 0.310 mm
T01C0.310
%
G05
G90
T01
X001499Y-004800
X004499Y000100
X005599Y000600
X-001201Y-007300
X003899Y-000800
X001599Y000500
X-001701Y-004900
X-003301Y-004000
X003899Y-001600
X002699Y-000600
X000999Y002100
X005200Y-008600
X006599Y-001100
X-005100Y-009400
X-003201Y002000
X-000901Y-004900
X-002600Y000000
X007499Y-010800
X003099Y001300
X000100Y000900
M30
