G04 Layer: BottomLayer*
G04 EasyEDA v6.5.57, 2026-06-27 20:36:30*
G04 db5aa68870094b5ea620e0544f82f9b8,aded602c09064ad3b3ee905135c3d30b,10*
G04 Gerber Generator version 0.2*
G04 Scale: 100 percent, Rotated: No, Reflected: No *
G04 Dimensions in millimeters *
G04 leading zeros omitted , absolute positions ,4 integer and 5 decimal *
%FSLAX45Y45*%
%MOMM*%

%ADD10C,0.2000*%
%ADD11C,4.0000*%
%ADD12R,1.0000X1.0000*%
%ADD13C,1.0000*%
%ADD14O,1.199998X1.799996*%
%ADD15O,0.0103X1.799996*%
%ADD16O,1.199998X1.999996*%
%ADD17C,0.6200*%

%LPD*%
G36*
X-898804Y-1194054D02*
G01*
X-911301Y-1193088D01*
X-921613Y-1190752D01*
X-931468Y-1186942D01*
X-940663Y-1181811D01*
X-949045Y-1175461D01*
X-956462Y-1167841D01*
X-962710Y-1159357D01*
X-967638Y-1150061D01*
X-971296Y-1140155D01*
X-973378Y-1129792D01*
X-974191Y-1118768D01*
X-974191Y-807516D01*
X-973277Y-803300D01*
X-970737Y-799846D01*
X-966978Y-797814D01*
X-962710Y-797407D01*
X-958646Y-798880D01*
X-955649Y-800811D01*
X-951839Y-802284D01*
X-951839Y-771855D01*
X-963980Y-771855D01*
X-967892Y-771042D01*
X-971245Y-768807D01*
X-973378Y-765606D01*
X-974191Y-761695D01*
X-974191Y-738327D01*
X-973378Y-734415D01*
X-971245Y-731062D01*
X-967892Y-728929D01*
X-963980Y-728116D01*
X-951839Y-728116D01*
X-951839Y-697738D01*
X-955649Y-699211D01*
X-958646Y-701141D01*
X-962710Y-702564D01*
X-966978Y-702157D01*
X-970737Y-700074D01*
X-973277Y-696671D01*
X-974191Y-692404D01*
X-974191Y-619099D01*
X-973378Y-615238D01*
X-971296Y-611936D01*
X-967994Y-609752D01*
X-964133Y-608888D01*
X-960272Y-609600D01*
X-956970Y-611784D01*
X-954684Y-614984D01*
X-952246Y-620674D01*
X-942035Y-638911D01*
X-930249Y-656132D01*
X-916889Y-672134D01*
X-911148Y-677976D01*
X-908913Y-681278D01*
X-908202Y-685139D01*
X-908202Y-728116D01*
X-877671Y-728116D01*
X-878586Y-724052D01*
X-877722Y-719886D01*
X-875284Y-716432D01*
X-871677Y-714349D01*
X-867511Y-713841D01*
X-863447Y-715060D01*
X-850646Y-722172D01*
X-831596Y-730605D01*
X-811784Y-737311D01*
X-791514Y-742086D01*
X-770839Y-744931D01*
X-750011Y-745845D01*
X-729132Y-744931D01*
X-708507Y-742086D01*
X-688136Y-737311D01*
X-668426Y-730605D01*
X-649325Y-722172D01*
X-631037Y-712012D01*
X-613816Y-700227D01*
X-597763Y-686968D01*
X-583031Y-672134D01*
X-573887Y-661111D01*
X-570687Y-658622D01*
X-566674Y-657453D01*
X-562610Y-658114D01*
X-559104Y-660196D01*
X-556717Y-663600D01*
X-555904Y-667613D01*
X-555904Y-903376D01*
X-556209Y-905865D01*
X-557174Y-908303D01*
X-561797Y-916584D01*
X-564997Y-925626D01*
X-566623Y-935177D01*
X-566623Y-944829D01*
X-564997Y-954328D01*
X-561797Y-963472D01*
X-557123Y-971803D01*
X-551027Y-979322D01*
X-543864Y-985723D01*
X-535584Y-990803D01*
X-526643Y-994359D01*
X-517194Y-996391D01*
X-507542Y-996797D01*
X-497992Y-995629D01*
X-488797Y-992784D01*
X-480161Y-988415D01*
X-472389Y-982675D01*
X-465734Y-975715D01*
X-460349Y-967740D01*
X-456387Y-958951D01*
X-453999Y-949655D01*
X-453085Y-940053D01*
X-453999Y-930351D01*
X-456387Y-921054D01*
X-460349Y-912266D01*
X-465734Y-904290D01*
X-472389Y-897280D01*
X-479958Y-891692D01*
X-482193Y-889457D01*
X-483565Y-886714D01*
X-484073Y-883513D01*
X-484073Y-826008D01*
X-483260Y-821893D01*
X-480822Y-818489D01*
X-477215Y-816406D01*
X-473049Y-815898D01*
X-468934Y-817168D01*
X-468934Y-755802D01*
X-473964Y-755802D01*
X-477875Y-754989D01*
X-481126Y-752805D01*
X-483311Y-749503D01*
X-484073Y-745642D01*
X-484073Y-653237D01*
X-483311Y-649376D01*
X-481126Y-646023D01*
X-477875Y-643890D01*
X-473964Y-643077D01*
X-468934Y-643077D01*
X-468934Y-581863D01*
X-473964Y-581863D01*
X-477875Y-581050D01*
X-481126Y-578815D01*
X-483311Y-575614D01*
X-484073Y-571703D01*
X-484073Y-548284D01*
X-483311Y-544372D01*
X-481126Y-541070D01*
X-477875Y-538937D01*
X-473964Y-538124D01*
X-441909Y-538124D01*
X-441909Y-507746D01*
X-445719Y-509219D01*
X-453948Y-514248D01*
X-461111Y-520598D01*
X-465988Y-526694D01*
X-469239Y-529285D01*
X-473201Y-530402D01*
X-477316Y-529844D01*
X-480872Y-527761D01*
X-483260Y-524357D01*
X-484073Y-520344D01*
X-484073Y-445363D01*
X-483514Y-442010D01*
X-481939Y-439064D01*
X-481939Y-397916D01*
X-483514Y-394970D01*
X-484073Y-391668D01*
X-484073Y-368249D01*
X-483514Y-364998D01*
X-481939Y-362051D01*
X-481939Y-320852D01*
X-483514Y-317906D01*
X-484073Y-314655D01*
X-484073Y965D01*
X-483311Y4876D01*
X-481126Y8128D01*
X-346303Y142900D01*
X-343611Y144881D01*
X-340360Y145796D01*
X-337007Y145694D01*
X-327304Y143611D01*
X-317703Y143205D01*
X-308102Y144373D01*
X-298856Y147269D01*
X-290322Y151587D01*
X-282549Y157327D01*
X-278993Y160934D01*
X-275691Y163322D01*
X-271678Y164134D01*
X-219049Y164134D01*
X-215188Y163322D01*
X-211886Y161086D01*
X-115722Y65024D01*
X-109575Y59893D01*
X-102819Y56489D01*
X-95504Y54508D01*
X-89611Y54051D01*
X-38658Y54051D01*
X-35052Y53441D01*
X-31953Y51511D01*
X-23774Y44246D01*
X-15595Y39217D01*
X-6604Y35661D01*
X2743Y33578D01*
X12446Y33121D01*
X21996Y34442D01*
X31242Y37236D01*
X39827Y41605D01*
X47599Y47294D01*
X54305Y54305D01*
X59690Y62280D01*
X63652Y71069D01*
X66090Y80365D01*
X66903Y90017D01*
X66090Y99618D01*
X63652Y108966D01*
X59690Y117754D01*
X54305Y125730D01*
X47599Y132638D01*
X39827Y138430D01*
X31242Y142798D01*
X21996Y145592D01*
X12446Y146812D01*
X2743Y146354D01*
X-6604Y144322D01*
X-15595Y140817D01*
X-23774Y135686D01*
X-31953Y128524D01*
X-35052Y126593D01*
X-38658Y125882D01*
X-70916Y125882D01*
X-74777Y126695D01*
X-78079Y128930D01*
X-174193Y224993D01*
X-180492Y230073D01*
X-187147Y233476D01*
X-194564Y235458D01*
X-200355Y235915D01*
X-271678Y235915D01*
X-275691Y236677D01*
X-278993Y239064D01*
X-282549Y242671D01*
X-290322Y248412D01*
X-298856Y252780D01*
X-308102Y255625D01*
X-317703Y256794D01*
X-327304Y256438D01*
X-336753Y254355D01*
X-345694Y250799D01*
X-353872Y245770D01*
X-361188Y239369D01*
X-367182Y231800D01*
X-371957Y223469D01*
X-373583Y218592D01*
X-375970Y214833D01*
X-544982Y45770D01*
X-550062Y39573D01*
X-553466Y32918D01*
X-555447Y25552D01*
X-555904Y19659D01*
X-555904Y-372364D01*
X-556717Y-376377D01*
X-559104Y-379780D01*
X-562610Y-381863D01*
X-566674Y-382473D01*
X-570687Y-381406D01*
X-573887Y-378815D01*
X-583031Y-367792D01*
X-597763Y-353009D01*
X-613816Y-339699D01*
X-631037Y-327964D01*
X-649325Y-317754D01*
X-668426Y-309372D01*
X-688136Y-302717D01*
X-708507Y-297942D01*
X-729132Y-295046D01*
X-750011Y-294081D01*
X-770839Y-295046D01*
X-791514Y-297942D01*
X-811784Y-302717D01*
X-831596Y-309372D01*
X-849223Y-317195D01*
X-855827Y-320649D01*
X-858113Y-321564D01*
X-860602Y-321818D01*
X-898194Y-321818D01*
X-898194Y-345033D01*
X-899160Y-349351D01*
X-902157Y-353009D01*
X-916889Y-367792D01*
X-930249Y-383844D01*
X-942035Y-401116D01*
X-952246Y-419354D01*
X-954684Y-425043D01*
X-956970Y-428193D01*
X-960272Y-430326D01*
X-964133Y-431088D01*
X-967994Y-430225D01*
X-971296Y-428091D01*
X-973378Y-424738D01*
X-974191Y-420878D01*
X-974191Y-350367D01*
X-973429Y-346557D01*
X-971346Y-343306D01*
X-968197Y-341122D01*
X-964437Y-340207D01*
X-960628Y-340766D01*
X-957275Y-342696D01*
X-953871Y-345694D01*
X-945692Y-350723D01*
X-941984Y-352298D01*
X-941984Y-321818D01*
X-963980Y-321818D01*
X-967892Y-321106D01*
X-971245Y-318820D01*
X-973378Y-315518D01*
X-974191Y-311658D01*
X-974191Y-288340D01*
X-973378Y-284429D01*
X-971245Y-281127D01*
X-967892Y-278892D01*
X-963980Y-278180D01*
X-941984Y-278180D01*
X-941984Y-247650D01*
X-945692Y-249224D01*
X-953871Y-254254D01*
X-957275Y-257251D01*
X-960628Y-259181D01*
X-964437Y-259740D01*
X-968197Y-258876D01*
X-971346Y-256692D01*
X-973429Y-253390D01*
X-974191Y-249580D01*
X-974191Y237642D01*
X-973378Y241554D01*
X-971245Y244805D01*
X-967943Y246989D01*
X-964082Y247853D01*
X-961847Y247396D01*
X-961847Y278180D01*
X-963980Y278180D01*
X-967892Y278942D01*
X-971245Y281127D01*
X-973378Y284480D01*
X-974191Y288340D01*
X-974191Y311708D01*
X-973378Y315620D01*
X-971245Y318871D01*
X-967892Y321106D01*
X-963980Y321868D01*
X-961847Y321868D01*
X-961847Y352653D01*
X-964082Y352247D01*
X-967943Y353009D01*
X-971245Y355244D01*
X-973378Y358546D01*
X-974191Y362356D01*
X-974191Y380898D01*
X-973378Y384759D01*
X-971296Y388061D01*
X-967994Y390296D01*
X-964133Y391058D01*
X-960272Y390398D01*
X-956970Y388213D01*
X-954684Y385013D01*
X-952246Y379272D01*
X-946962Y369925D01*
X-945743Y365709D01*
X-942797Y362458D01*
X-942035Y361086D01*
X-930249Y343916D01*
X-920496Y332130D01*
X-918718Y329031D01*
X-918108Y325577D01*
X-918108Y321868D01*
X-915162Y321868D01*
X-911301Y321106D01*
X-907999Y318871D01*
X-902157Y313080D01*
X-886104Y299720D01*
X-881684Y296722D01*
X-878738Y293624D01*
X-877671Y290474D01*
X-873810Y290372D01*
X-868883Y287934D01*
X-850646Y277774D01*
X-831596Y269392D01*
X-811784Y262686D01*
X-791514Y257962D01*
X-770839Y255066D01*
X-750011Y254152D01*
X-729132Y255066D01*
X-708507Y257962D01*
X-688136Y262686D01*
X-668426Y269392D01*
X-649325Y277774D01*
X-631037Y287934D01*
X-613816Y299720D01*
X-597763Y313080D01*
X-583031Y327863D01*
X-569772Y343916D01*
X-557987Y361086D01*
X-547827Y379272D01*
X-539343Y398373D01*
X-532688Y418185D01*
X-527913Y438454D01*
X-525018Y459181D01*
X-524052Y479958D01*
X-525018Y500888D01*
X-527913Y521462D01*
X-532688Y541832D01*
X-539343Y561594D01*
X-547827Y580644D01*
X-557987Y598932D01*
X-569772Y616153D01*
X-583031Y632206D01*
X-597763Y646988D01*
X-613816Y660247D01*
X-631037Y672033D01*
X-649325Y682193D01*
X-668426Y690676D01*
X-688136Y697280D01*
X-708507Y702056D01*
X-729132Y704951D01*
X-750011Y705916D01*
X-770839Y704951D01*
X-791514Y702056D01*
X-811784Y697280D01*
X-831596Y690676D01*
X-850646Y682193D01*
X-868883Y672033D01*
X-886104Y660247D01*
X-902157Y646988D01*
X-916889Y632206D01*
X-930249Y616153D01*
X-942035Y598932D01*
X-952246Y580644D01*
X-954684Y575005D01*
X-956970Y571754D01*
X-960272Y569671D01*
X-964133Y568909D01*
X-967994Y569772D01*
X-971296Y571906D01*
X-973378Y575208D01*
X-974191Y579069D01*
X-974191Y678738D01*
X-973226Y691286D01*
X-970838Y701548D01*
X-967079Y711403D01*
X-961948Y720648D01*
X-955497Y729030D01*
X-947978Y736346D01*
X-939495Y742645D01*
X-930198Y747572D01*
X-920191Y751230D01*
X-909878Y753364D01*
X-898804Y754075D01*
X898702Y754075D01*
X911199Y753110D01*
X921461Y750824D01*
X931265Y747014D01*
X940511Y741832D01*
X948944Y735431D01*
X956310Y727913D01*
X962558Y719378D01*
X967536Y710031D01*
X971042Y700176D01*
X973277Y689864D01*
X973988Y678738D01*
X973988Y579526D01*
X973277Y575665D01*
X971042Y572363D01*
X967841Y570179D01*
X963980Y569315D01*
X960069Y570077D01*
X956767Y572211D01*
X954582Y575462D01*
X952246Y580644D01*
X942035Y598932D01*
X930300Y616153D01*
X916940Y632206D01*
X902208Y646988D01*
X886155Y660247D01*
X868934Y672033D01*
X850646Y682193D01*
X831596Y690676D01*
X811834Y697280D01*
X791514Y702056D01*
X770890Y704951D01*
X750011Y705916D01*
X729183Y704951D01*
X708507Y702056D01*
X688187Y697280D01*
X668426Y690676D01*
X649325Y682193D01*
X631088Y672033D01*
X613816Y660247D01*
X597814Y646988D01*
X583031Y632206D01*
X569772Y616153D01*
X557987Y598932D01*
X547827Y580644D01*
X539394Y561594D01*
X532688Y541832D01*
X527964Y521462D01*
X525068Y500888D01*
X524103Y479958D01*
X525068Y459181D01*
X527964Y438454D01*
X532688Y418185D01*
X539394Y398373D01*
X547827Y379272D01*
X557987Y361086D01*
X569772Y343916D01*
X583031Y327863D01*
X597814Y313080D01*
X613816Y299720D01*
X631088Y287934D01*
X649325Y277774D01*
X668426Y269392D01*
X688187Y262686D01*
X708507Y257962D01*
X729183Y255066D01*
X750011Y254152D01*
X770890Y255066D01*
X791514Y257962D01*
X811834Y262686D01*
X831596Y269392D01*
X850646Y277774D01*
X868934Y287934D01*
X886155Y299720D01*
X902208Y313080D01*
X916940Y327863D01*
X930300Y343916D01*
X942035Y361086D01*
X952246Y379272D01*
X954582Y384606D01*
X956767Y387756D01*
X960069Y389940D01*
X963980Y390601D01*
X967841Y389839D01*
X971042Y387604D01*
X973277Y384302D01*
X973988Y380492D01*
X973988Y236626D01*
X973226Y232714D01*
X971042Y229362D01*
X967740Y227228D01*
X963879Y226415D01*
X951280Y226415D01*
X951280Y181864D01*
X963879Y181864D01*
X967740Y181051D01*
X971042Y178917D01*
X973226Y175615D01*
X973988Y171704D01*
X973988Y129285D01*
X973226Y125425D01*
X971042Y122174D01*
X967740Y119938D01*
X963879Y119176D01*
X951280Y119176D01*
X951280Y106781D01*
X950518Y103124D01*
X948486Y99872D01*
X945438Y97688D01*
X941781Y96723D01*
X925728Y99212D01*
X914146Y99212D01*
X898042Y96723D01*
X894384Y97688D01*
X891286Y99872D01*
X889253Y103124D01*
X888593Y106781D01*
X888593Y119176D01*
X844042Y119176D01*
X844042Y101092D01*
X844753Y94792D01*
X846632Y89255D01*
X849680Y84378D01*
X856996Y77368D01*
X858621Y73558D01*
X858621Y69545D01*
X856996Y65786D01*
X853440Y61569D01*
X850544Y59994D01*
X847293Y59486D01*
X705561Y59486D01*
X701700Y60299D01*
X698347Y62433D01*
X525830Y235051D01*
X519633Y240080D01*
X512927Y243484D01*
X505561Y245465D01*
X499719Y245922D01*
X148285Y245922D01*
X144322Y246735D01*
X140970Y249021D01*
X137515Y252729D01*
X129692Y258470D01*
X121107Y262788D01*
X111912Y265582D01*
X102311Y266852D01*
X92710Y266446D01*
X83261Y264414D01*
X74320Y260756D01*
X66090Y255727D01*
X58877Y249377D01*
X52781Y241858D01*
X48107Y233476D01*
X44907Y224383D01*
X43230Y214782D01*
X43230Y205232D01*
X44907Y195630D01*
X48107Y186588D01*
X52781Y178155D01*
X58877Y170688D01*
X66090Y164287D01*
X74320Y159258D01*
X83261Y155600D01*
X92710Y153619D01*
X102311Y153162D01*
X111912Y154432D01*
X121107Y157276D01*
X129692Y161544D01*
X137515Y167284D01*
X140970Y170992D01*
X144322Y173278D01*
X148285Y174142D01*
X252272Y174142D01*
X256438Y173228D01*
X259842Y170738D01*
X261975Y167182D01*
X262483Y162966D01*
X261162Y159004D01*
X258114Y153466D01*
X254914Y144322D01*
X253288Y134823D01*
X253288Y125222D01*
X254914Y115620D01*
X258114Y106578D01*
X261162Y100990D01*
X262432Y97028D01*
X261975Y92862D01*
X259842Y89204D01*
X256438Y86766D01*
X252272Y85953D01*
X208330Y85953D01*
X204368Y86715D01*
X201015Y89052D01*
X197510Y92659D01*
X189738Y98450D01*
X181152Y102819D01*
X171907Y105613D01*
X162356Y106832D01*
X152654Y106375D01*
X143306Y104343D01*
X134315Y100838D01*
X126136Y95758D01*
X118872Y89408D01*
X112826Y81838D01*
X108102Y73456D01*
X104851Y64312D01*
X103276Y54864D01*
X103276Y45161D01*
X104851Y35712D01*
X108102Y26619D01*
X112826Y18186D01*
X118872Y10617D01*
X126136Y4267D01*
X134315Y-762D01*
X143306Y-4318D01*
X152654Y-6350D01*
X162356Y-6807D01*
X171907Y-5588D01*
X181152Y-2743D01*
X189738Y1625D01*
X197510Y7366D01*
X201015Y10972D01*
X204368Y13309D01*
X208330Y14071D01*
X240842Y14071D01*
X244754Y13360D01*
X248056Y11125D01*
X250596Y8534D01*
X252780Y5232D01*
X253593Y1320D01*
X252780Y-2590D01*
X250545Y-5842D01*
X247192Y-8077D01*
X244297Y-9194D01*
X236118Y-14274D01*
X228854Y-20675D01*
X222808Y-28143D01*
X218084Y-36525D01*
X214884Y-45669D01*
X213207Y-55168D01*
X213207Y-64769D01*
X214884Y-74371D01*
X218084Y-83413D01*
X222808Y-91795D01*
X228854Y-99364D01*
X236118Y-105765D01*
X244297Y-110744D01*
X253288Y-114401D01*
X262636Y-116433D01*
X272186Y-116839D01*
X275793Y-117652D01*
X278942Y-119786D01*
X334060Y-174955D01*
X336397Y-178663D01*
X338124Y-183438D01*
X342747Y-191820D01*
X348894Y-199390D01*
X356108Y-205740D01*
X364337Y-210769D01*
X367131Y-211886D01*
X370484Y-214121D01*
X372770Y-217373D01*
X373583Y-221284D01*
X372821Y-225196D01*
X370535Y-228498D01*
X176072Y-423113D01*
X173075Y-425196D01*
X169519Y-426059D01*
X165862Y-425653D01*
X161899Y-424383D01*
X152349Y-423164D01*
X142697Y-423621D01*
X133299Y-425653D01*
X124307Y-429158D01*
X116078Y-434238D01*
X108864Y-440588D01*
X102819Y-448157D01*
X98094Y-456539D01*
X94894Y-465683D01*
X93268Y-475132D01*
X93268Y-484784D01*
X94894Y-494284D01*
X98094Y-503377D01*
X102819Y-511809D01*
X108864Y-519328D01*
X117195Y-526491D01*
X119735Y-529793D01*
X120700Y-533806D01*
X119938Y-537972D01*
X117754Y-541426D01*
X-41910Y-701090D01*
X-45212Y-703224D01*
X-49123Y-704037D01*
X-63804Y-704037D01*
X-67106Y-703529D01*
X-70053Y-701903D01*
X-72237Y-699566D01*
X-75793Y-694283D01*
X-82499Y-687273D01*
X-90271Y-681583D01*
X-98907Y-677265D01*
X-108153Y-674370D01*
X-117652Y-673201D01*
X-127304Y-673557D01*
X-131927Y-674573D01*
X-136448Y-674522D01*
X-140462Y-672541D01*
X-143306Y-668985D01*
X-144272Y-664616D01*
X-144272Y-599236D01*
X-143459Y-595325D01*
X-141325Y-592023D01*
X-98856Y-549656D01*
X-95300Y-547319D01*
X-91186Y-546709D01*
X-87680Y-546811D01*
X-78079Y-545541D01*
X-68884Y-542798D01*
X-60299Y-538429D01*
X-52527Y-532688D01*
X-45821Y-525729D01*
X-40436Y-517702D01*
X-36423Y-508914D01*
X-34036Y-499567D01*
X-33172Y-490016D01*
X-34036Y-480415D01*
X-36423Y-471068D01*
X-40436Y-462280D01*
X-45821Y-454253D01*
X-52527Y-447293D01*
X-60299Y-441553D01*
X-68884Y-437184D01*
X-78079Y-434441D01*
X-87680Y-433120D01*
X-91287Y-433374D01*
X-95453Y-432612D01*
X-98907Y-430326D01*
X-221081Y-308152D01*
X-223266Y-304901D01*
X-224078Y-301040D01*
X-224078Y-48514D01*
X-223316Y-44704D01*
X-221234Y-41452D01*
X-215696Y-35763D01*
X-210312Y-27686D01*
X-206349Y-18897D01*
X-203911Y-9601D01*
X-203098Y0D01*
X-203911Y9601D01*
X-206349Y18897D01*
X-210312Y27686D01*
X-215696Y35763D01*
X-222453Y42722D01*
X-230225Y48463D01*
X-238760Y52781D01*
X-248005Y55575D01*
X-257606Y56845D01*
X-267208Y56438D01*
X-276656Y54406D01*
X-285597Y50800D01*
X-293827Y45720D01*
X-301091Y39319D01*
X-307086Y31851D01*
X-311861Y23469D01*
X-315010Y14376D01*
X-316687Y4775D01*
X-316687Y-4775D01*
X-315010Y-14376D01*
X-311861Y-23418D01*
X-307086Y-31851D01*
X-301091Y-39319D01*
X-299313Y-40843D01*
X-296773Y-44246D01*
X-295859Y-48514D01*
X-295859Y-319582D01*
X-295046Y-327507D01*
X-291541Y-338734D01*
X-292150Y-343001D01*
X-294436Y-346557D01*
X-297942Y-348945D01*
X-302158Y-349605D01*
X-306273Y-348538D01*
X-308914Y-347218D01*
X-318160Y-344373D01*
X-327660Y-343154D01*
X-337312Y-343611D01*
X-346710Y-345592D01*
X-355752Y-349199D01*
X-363880Y-354279D01*
X-371144Y-360680D01*
X-377190Y-368147D01*
X-381914Y-376529D01*
X-385165Y-385622D01*
X-386435Y-393395D01*
X-388264Y-397459D01*
X-387553Y-398678D01*
X-386740Y-402437D01*
X-386740Y-404774D01*
X-385165Y-414375D01*
X-381914Y-423418D01*
X-377190Y-431800D01*
X-371144Y-439369D01*
X-363880Y-445719D01*
X-355752Y-450748D01*
X-346710Y-454406D01*
X-337312Y-456438D01*
X-327812Y-456844D01*
X-324154Y-457657D01*
X-321106Y-459790D01*
X-265887Y-515010D01*
X-259638Y-520039D01*
X-252933Y-523443D01*
X-245567Y-525424D01*
X-239674Y-525881D01*
X-218795Y-525881D01*
X-215188Y-526542D01*
X-211988Y-528472D01*
X-203911Y-535736D01*
X-200710Y-538988D01*
X-199288Y-543153D01*
X-199796Y-547674D01*
X-202184Y-551434D01*
X-205130Y-554380D01*
X-210261Y-560628D01*
X-213664Y-567334D01*
X-215646Y-574649D01*
X-216103Y-580542D01*
X-216103Y-713079D01*
X-216966Y-717296D01*
X-219557Y-720750D01*
X-223316Y-722833D01*
X-227584Y-723188D01*
X-231698Y-721715D01*
X-234696Y-718718D01*
X-240080Y-710488D01*
X-247142Y-702767D01*
X-255422Y-696366D01*
X-264617Y-691438D01*
X-274523Y-687984D01*
X-284835Y-686257D01*
X-295300Y-686257D01*
X-305612Y-687984D01*
X-315518Y-691438D01*
X-324713Y-696366D01*
X-332994Y-702767D01*
X-340055Y-710488D01*
X-345795Y-719277D01*
X-350012Y-728878D01*
X-352552Y-738987D01*
X-353212Y-746455D01*
X-354177Y-750062D01*
X-356463Y-753059D01*
X-359664Y-755040D01*
X-363321Y-755802D01*
X-396189Y-755802D01*
X-396189Y-793140D01*
X-385927Y-792937D01*
X-377088Y-794004D01*
X-373634Y-795121D01*
X-370230Y-798271D01*
X-367639Y-795629D01*
X-359968Y-785215D01*
X-357327Y-782116D01*
X-353517Y-780288D01*
X-349453Y-780084D01*
X-345541Y-781558D01*
X-342595Y-784555D01*
X-340055Y-788314D01*
X-332994Y-796036D01*
X-324713Y-802436D01*
X-315518Y-807415D01*
X-305612Y-810818D01*
X-295300Y-812546D01*
X-284835Y-812546D01*
X-274523Y-810818D01*
X-264617Y-807415D01*
X-255422Y-802436D01*
X-247142Y-796036D01*
X-240080Y-788314D01*
X-234696Y-780186D01*
X-231698Y-777138D01*
X-227584Y-775614D01*
X-223316Y-775970D01*
X-219557Y-778052D01*
X-216966Y-781507D01*
X-216103Y-785723D01*
X-216103Y-829259D01*
X-215188Y-837336D01*
X-212902Y-844397D01*
X-209092Y-851052D01*
X-205232Y-855522D01*
X-45872Y-1014831D01*
X-39624Y-1019911D01*
X-32969Y-1023315D01*
X-25654Y-1025296D01*
X-19761Y-1025753D01*
X351383Y-1025753D01*
X355396Y-1026617D01*
X358800Y-1029055D01*
X360984Y-1032611D01*
X361492Y-1036777D01*
X360222Y-1040790D01*
X354330Y-1051763D01*
X349961Y-1063193D01*
X349402Y-1066038D01*
X396087Y-1066038D01*
X396087Y-1035913D01*
X396849Y-1032002D01*
X399034Y-1028700D01*
X402285Y-1026515D01*
X406196Y-1025753D01*
X458622Y-1025753D01*
X462483Y-1026515D01*
X465734Y-1028700D01*
X468020Y-1032002D01*
X468731Y-1035913D01*
X468731Y-1066038D01*
X515467Y-1066038D01*
X514807Y-1063193D01*
X510540Y-1051763D01*
X504596Y-1040790D01*
X503377Y-1036777D01*
X503834Y-1032611D01*
X506018Y-1029055D01*
X509422Y-1026617D01*
X513486Y-1025753D01*
X640689Y-1025753D01*
X644550Y-1026515D01*
X647903Y-1028700D01*
X690270Y-1071118D01*
X692454Y-1074369D01*
X693267Y-1078280D01*
X693267Y-1084783D01*
X694842Y-1094333D01*
X698093Y-1103376D01*
X702818Y-1111859D01*
X708863Y-1119327D01*
X716127Y-1125677D01*
X724306Y-1130757D01*
X733298Y-1134364D01*
X742696Y-1136396D01*
X752348Y-1136853D01*
X761847Y-1135532D01*
X771093Y-1132738D01*
X779729Y-1128369D01*
X787501Y-1122680D01*
X794207Y-1115669D01*
X799592Y-1107694D01*
X803554Y-1098905D01*
X805992Y-1089558D01*
X806754Y-1079957D01*
X805992Y-1070406D01*
X803554Y-1061059D01*
X799592Y-1052271D01*
X794207Y-1044244D01*
X787501Y-1037285D01*
X779729Y-1031544D01*
X771093Y-1027176D01*
X761847Y-1024432D01*
X752348Y-1023112D01*
X748639Y-1023315D01*
X744575Y-1022603D01*
X741070Y-1020318D01*
X685292Y-964539D01*
X679399Y-959764D01*
X674319Y-957021D01*
X671068Y-955751D01*
X665429Y-954430D01*
X659434Y-953922D01*
X409803Y-953922D01*
X405485Y-953211D01*
X401624Y-953922D01*
X378256Y-953922D01*
X373837Y-952855D01*
X369468Y-953922D01*
X-1016Y-953922D01*
X-4927Y-953211D01*
X-8229Y-950976D01*
X-141325Y-817930D01*
X-143459Y-814628D01*
X-144272Y-810717D01*
X-144272Y-795375D01*
X-143306Y-791006D01*
X-140462Y-787400D01*
X-136448Y-785418D01*
X-131927Y-785368D01*
X-127304Y-786384D01*
X-117652Y-786790D01*
X-108153Y-785622D01*
X-98907Y-782777D01*
X-86614Y-776376D01*
X-83413Y-775868D01*
X-30530Y-775868D01*
X-22555Y-774954D01*
X-15443Y-772668D01*
X-8839Y-768858D01*
X-4368Y-765048D01*
X466699Y-293979D01*
X469950Y-291846D01*
X473862Y-291033D01*
X477774Y-291846D01*
X480974Y-293979D01*
X483260Y-297281D01*
X484022Y-301193D01*
X484022Y-572820D01*
X483158Y-576986D01*
X480720Y-580390D01*
X477164Y-582472D01*
X472998Y-582980D01*
X468731Y-581660D01*
X468731Y-643077D01*
X473862Y-643077D01*
X477774Y-643890D01*
X480974Y-646023D01*
X483260Y-649376D01*
X484022Y-653237D01*
X484022Y-745642D01*
X483260Y-749503D01*
X480974Y-752805D01*
X477774Y-754989D01*
X473862Y-755802D01*
X468731Y-755802D01*
X468731Y-830021D01*
X469036Y-832916D01*
X468477Y-835710D01*
X464972Y-845667D01*
X463296Y-855167D01*
X463296Y-857707D01*
X462534Y-861517D01*
X462381Y-863295D01*
X463651Y-866546D01*
X464972Y-874318D01*
X468172Y-883412D01*
X472897Y-891794D01*
X478942Y-899363D01*
X486206Y-905764D01*
X494385Y-910742D01*
X503377Y-914349D01*
X512724Y-916381D01*
X522427Y-916787D01*
X531977Y-915619D01*
X541223Y-912723D01*
X549757Y-908405D01*
X557580Y-902665D01*
X564286Y-895705D01*
X569671Y-887730D01*
X573633Y-878941D01*
X576072Y-869645D01*
X576884Y-859993D01*
X576072Y-850341D01*
X573633Y-841044D01*
X569671Y-832256D01*
X564286Y-824280D01*
X558596Y-818438D01*
X556564Y-815136D01*
X555853Y-811428D01*
X555853Y-667512D01*
X556615Y-663498D01*
X559054Y-660146D01*
X562508Y-657910D01*
X566623Y-657352D01*
X570585Y-658418D01*
X573786Y-661060D01*
X583031Y-672134D01*
X597814Y-686968D01*
X613816Y-700227D01*
X631088Y-712012D01*
X649325Y-722172D01*
X668426Y-730605D01*
X688187Y-737311D01*
X708507Y-742086D01*
X729183Y-744931D01*
X750011Y-745845D01*
X770890Y-744931D01*
X791514Y-742086D01*
X811834Y-737311D01*
X831596Y-730605D01*
X850646Y-722172D01*
X868934Y-712012D01*
X886155Y-700227D01*
X902208Y-686968D01*
X916940Y-672134D01*
X930300Y-656132D01*
X942035Y-638911D01*
X952246Y-620674D01*
X954582Y-615391D01*
X956767Y-612241D01*
X960069Y-610057D01*
X963980Y-609346D01*
X967841Y-610209D01*
X971042Y-612343D01*
X973277Y-615696D01*
X973988Y-619556D01*
X973988Y-1118768D01*
X973074Y-1131214D01*
X970686Y-1141476D01*
X966927Y-1151331D01*
X961745Y-1160576D01*
X955294Y-1169009D01*
X947826Y-1176375D01*
X939292Y-1182573D01*
X929995Y-1187602D01*
X920038Y-1191158D01*
X909726Y-1193292D01*
X898702Y-1194054D01*
X521106Y-1194054D01*
X517245Y-1193292D01*
X513994Y-1191158D01*
X511708Y-1187958D01*
X510946Y-1184249D01*
X511556Y-1180338D01*
X514807Y-1171600D01*
X515467Y-1168755D01*
X468731Y-1168755D01*
X468731Y-1183894D01*
X468020Y-1187805D01*
X465734Y-1191107D01*
X462483Y-1193292D01*
X458622Y-1194054D01*
X406196Y-1194054D01*
X402285Y-1193292D01*
X399034Y-1191107D01*
X396849Y-1187805D01*
X396087Y-1183894D01*
X396087Y-1168755D01*
X349402Y-1168755D01*
X349961Y-1171600D01*
X353314Y-1180338D01*
X353872Y-1184249D01*
X353060Y-1187958D01*
X350875Y-1191158D01*
X347522Y-1193292D01*
X343712Y-1194054D01*
X-343916Y-1194054D01*
X-347726Y-1193292D01*
X-350977Y-1191158D01*
X-353212Y-1187958D01*
X-354076Y-1184249D01*
X-353415Y-1180338D01*
X-350164Y-1171600D01*
X-349554Y-1168755D01*
X-396189Y-1168755D01*
X-396189Y-1183894D01*
X-397002Y-1187805D01*
X-399237Y-1191107D01*
X-402488Y-1193292D01*
X-406349Y-1194054D01*
X-458825Y-1194054D01*
X-462635Y-1193292D01*
X-465937Y-1191107D01*
X-468172Y-1187805D01*
X-468934Y-1183894D01*
X-468934Y-1168755D01*
X-515569Y-1168755D01*
X-515010Y-1171600D01*
X-511708Y-1180338D01*
X-511098Y-1184249D01*
X-511911Y-1187958D01*
X-514146Y-1191158D01*
X-517448Y-1193292D01*
X-521208Y-1194054D01*
G37*

%LPC*%
G36*
X-728218Y-1132433D02*
G01*
X-720242Y-1128369D01*
X-712520Y-1122680D01*
X-705815Y-1115669D01*
X-700430Y-1107694D01*
X-697788Y-1101801D01*
X-728218Y-1101801D01*
G37*
G36*
X-771956Y-1132230D02*
G01*
X-771956Y-1101801D01*
X-802436Y-1101801D01*
X-801878Y-1103376D01*
X-797204Y-1111859D01*
X-791108Y-1119327D01*
X-783894Y-1125677D01*
X-775665Y-1130757D01*
G37*
G36*
X-396189Y-1066038D02*
G01*
X-349554Y-1066038D01*
X-350164Y-1063193D01*
X-354431Y-1051763D01*
X-360324Y-1040993D01*
X-367639Y-1031138D01*
X-376377Y-1022553D01*
X-386130Y-1015187D01*
X-396189Y-1009650D01*
G37*
G36*
X-515569Y-1066038D02*
G01*
X-468934Y-1066038D01*
X-468934Y-1009650D01*
X-478993Y-1015187D01*
X-488797Y-1022553D01*
X-497484Y-1031138D01*
X-504799Y-1040993D01*
X-510692Y-1051763D01*
X-515010Y-1063193D01*
G37*
G36*
X-802436Y-1058164D02*
G01*
X-771956Y-1058164D01*
X-771956Y-1027684D01*
X-775665Y-1029157D01*
X-783894Y-1034287D01*
X-791108Y-1040637D01*
X-797204Y-1048105D01*
X-801878Y-1056538D01*
G37*
G36*
X-728218Y-1058164D02*
G01*
X-697788Y-1058164D01*
X-700430Y-1052271D01*
X-705815Y-1044244D01*
X-712520Y-1037285D01*
X-720242Y-1031544D01*
X-728218Y-1027531D01*
G37*
G36*
X871880Y-952398D02*
G01*
X879856Y-948385D01*
X887577Y-942644D01*
X894283Y-935685D01*
X899668Y-927760D01*
X902309Y-921867D01*
X871880Y-921867D01*
G37*
G36*
X828141Y-952246D02*
G01*
X828141Y-921867D01*
X797610Y-921867D01*
X798169Y-923442D01*
X802843Y-931824D01*
X808939Y-939292D01*
X816203Y-945743D01*
X824433Y-950772D01*
G37*
G36*
X411784Y-932383D02*
G01*
X419760Y-928369D01*
X427482Y-922629D01*
X434187Y-915669D01*
X439572Y-907745D01*
X442214Y-901852D01*
X411784Y-901852D01*
G37*
G36*
X368046Y-932230D02*
G01*
X368046Y-901852D01*
X337566Y-901852D01*
X338124Y-903427D01*
X342747Y-911809D01*
X348843Y-919378D01*
X356108Y-925728D01*
X364337Y-930757D01*
G37*
G36*
X-368249Y-922477D02*
G01*
X-360273Y-918464D01*
X-352501Y-912672D01*
X-345846Y-905764D01*
X-340410Y-897686D01*
X-337769Y-891794D01*
X-368249Y-891794D01*
G37*
G36*
X-411988Y-922324D02*
G01*
X-411988Y-891794D01*
X-442468Y-891794D01*
X-441909Y-893368D01*
X-437184Y-901852D01*
X-431139Y-909319D01*
X-423875Y-915669D01*
X-415696Y-920750D01*
G37*
G36*
X91846Y-912418D02*
G01*
X99822Y-908405D01*
X107594Y-902665D01*
X114249Y-895705D01*
X119684Y-887730D01*
X122326Y-881837D01*
X91846Y-881837D01*
G37*
G36*
X48107Y-912266D02*
G01*
X48107Y-881837D01*
X17627Y-881837D01*
X18186Y-883361D01*
X22910Y-891794D01*
X28956Y-899363D01*
X36220Y-905713D01*
X44399Y-910742D01*
G37*
G36*
X797610Y-878128D02*
G01*
X828141Y-878128D01*
X828141Y-847699D01*
X824433Y-849172D01*
X816203Y-854252D01*
X808939Y-860602D01*
X802843Y-868171D01*
X798169Y-876553D01*
G37*
G36*
X871880Y-878128D02*
G01*
X902309Y-878128D01*
X899668Y-872236D01*
X894283Y-864260D01*
X887577Y-857250D01*
X879856Y-851560D01*
X871880Y-847496D01*
G37*
G36*
X411784Y-858113D02*
G01*
X442214Y-858113D01*
X439572Y-852220D01*
X435000Y-845464D01*
X431647Y-845667D01*
X418033Y-844651D01*
X411784Y-843381D01*
G37*
G36*
X337566Y-858113D02*
G01*
X368046Y-858113D01*
X368046Y-827684D01*
X364337Y-829157D01*
X356108Y-834237D01*
X348843Y-840587D01*
X342747Y-848156D01*
X338124Y-856538D01*
G37*
G36*
X-442468Y-848156D02*
G01*
X-411988Y-848156D01*
X-411988Y-843381D01*
X-418185Y-844651D01*
X-431850Y-845667D01*
X-441045Y-845007D01*
X-441909Y-846531D01*
G37*
G36*
X-368249Y-848156D02*
G01*
X-337769Y-848156D01*
X-340410Y-842264D01*
X-345846Y-834237D01*
X-352501Y-827278D01*
X-360222Y-821537D01*
X-368249Y-817575D01*
G37*
G36*
X17627Y-838098D02*
G01*
X48107Y-838098D01*
X48107Y-807669D01*
X44399Y-809193D01*
X36220Y-814222D01*
X28956Y-820623D01*
X22910Y-828141D01*
X18186Y-836523D01*
G37*
G36*
X91846Y-838098D02*
G01*
X122326Y-838098D01*
X119684Y-832205D01*
X114249Y-824280D01*
X107594Y-817321D01*
X99822Y-811580D01*
X91846Y-807567D01*
G37*
G36*
X284683Y-812546D02*
G01*
X295148Y-812546D01*
X305460Y-810818D01*
X315315Y-807415D01*
X324561Y-802436D01*
X332841Y-796036D01*
X339902Y-788314D01*
X342392Y-784555D01*
X345338Y-781558D01*
X349250Y-780034D01*
X353415Y-780288D01*
X357124Y-782015D01*
X367538Y-795629D01*
X376072Y-804214D01*
X380949Y-803300D01*
X392328Y-802792D01*
X396087Y-803198D01*
X396087Y-755802D01*
X363169Y-755802D01*
X359460Y-755040D01*
X356311Y-753059D01*
X353974Y-750062D01*
X353060Y-746455D01*
X352450Y-738987D01*
X349859Y-728878D01*
X345592Y-719277D01*
X339902Y-710488D01*
X332841Y-702767D01*
X324561Y-696366D01*
X315315Y-691438D01*
X305460Y-687984D01*
X295148Y-686257D01*
X284683Y-686257D01*
X274320Y-687984D01*
X264464Y-691438D01*
X255219Y-696366D01*
X246938Y-702767D01*
X239928Y-710488D01*
X234188Y-719277D01*
X229971Y-728878D01*
X227380Y-738987D01*
X226466Y-749452D01*
X227380Y-759815D01*
X229971Y-770026D01*
X234188Y-779576D01*
X239928Y-788314D01*
X246938Y-796036D01*
X255219Y-802436D01*
X264464Y-807415D01*
X274320Y-810818D01*
G37*
G36*
X-908202Y-802386D02*
G01*
X-900176Y-798372D01*
X-892403Y-792632D01*
X-885799Y-785672D01*
X-880364Y-777748D01*
X-877671Y-771855D01*
X-908202Y-771855D01*
G37*
G36*
X-396189Y-643077D02*
G01*
X-348488Y-643077D01*
X-350164Y-635254D01*
X-354431Y-623722D01*
X-360324Y-612952D01*
X-367639Y-603148D01*
X-369620Y-601218D01*
X-371602Y-598322D01*
X-372516Y-594969D01*
X-372262Y-591515D01*
X-367741Y-581863D01*
X-396189Y-581863D01*
G37*
G36*
X348335Y-643077D02*
G01*
X396087Y-643077D01*
X396087Y-636828D01*
X389280Y-636422D01*
X386080Y-635711D01*
X382930Y-634441D01*
X380288Y-632206D01*
X378663Y-629158D01*
X378053Y-625856D01*
X378053Y-581863D01*
X347522Y-581863D01*
X348030Y-583438D01*
X352806Y-591820D01*
X359410Y-600049D01*
X360934Y-602538D01*
X361696Y-606501D01*
X361543Y-609498D01*
X360527Y-612343D01*
X354330Y-623722D01*
X349961Y-635254D01*
G37*
G36*
X347522Y-538124D02*
G01*
X378053Y-538124D01*
X378053Y-507695D01*
X374345Y-509219D01*
X366115Y-514248D01*
X358800Y-520598D01*
X352806Y-528167D01*
X348030Y-536549D01*
G37*
G36*
X421792Y-538124D02*
G01*
X452221Y-538124D01*
X449580Y-532231D01*
X444195Y-524256D01*
X437438Y-517245D01*
X429768Y-511556D01*
X421792Y-507492D01*
G37*
G36*
X-398272Y-538124D02*
G01*
X-367741Y-538124D01*
X-370484Y-532231D01*
X-375869Y-524306D01*
X-382473Y-517245D01*
X-390245Y-511606D01*
X-398272Y-507492D01*
G37*
G36*
X-438200Y-432460D02*
G01*
X-430276Y-428396D01*
X-422503Y-422706D01*
X-415848Y-415696D01*
X-410464Y-407720D01*
X-407771Y-401828D01*
X-438200Y-401828D01*
G37*
G36*
X-438200Y-358140D02*
G01*
X-407771Y-358140D01*
X-410464Y-352298D01*
X-415848Y-344220D01*
X-422503Y-337261D01*
X-430276Y-331520D01*
X-438200Y-327507D01*
G37*
G36*
X-68224Y-342392D02*
G01*
X-60299Y-338378D01*
X-52527Y-332638D01*
X-45821Y-325678D01*
X-40436Y-317754D01*
X-37795Y-311861D01*
X-68224Y-311861D01*
G37*
G36*
X111760Y-342392D02*
G01*
X119735Y-338378D01*
X127508Y-332638D01*
X134112Y-325678D01*
X139547Y-317754D01*
X142240Y-311861D01*
X111760Y-311861D01*
G37*
G36*
X-111912Y-342239D02*
G01*
X-111912Y-311861D01*
X-142443Y-311861D01*
X-141884Y-313385D01*
X-137210Y-321818D01*
X-131165Y-329387D01*
X-123901Y-335737D01*
X-115671Y-340766D01*
G37*
G36*
X68072Y-342239D02*
G01*
X68072Y-311861D01*
X37541Y-311861D01*
X38100Y-313385D01*
X42773Y-321818D01*
X48869Y-329387D01*
X56134Y-335737D01*
X64262Y-340766D01*
G37*
G36*
X-898194Y-278180D02*
G01*
X-867765Y-278180D01*
X-870407Y-272288D01*
X-875842Y-264210D01*
X-882497Y-257251D01*
X-890269Y-251510D01*
X-898194Y-247497D01*
G37*
G36*
X37541Y-268122D02*
G01*
X68072Y-268122D01*
X68072Y-237693D01*
X64262Y-239166D01*
X56134Y-244246D01*
X48869Y-250596D01*
X42773Y-258165D01*
X38100Y-266547D01*
G37*
G36*
X-142443Y-268122D02*
G01*
X-111912Y-268122D01*
X-111912Y-237693D01*
X-115671Y-239166D01*
X-123901Y-244246D01*
X-131165Y-250596D01*
X-137210Y-258165D01*
X-141884Y-266547D01*
G37*
G36*
X-68224Y-268122D02*
G01*
X-37795Y-268122D01*
X-40436Y-262229D01*
X-45821Y-254254D01*
X-52527Y-247345D01*
X-60299Y-241554D01*
X-68224Y-237591D01*
G37*
G36*
X111760Y-268122D02*
G01*
X142240Y-268122D01*
X139547Y-262229D01*
X134112Y-254254D01*
X127508Y-247345D01*
X119735Y-241554D01*
X111760Y-237591D01*
G37*
G36*
X111760Y-162407D02*
G01*
X119735Y-158445D01*
X127508Y-152654D01*
X134112Y-145745D01*
X139547Y-137718D01*
X142240Y-131826D01*
X111760Y-131826D01*
G37*
G36*
X-68224Y-162407D02*
G01*
X-60299Y-158445D01*
X-52527Y-152654D01*
X-45821Y-145745D01*
X-40436Y-137718D01*
X-37795Y-131826D01*
X-68224Y-131826D01*
G37*
G36*
X-111912Y-162306D02*
G01*
X-111912Y-131826D01*
X-142443Y-131826D01*
X-141884Y-133451D01*
X-137210Y-141884D01*
X-131165Y-149301D01*
X-123901Y-155702D01*
X-115671Y-160731D01*
G37*
G36*
X68072Y-162306D02*
G01*
X68072Y-131826D01*
X37541Y-131826D01*
X38100Y-133451D01*
X42773Y-141884D01*
X48869Y-149301D01*
X56134Y-155702D01*
X64262Y-160731D01*
G37*
G36*
X37541Y-88138D02*
G01*
X68072Y-88138D01*
X68072Y-57658D01*
X64262Y-59232D01*
X56134Y-64262D01*
X48869Y-70612D01*
X42773Y-78130D01*
X38100Y-86563D01*
G37*
G36*
X-142443Y-88138D02*
G01*
X-111912Y-88138D01*
X-111912Y-57658D01*
X-115671Y-59232D01*
X-123901Y-64262D01*
X-131165Y-70612D01*
X-137210Y-78130D01*
X-141884Y-86563D01*
G37*
G36*
X111760Y-88138D02*
G01*
X142240Y-88138D01*
X139547Y-82296D01*
X134112Y-74218D01*
X127508Y-67259D01*
X119735Y-61518D01*
X111760Y-57505D01*
G37*
G36*
X-68224Y-88138D02*
G01*
X-37795Y-88138D01*
X-40436Y-82296D01*
X-45821Y-74218D01*
X-52527Y-67259D01*
X-60299Y-61518D01*
X-68224Y-57505D01*
G37*
G36*
X-728116Y67564D02*
G01*
X-720191Y71577D01*
X-712419Y77317D01*
X-705713Y84277D01*
X-700328Y92303D01*
X-697738Y98196D01*
X-728116Y98196D01*
G37*
G36*
X-771804Y67665D02*
G01*
X-771804Y98196D01*
X-802335Y98196D01*
X-801827Y96570D01*
X-797102Y88188D01*
X-791057Y80670D01*
X-783793Y74320D01*
X-775563Y69189D01*
G37*
G36*
X-802335Y141884D02*
G01*
X-771804Y141884D01*
X-771804Y172262D01*
X-775563Y170738D01*
X-783793Y165760D01*
X-791057Y159359D01*
X-797102Y151892D01*
X-801827Y143408D01*
G37*
G36*
X-728116Y141884D02*
G01*
X-697738Y141884D01*
X-700328Y147777D01*
X-705713Y155702D01*
X-712419Y162712D01*
X-720191Y168402D01*
X-728116Y172466D01*
G37*
G36*
X844042Y181864D02*
G01*
X888593Y181864D01*
X888593Y226415D01*
X870508Y226415D01*
X864158Y225755D01*
X858723Y223824D01*
X853795Y220675D01*
X849680Y216611D01*
X846632Y211734D01*
X844753Y206298D01*
X844042Y199948D01*
G37*
G36*
X-918108Y247548D02*
G01*
X-910234Y251612D01*
X-902411Y257302D01*
X-895705Y264312D01*
X-890320Y272288D01*
X-887730Y278180D01*
X-918108Y278180D01*
G37*
G36*
X-88188Y307543D02*
G01*
X-80314Y311556D01*
X-72542Y317296D01*
X-65836Y324256D01*
X-60401Y332333D01*
X-57810Y338175D01*
X-88188Y338175D01*
G37*
G36*
X131724Y307543D02*
G01*
X139750Y311556D01*
X147523Y317296D01*
X154127Y324256D01*
X159512Y332333D01*
X162255Y338175D01*
X131724Y338175D01*
G37*
G36*
X-131927Y307746D02*
G01*
X-131927Y338175D01*
X-162458Y338175D01*
X-161899Y336600D01*
X-157175Y328218D01*
X-151180Y320700D01*
X-143865Y314299D01*
X-135686Y309270D01*
G37*
G36*
X88087Y307746D02*
G01*
X88087Y338175D01*
X57556Y338175D01*
X58115Y336600D01*
X62788Y328218D01*
X68884Y320700D01*
X76047Y314299D01*
X84277Y309270D01*
G37*
G36*
X-418134Y317550D02*
G01*
X-410159Y321614D01*
X-402437Y327304D01*
X-395732Y334314D01*
X-390347Y342239D01*
X-387705Y348132D01*
X-418134Y348132D01*
G37*
G36*
X-461873Y317754D02*
G01*
X-461873Y348132D01*
X-492353Y348132D01*
X-491845Y346557D01*
X-487172Y338175D01*
X-481076Y330606D01*
X-473811Y324256D01*
X-465582Y319227D01*
G37*
G36*
X57556Y381863D02*
G01*
X88087Y381863D01*
X88087Y412343D01*
X84277Y410819D01*
X76047Y405739D01*
X68884Y399338D01*
X62788Y391871D01*
X58115Y383489D01*
G37*
G36*
X-162458Y381863D02*
G01*
X-131927Y381863D01*
X-131927Y412343D01*
X-135686Y410819D01*
X-143865Y405739D01*
X-151180Y399338D01*
X-157175Y391871D01*
X-161899Y383489D01*
G37*
G36*
X131724Y381863D02*
G01*
X162255Y381863D01*
X159512Y387756D01*
X154127Y395782D01*
X147523Y402742D01*
X139750Y408482D01*
X131724Y412496D01*
G37*
G36*
X-88188Y381863D02*
G01*
X-57810Y381863D01*
X-60401Y387756D01*
X-65836Y395782D01*
X-72542Y402742D01*
X-80314Y408482D01*
X-88188Y412496D01*
G37*
G36*
X-492353Y391871D02*
G01*
X-461873Y391871D01*
X-461873Y422300D01*
X-465582Y420827D01*
X-473811Y415747D01*
X-481076Y409346D01*
X-487172Y401828D01*
X-491845Y393446D01*
G37*
G36*
X-418134Y391871D02*
G01*
X-387705Y391871D01*
X-390347Y397764D01*
X-395732Y405688D01*
X-402437Y412648D01*
X-410159Y418388D01*
X-418134Y422401D01*
G37*
G36*
X-88188Y537565D02*
G01*
X-80314Y541528D01*
X-72542Y547319D01*
X-65836Y554228D01*
X-60401Y562305D01*
X-57810Y568198D01*
X-88188Y568198D01*
G37*
G36*
X131724Y537565D02*
G01*
X139750Y541528D01*
X147523Y547319D01*
X154127Y554228D01*
X159512Y562305D01*
X162255Y568198D01*
X131724Y568198D01*
G37*
G36*
X88087Y537667D02*
G01*
X88087Y568198D01*
X57556Y568198D01*
X58115Y566623D01*
X62788Y558139D01*
X68884Y550672D01*
X76047Y544322D01*
X84277Y539242D01*
G37*
G36*
X-131927Y537667D02*
G01*
X-131927Y568198D01*
X-162458Y568198D01*
X-161899Y566623D01*
X-157175Y558139D01*
X-151180Y550672D01*
X-143865Y544322D01*
X-135686Y539242D01*
G37*
G36*
X57556Y611835D02*
G01*
X88087Y611835D01*
X88087Y642315D01*
X84277Y640740D01*
X76047Y635711D01*
X68884Y629361D01*
X62788Y621893D01*
X58115Y613410D01*
G37*
G36*
X-162458Y611835D02*
G01*
X-131927Y611835D01*
X-131927Y642315D01*
X-135686Y640740D01*
X-143865Y635711D01*
X-151180Y629361D01*
X-157175Y621893D01*
X-161899Y613410D01*
G37*
G36*
X131724Y611835D02*
G01*
X162255Y611835D01*
X159512Y617728D01*
X154127Y625754D01*
X147523Y632714D01*
X139750Y638454D01*
X131724Y642467D01*
G37*
G36*
X-88188Y611835D02*
G01*
X-57810Y611835D01*
X-60401Y617728D01*
X-65836Y625754D01*
X-72542Y632714D01*
X-80314Y638454D01*
X-88188Y642467D01*
G37*
G36*
X461772Y617575D02*
G01*
X469696Y621588D01*
X477469Y627329D01*
X484174Y634288D01*
X489559Y642315D01*
X492201Y648106D01*
X461772Y648106D01*
G37*
G36*
X-428142Y617575D02*
G01*
X-420166Y621588D01*
X-412445Y627329D01*
X-405739Y634288D01*
X-400354Y642213D01*
X-397662Y648106D01*
X-428142Y648106D01*
G37*
G36*
X418084Y617677D02*
G01*
X418084Y648106D01*
X387553Y648106D01*
X388061Y646531D01*
X392785Y638200D01*
X398830Y630682D01*
X406095Y624332D01*
X414324Y619201D01*
G37*
G36*
X-471830Y617677D02*
G01*
X-471830Y648106D01*
X-502361Y648106D01*
X-501853Y646531D01*
X-497128Y638149D01*
X-491083Y630682D01*
X-483819Y624281D01*
X-475589Y619201D01*
G37*
G36*
X-502361Y691896D02*
G01*
X-471830Y691896D01*
X-471830Y722274D01*
X-475589Y720750D01*
X-483819Y715721D01*
X-491083Y709371D01*
X-497128Y701802D01*
X-501853Y693420D01*
G37*
G36*
X387553Y691896D02*
G01*
X418084Y691896D01*
X418084Y722274D01*
X414324Y720750D01*
X406095Y715772D01*
X398830Y709371D01*
X392785Y701903D01*
X388061Y693420D01*
G37*
G36*
X-428142Y691896D02*
G01*
X-397662Y691896D01*
X-400354Y697738D01*
X-405739Y705713D01*
X-412445Y712724D01*
X-420166Y718413D01*
X-428142Y722477D01*
G37*
G36*
X461772Y691896D02*
G01*
X492201Y691896D01*
X489559Y697788D01*
X484174Y705713D01*
X477469Y712724D01*
X469696Y718413D01*
X461772Y722477D01*
G37*

%LPD*%
D10*
X9999Y89999D02*
G01*
X-89999Y89999D01*
X-199999Y199999D01*
X-320083Y199999D01*
X309905Y130004D02*
G01*
X309905Y181726D01*
X281625Y210007D01*
X150037Y-480087D02*
G01*
X169806Y-480087D01*
X449910Y-199984D01*
X449910Y10007D01*
X389915Y-79984D02*
G01*
X259918Y50012D01*
X159920Y50012D01*
X749909Y-1079982D02*
G01*
X659815Y-989888D01*
X659815Y-989860D01*
X-20142Y-989860D01*
X-180162Y-829840D01*
X-180162Y-580163D01*
X-89992Y-489991D01*
X-510006Y-940003D02*
G01*
X-520011Y-929998D01*
X-520011Y20043D01*
X-340055Y199999D01*
X-320093Y199999D01*
X519988Y-859993D02*
G01*
X519904Y-859993D01*
X519904Y-269986D01*
X659914Y-129976D01*
X659914Y-109984D01*
X-90091Y-489991D02*
G01*
X-259994Y-320088D01*
X-259994Y0D01*
X-120215Y-730021D02*
G01*
X-110058Y-739929D01*
X-30045Y-739929D01*
X559917Y-149966D01*
X559917Y60020D01*
X99898Y210007D02*
G01*
X500075Y210007D01*
X686488Y23596D01*
X919911Y23596D01*
X389915Y-159994D02*
G01*
X369897Y-159994D01*
X269900Y-59997D01*
X-170103Y-489991D02*
G01*
X-240106Y-489991D01*
X-330098Y-399999D01*
D11*
G01*
X750011Y-519988D03*
G01*
X-749985Y-519988D03*
G01*
X750011Y480009D03*
G01*
X-749985Y480009D03*
D12*
G01*
X919911Y150520D03*
D13*
G01*
X919911Y23520D03*
G01*
X919911Y-103479D03*
G01*
X919911Y-230479D03*
D14*
G01*
X432409Y-1117396D03*
D16*
G01*
X432409Y-699414D03*
G01*
X-432612Y-699414D03*
D14*
G01*
X-432612Y-1117396D03*
D17*
G01*
X439902Y670001D03*
G01*
X109905Y590016D03*
G01*
X109905Y360019D03*
G01*
X-110083Y360019D03*
G01*
X-110083Y590016D03*
G01*
X-749985Y119989D03*
G01*
X-90093Y-109981D03*
G01*
X89915Y-109981D03*
G01*
X-90093Y-289991D03*
G01*
X89915Y-289991D03*
G01*
X-460095Y-379984D03*
G01*
X389915Y-879982D03*
G01*
X-390093Y-870000D03*
G01*
X-750087Y-1079982D03*
G01*
X850011Y-899998D03*
G01*
X-920089Y-299999D03*
G01*
X-420090Y-559993D03*
G01*
X399897Y-559993D03*
G01*
X-449986Y670001D03*
G01*
X-940003Y299999D03*
G01*
X70002Y-859993D03*
G01*
X-929995Y-750011D03*
G01*
X-440004Y370001D03*
G01*
X149910Y-479983D03*
G01*
X449910Y10007D03*
G01*
X559917Y60020D03*
G01*
X-120091Y-729995D03*
G01*
X389915Y-79984D03*
G01*
X159918Y50012D03*
G01*
X-170103Y-489991D03*
G01*
X-330098Y-399999D03*
G01*
X389915Y-159994D03*
G01*
X269900Y-59994D03*
G01*
X99898Y210007D03*
G01*
X519988Y-859993D03*
G01*
X659917Y-109981D03*
G01*
X-510006Y-940003D03*
G01*
X-320090Y199999D03*
G01*
X-90093Y-489991D03*
G01*
X-259994Y0D03*
G01*
X749909Y-1079982D03*
G01*
X309905Y129997D03*
G01*
X10007Y89992D03*
M02*
