G04 Layer: TopSilkscreenLayer*
G04 EasyEDA v6.5.57, 2026-06-27 20:36:30*
G04 db5aa68870094b5ea620e0544f82f9b8,aded602c09064ad3b3ee905135c3d30b,10*
G04 Gerber Generator version 0.2*
G04 Scale: 100 percent, Rotated: No, Reflected: No *
G04 Dimensions in millimeters *
G04 leading zeros omitted , absolute positions ,4 integer and 5 decimal *
%FSLAX45Y45*%
%MOMM*%

%ADD10C,0.1500*%
%ADD11C,0.1524*%
%ADD12C,0.2000*%
%ADD13C,0.2540*%
%ADD14C,0.1016*%
%ADD15C,0.3000*%
%ADD16C,0.0199*%

%LPD*%
D10*
X710044Y-759383D02*
G01*
X710044Y-826185D01*
X710044Y-759383D02*
G01*
X738746Y-759383D01*
X748144Y-762431D01*
X751446Y-765733D01*
X754494Y-772083D01*
X754494Y-778433D01*
X751446Y-784783D01*
X748144Y-788085D01*
X738746Y-791133D01*
X710044Y-791133D02*
G01*
X738746Y-791133D01*
X748144Y-794435D01*
X751446Y-797483D01*
X754494Y-803833D01*
X754494Y-813485D01*
X751446Y-819835D01*
X748144Y-822883D01*
X738746Y-826185D01*
X710044Y-826185D01*
X794626Y-759383D02*
G01*
X788276Y-762431D01*
X781926Y-768781D01*
X778624Y-775385D01*
X775576Y-784783D01*
X775576Y-800785D01*
X778624Y-810183D01*
X781926Y-816533D01*
X788276Y-822883D01*
X794626Y-826185D01*
X807326Y-826185D01*
X813676Y-822883D01*
X820026Y-816533D01*
X823328Y-810183D01*
X826376Y-800785D01*
X826376Y-784783D01*
X823328Y-775385D01*
X820026Y-768781D01*
X813676Y-762431D01*
X807326Y-759383D01*
X794626Y-759383D01*
X866508Y-759383D02*
G01*
X860158Y-762431D01*
X853808Y-768781D01*
X850760Y-775385D01*
X847458Y-784783D01*
X847458Y-800785D01*
X850760Y-810183D01*
X853808Y-816533D01*
X860158Y-822883D01*
X866508Y-826185D01*
X879208Y-826185D01*
X885558Y-822883D01*
X891908Y-816533D01*
X895210Y-810183D01*
X898258Y-800785D01*
X898258Y-784783D01*
X895210Y-775385D01*
X891908Y-768781D01*
X885558Y-762431D01*
X879208Y-759383D01*
X866508Y-759383D01*
X941692Y-759383D02*
G01*
X941692Y-826185D01*
X919340Y-759383D02*
G01*
X963790Y-759383D01*
X-960008Y-769485D02*
G01*
X-960008Y-836287D01*
X-960008Y-769485D02*
G01*
X-931306Y-769485D01*
X-921908Y-772533D01*
X-918606Y-775835D01*
X-915558Y-782185D01*
X-915558Y-788535D01*
X-918606Y-794885D01*
X-921908Y-797933D01*
X-931306Y-801235D01*
X-960008Y-801235D01*
X-937656Y-801235D02*
G01*
X-915558Y-836287D01*
X-850026Y-778883D02*
G01*
X-856376Y-772533D01*
X-865774Y-769485D01*
X-878474Y-769485D01*
X-888126Y-772533D01*
X-894476Y-778883D01*
X-894476Y-785233D01*
X-891174Y-791583D01*
X-888126Y-794885D01*
X-881776Y-797933D01*
X-862726Y-804283D01*
X-856376Y-807585D01*
X-853074Y-810633D01*
X-850026Y-816983D01*
X-850026Y-826635D01*
X-856376Y-832985D01*
X-865774Y-836287D01*
X-878474Y-836287D01*
X-888126Y-832985D01*
X-894476Y-826635D01*
X-806592Y-769485D02*
G01*
X-806592Y-836287D01*
X-828944Y-769485D02*
G01*
X-784240Y-769485D01*
X327649Y-65288D02*
G01*
X324601Y-58938D01*
X318251Y-52588D01*
X311901Y-49286D01*
X299201Y-49286D01*
X292851Y-52588D01*
X286247Y-58938D01*
X283199Y-65288D01*
X279897Y-74940D01*
X279897Y-90688D01*
X283199Y-100340D01*
X286247Y-106690D01*
X292851Y-113040D01*
X299201Y-116088D01*
X311901Y-116088D01*
X318251Y-113040D01*
X324601Y-106690D01*
X327649Y-100340D01*
X386831Y-49286D02*
G01*
X355081Y-49286D01*
X352033Y-77988D01*
X355081Y-74940D01*
X364733Y-71638D01*
X374131Y-71638D01*
X383783Y-74940D01*
X390133Y-81290D01*
X393181Y-90688D01*
X393181Y-97038D01*
X390133Y-106690D01*
X383783Y-113040D01*
X374131Y-116088D01*
X364733Y-116088D01*
X355081Y-113040D01*
X352033Y-109738D01*
X348731Y-103388D01*
D11*
X-419917Y-329267D02*
G01*
X-419917Y-396069D01*
X-419917Y-329267D02*
G01*
X-391469Y-329267D01*
X-381817Y-332569D01*
X-378515Y-335617D01*
X-375467Y-341967D01*
X-375467Y-348571D01*
X-378515Y-354921D01*
X-381817Y-357969D01*
X-391469Y-361271D01*
X-419917Y-361271D01*
X-397819Y-361271D02*
G01*
X-375467Y-396069D01*
X-309935Y-329267D02*
G01*
X-341685Y-396069D01*
X-354385Y-329267D02*
G01*
X-309935Y-329267D01*
X320065Y-329267D02*
G01*
X320065Y-396069D01*
X320065Y-329267D02*
G01*
X348513Y-329267D01*
X358165Y-332569D01*
X361467Y-335617D01*
X364515Y-341967D01*
X364515Y-348571D01*
X361467Y-354921D01*
X358165Y-357969D01*
X348513Y-361271D01*
X320065Y-361271D01*
X342163Y-361271D02*
G01*
X364515Y-396069D01*
X401345Y-329267D02*
G01*
X391947Y-332569D01*
X388645Y-338919D01*
X388645Y-345269D01*
X391947Y-351619D01*
X398297Y-354921D01*
X410997Y-357969D01*
X420649Y-361271D01*
X426999Y-367621D01*
X430047Y-373971D01*
X430047Y-383369D01*
X426999Y-389719D01*
X423697Y-393021D01*
X414299Y-396069D01*
X401345Y-396069D01*
X391947Y-393021D01*
X388645Y-389719D01*
X385597Y-383369D01*
X385597Y-373971D01*
X388645Y-367621D01*
X394995Y-361271D01*
X404647Y-357969D01*
X417347Y-354921D01*
X423697Y-351619D01*
X426999Y-345269D01*
X426999Y-338919D01*
X423697Y-332569D01*
X414299Y-329267D01*
X401345Y-329267D01*
X-922263Y-15273D02*
G01*
X-925565Y-8923D01*
X-931915Y-2573D01*
X-938265Y474D01*
X-950965Y474D01*
X-957315Y-2573D01*
X-963665Y-8923D01*
X-966967Y-15273D01*
X-970015Y-24925D01*
X-970015Y-40927D01*
X-966967Y-50325D01*
X-963665Y-56675D01*
X-957315Y-63025D01*
X-950965Y-66327D01*
X-938265Y-66327D01*
X-931915Y-63025D01*
X-925565Y-56675D01*
X-922263Y-50325D01*
X-898133Y-15273D02*
G01*
X-898133Y-12225D01*
X-894831Y-5875D01*
X-891783Y-2573D01*
X-885433Y474D01*
X-872733Y474D01*
X-866383Y-2573D01*
X-863081Y-5875D01*
X-860033Y-12225D01*
X-860033Y-18575D01*
X-863081Y-24925D01*
X-869431Y-34323D01*
X-901435Y-66327D01*
X-856731Y-66327D01*
X-882263Y254746D02*
G01*
X-885565Y261096D01*
X-891915Y267446D01*
X-898265Y270748D01*
X-910965Y270748D01*
X-917315Y267446D01*
X-923665Y261096D01*
X-926967Y254746D01*
X-930015Y245094D01*
X-930015Y229346D01*
X-926967Y219694D01*
X-923665Y213344D01*
X-917315Y206994D01*
X-910965Y203946D01*
X-898265Y203946D01*
X-891915Y206994D01*
X-885565Y213344D01*
X-882263Y219694D01*
X-855085Y270748D02*
G01*
X-820033Y270748D01*
X-839083Y245094D01*
X-829431Y245094D01*
X-823081Y242046D01*
X-820033Y238744D01*
X-816731Y229346D01*
X-816731Y222996D01*
X-820033Y213344D01*
X-826383Y206994D01*
X-836035Y203946D01*
X-845433Y203946D01*
X-855085Y206994D01*
X-858133Y210296D01*
X-861435Y216646D01*
X389981Y270621D02*
G01*
X389981Y203819D01*
X389981Y270621D02*
G01*
X418429Y270621D01*
X428081Y267573D01*
X431383Y264271D01*
X434431Y257921D01*
X434431Y251571D01*
X431383Y245221D01*
X428081Y241919D01*
X418429Y238871D01*
X389981Y238871D01*
X412079Y238871D02*
G01*
X434431Y203819D01*
X461863Y270621D02*
G01*
X496915Y270621D01*
X477611Y245221D01*
X487263Y245221D01*
X493613Y241919D01*
X496915Y238871D01*
X499963Y229219D01*
X499963Y222869D01*
X496915Y213471D01*
X490565Y207121D01*
X480913Y203819D01*
X471261Y203819D01*
X461863Y207121D01*
X458561Y210169D01*
X455513Y216519D01*
X279923Y50510D02*
G01*
X279923Y-16291D01*
X279923Y50510D02*
G01*
X308625Y50510D01*
X318277Y47462D01*
X321325Y44160D01*
X324627Y37810D01*
X324627Y31460D01*
X321325Y25110D01*
X318277Y22062D01*
X308625Y18760D01*
X279923Y18760D01*
X302275Y18760D02*
G01*
X324627Y-16291D01*
X377459Y50510D02*
G01*
X345455Y6060D01*
X393207Y6060D01*
X377459Y50510D02*
G01*
X377459Y-16291D01*
X679879Y579D02*
G01*
X679879Y-66222D01*
X679879Y579D02*
G01*
X708581Y579D01*
X717979Y-2468D01*
X721281Y-5770D01*
X724329Y-12120D01*
X724329Y-18470D01*
X721281Y-24820D01*
X717979Y-27868D01*
X708581Y-31170D01*
X679879Y-31170D01*
X702231Y-31170D02*
G01*
X724329Y-66222D01*
X745411Y-12120D02*
G01*
X751761Y-8818D01*
X761413Y579D01*
X761413Y-66222D01*
X579803Y270621D02*
G01*
X579803Y203819D01*
X579803Y270621D02*
G01*
X608505Y270621D01*
X618157Y267573D01*
X621205Y264271D01*
X624507Y257921D01*
X624507Y251571D01*
X621205Y245221D01*
X618157Y241919D01*
X608505Y238871D01*
X579803Y238871D01*
X602155Y238871D02*
G01*
X624507Y203819D01*
X648637Y254619D02*
G01*
X648637Y257921D01*
X651939Y264271D01*
X654987Y267573D01*
X661337Y270621D01*
X674037Y270621D01*
X680387Y267573D01*
X683689Y264271D01*
X686737Y257921D01*
X686737Y251571D01*
X683689Y245221D01*
X677339Y235569D01*
X645335Y203819D01*
X690039Y203819D01*
D10*
X-519922Y-109423D02*
G01*
X-519922Y-176225D01*
X-451342Y-125171D02*
G01*
X-454390Y-118821D01*
X-460740Y-112471D01*
X-467090Y-109423D01*
X-479790Y-109423D01*
X-486394Y-112471D01*
X-492744Y-118821D01*
X-495792Y-125171D01*
X-499094Y-134823D01*
X-499094Y-150825D01*
X-495792Y-160223D01*
X-492744Y-166573D01*
X-486394Y-172923D01*
X-479790Y-176225D01*
X-467090Y-176225D01*
X-460740Y-172923D01*
X-454390Y-166573D01*
X-451342Y-160223D01*
X-427212Y-125171D02*
G01*
X-427212Y-122123D01*
X-423910Y-115773D01*
X-420608Y-112471D01*
X-414258Y-109423D01*
X-401558Y-109423D01*
X-395208Y-112471D01*
X-392160Y-115773D01*
X-388858Y-122123D01*
X-388858Y-128473D01*
X-392160Y-134823D01*
X-398510Y-144475D01*
X-430260Y-176225D01*
X-385810Y-176225D01*
X-70180Y490702D02*
G01*
X-70180Y423900D01*
X-1346Y474700D02*
G01*
X-4648Y481050D01*
X-10998Y487400D01*
X-17348Y490702D01*
X-30048Y490702D01*
X-36398Y487400D01*
X-42748Y481050D01*
X-45796Y474700D01*
X-49098Y465302D01*
X-49098Y449300D01*
X-45796Y439648D01*
X-42748Y433298D01*
X-36398Y426948D01*
X-30048Y423900D01*
X-17348Y423900D01*
X-10998Y426948D01*
X-4648Y433298D01*
X-1346Y439648D01*
X26085Y490702D02*
G01*
X60883Y490702D01*
X41833Y465302D01*
X51485Y465302D01*
X57835Y462000D01*
X60883Y458952D01*
X64185Y449300D01*
X64185Y442950D01*
X60883Y433298D01*
X54533Y426948D01*
X45135Y423900D01*
X35483Y423900D01*
X26085Y426948D01*
X22783Y430250D01*
X19735Y436600D01*
D11*
X-490126Y270606D02*
G01*
X-490126Y203804D01*
X-490126Y270606D02*
G01*
X-461424Y270606D01*
X-452026Y267558D01*
X-448724Y264256D01*
X-445422Y257906D01*
X-445422Y251556D01*
X-448724Y245206D01*
X-452026Y241904D01*
X-461424Y238856D01*
X-490126Y238856D01*
X-467774Y238856D02*
G01*
X-445422Y203804D01*
X-386240Y270606D02*
G01*
X-418244Y270606D01*
X-421292Y241904D01*
X-418244Y245206D01*
X-408592Y248254D01*
X-399194Y248254D01*
X-389542Y245206D01*
X-383192Y238856D01*
X-379890Y229204D01*
X-379890Y222854D01*
X-383192Y213456D01*
X-389542Y207106D01*
X-399194Y203804D01*
X-408592Y203804D01*
X-418244Y207106D01*
X-421292Y210154D01*
X-424594Y216504D01*
X679881Y-149283D02*
G01*
X679881Y-216085D01*
X679881Y-149283D02*
G01*
X708583Y-149283D01*
X717981Y-152585D01*
X721283Y-155633D01*
X724331Y-161983D01*
X724331Y-168333D01*
X721283Y-174683D01*
X717981Y-177985D01*
X708583Y-181287D01*
X679881Y-181287D01*
X702233Y-181287D02*
G01*
X724331Y-216085D01*
X783513Y-158935D02*
G01*
X780465Y-152585D01*
X770813Y-149283D01*
X764463Y-149283D01*
X755065Y-152585D01*
X748715Y-161983D01*
X745413Y-177985D01*
X745413Y-193987D01*
X748715Y-206687D01*
X755065Y-213037D01*
X764463Y-216085D01*
X767765Y-216085D01*
X777163Y-213037D01*
X783513Y-206687D01*
X786815Y-197035D01*
X786815Y-193987D01*
X783513Y-184335D01*
X777163Y-177985D01*
X767765Y-174683D01*
X764463Y-174683D01*
X755065Y-177985D01*
X748715Y-184335D01*
X745413Y-193987D01*
X-632391Y254746D02*
G01*
X-635439Y261096D01*
X-641789Y267446D01*
X-648393Y270748D01*
X-661093Y270748D01*
X-667443Y267446D01*
X-673793Y261096D01*
X-676841Y254746D01*
X-680143Y245094D01*
X-680143Y229346D01*
X-676841Y219694D01*
X-673793Y213344D01*
X-667443Y206994D01*
X-661093Y203946D01*
X-648393Y203946D01*
X-641789Y206994D01*
X-635439Y213344D01*
X-632391Y219694D01*
X-579559Y270748D02*
G01*
X-611309Y226044D01*
X-563557Y226044D01*
X-579559Y270748D02*
G01*
X-579559Y203946D01*
X-902451Y-165387D02*
G01*
X-905499Y-158783D01*
X-911849Y-152433D01*
X-918199Y-149385D01*
X-930899Y-149385D01*
X-937249Y-152433D01*
X-943853Y-158783D01*
X-946901Y-165387D01*
X-950203Y-174785D01*
X-950203Y-190787D01*
X-946901Y-200185D01*
X-943853Y-206535D01*
X-937249Y-212885D01*
X-930899Y-216187D01*
X-918199Y-216187D01*
X-911849Y-212885D01*
X-905499Y-206535D01*
X-902451Y-200185D01*
X-881369Y-162085D02*
G01*
X-875019Y-158783D01*
X-865367Y-149385D01*
X-865367Y-216187D01*
G36*
X803249Y-865022D02*
G01*
X803249Y-934262D01*
X818489Y-934262D01*
X818489Y-865022D01*
G37*
G36*
X-818489Y-865733D02*
G01*
X-818489Y-934974D01*
X-803249Y-934974D01*
X-803249Y-865733D01*
G37*
D12*
X-900252Y-979957D02*
G01*
X-929970Y-950239D01*
X-929970Y-860069D01*
X899845Y-979957D02*
G01*
X930071Y-949985D01*
X930071Y-849909D01*
D10*
X-29999Y89999D02*
G01*
X-29999Y89999D01*
X9999Y49999D01*
X219999Y49999D01*
X229999Y49999D01*
X249999Y29999D01*
X249999Y-19999D01*
X269999Y-39999D01*
X234330Y80149D02*
G01*
X249765Y80149D01*
X259905Y70010D01*
D11*
X-392714Y-519849D02*
G01*
X-464517Y-519849D01*
X-464517Y-420128D01*
X-392714Y-420128D01*
X-347471Y-519849D02*
G01*
X-275668Y-519849D01*
X-275668Y-420128D01*
X-347471Y-420128D01*
X392526Y-420128D02*
G01*
X464329Y-420128D01*
X464329Y-519849D01*
X392526Y-519849D01*
X347284Y-420128D02*
G01*
X275480Y-420128D01*
X275480Y-519849D01*
X347284Y-519849D01*
X709114Y-849802D02*
G01*
X772769Y-849802D01*
X788007Y-865040D01*
X788007Y-934280D01*
X772769Y-949518D01*
X709114Y-949518D01*
X671217Y-850140D02*
G01*
X592325Y-850140D01*
X592325Y-949855D01*
X671217Y-949855D01*
D13*
X851202Y214010D02*
G01*
X819904Y214010D01*
X1019903Y214010D02*
G01*
X988606Y214010D01*
X883925Y-293989D02*
G01*
X819904Y-293989D01*
X1019903Y-293989D02*
G01*
X955883Y-293989D01*
X819904Y214010D02*
G01*
X819904Y-293989D01*
X1019903Y214010D02*
G01*
X1019903Y-293989D01*
D11*
X-709114Y-950193D02*
G01*
X-772769Y-950193D01*
X-788007Y-934956D01*
X-788007Y-865715D01*
X-772769Y-850478D01*
X-709114Y-850478D01*
X-671217Y-949855D02*
G01*
X-592325Y-949855D01*
X-592325Y-850140D01*
X-671217Y-850140D01*
X-822231Y19763D02*
G01*
X-772231Y19763D01*
X-837473Y-64714D02*
G01*
X-837473Y4526D01*
X-772231Y-79954D02*
G01*
X-822231Y-79954D01*
X-677953Y-79740D02*
G01*
X-727953Y-79740D01*
X-727953Y19972D02*
G01*
X-677953Y19972D01*
X-662711Y4737D02*
G01*
X-662711Y-64505D01*
X-942230Y179763D02*
G01*
X-892230Y179763D01*
X-957473Y95285D02*
G01*
X-957473Y164525D01*
X-892230Y80045D02*
G01*
X-942230Y80045D01*
X-797953Y80258D02*
G01*
X-847953Y80258D01*
X-847953Y179971D02*
G01*
X-797953Y179971D01*
X-782711Y164736D02*
G01*
X-782711Y95493D01*
X432526Y179870D02*
G01*
X504329Y179870D01*
X504329Y80149D01*
X432526Y80149D01*
X387283Y179870D02*
G01*
X315480Y179870D01*
X315480Y80149D01*
X387283Y80149D01*
X162526Y179870D02*
G01*
X234330Y179870D01*
X234330Y80149D01*
X162526Y80149D01*
X117284Y179870D02*
G01*
X45481Y179870D01*
X45481Y80149D01*
X117284Y80149D01*
X582526Y19870D02*
G01*
X654329Y19870D01*
X654329Y-79849D01*
X582526Y-79849D01*
X537283Y19870D02*
G01*
X465480Y19870D01*
X465480Y-79849D01*
X537283Y-79849D01*
X637283Y80149D02*
G01*
X565480Y80149D01*
X565480Y179870D01*
X637283Y179870D01*
X682525Y80149D02*
G01*
X754329Y80149D01*
X754329Y179870D01*
X682525Y179870D01*
D10*
X221904Y-39989D02*
G01*
X221904Y21010D01*
X163906Y21010D01*
D14*
X149905Y10D02*
G01*
X199905Y10D01*
X199905Y-49989D01*
X-200093Y-49989D02*
G01*
X-200093Y10D01*
X-150093Y10D01*
X-150093Y-399989D02*
G01*
X-200093Y-399989D01*
X-200093Y-349989D01*
X199905Y-349989D02*
G01*
X199905Y-399989D01*
X149905Y-399989D01*
D13*
X599955Y-1179990D02*
G01*
X899957Y-1179990D01*
X899955Y-979990D02*
G01*
X599955Y-979990D01*
X-600143Y-979985D02*
G01*
X-900145Y-979985D01*
X-900142Y-1179984D02*
G01*
X-600143Y-1179984D01*
X-605005Y-39994D02*
G01*
X-605005Y-219997D01*
X-490006Y-39994D02*
G01*
X-410004Y-39994D01*
X-295003Y-39994D02*
G01*
X-295003Y-219997D01*
X-148297Y730034D02*
G01*
X-148297Y230035D01*
X151701Y730034D02*
G01*
X151701Y230035D01*
X-148297Y730034D02*
G01*
X-70954Y730034D01*
X151701Y730034D02*
G01*
X74330Y730034D01*
X151701Y230035D02*
G01*
X-148297Y230035D01*
X-446991Y-1007554D02*
G01*
X-446991Y-821263D01*
X447006Y-1379392D02*
G01*
X-446991Y-1379392D01*
X-446991Y-1231262D01*
X447006Y-1007590D02*
G01*
X447006Y-821227D01*
X447006Y-1379392D02*
G01*
X447006Y-1231226D01*
D11*
X-392714Y80149D02*
G01*
X-464517Y80149D01*
X-464517Y179870D01*
X-392714Y179870D01*
X-347471Y80149D02*
G01*
X-275668Y80149D01*
X-275668Y179870D01*
X-347471Y179870D01*
X582526Y-130129D02*
G01*
X654329Y-130129D01*
X654329Y-229849D01*
X582526Y-229849D01*
X537283Y-130129D02*
G01*
X465480Y-130129D01*
X465480Y-229849D01*
X537283Y-229849D01*
X-692231Y179763D02*
G01*
X-642231Y179763D01*
X-707473Y95285D02*
G01*
X-707473Y164525D01*
X-642231Y80045D02*
G01*
X-692231Y80045D01*
X-547954Y80258D02*
G01*
X-597954Y80258D01*
X-597954Y179971D02*
G01*
X-547954Y179971D01*
X-532711Y164736D02*
G01*
X-532711Y95493D01*
X-822231Y-130235D02*
G01*
X-772231Y-130235D01*
X-837473Y-214713D02*
G01*
X-837473Y-145473D01*
X-772231Y-229953D02*
G01*
X-822231Y-229953D01*
X-677953Y-229740D02*
G01*
X-727953Y-229740D01*
X-727953Y-130027D02*
G01*
X-677953Y-130027D01*
X-662711Y-145262D02*
G01*
X-662711Y-214505D01*
X-192232Y179763D02*
G01*
X-142232Y179763D01*
X-207474Y95285D02*
G01*
X-207474Y164525D01*
X-142232Y80045D02*
G01*
X-192232Y80045D01*
X-47955Y80258D02*
G01*
X-97955Y80258D01*
X-97955Y179971D02*
G01*
X-47955Y179971D01*
X-32712Y164736D02*
G01*
X-32712Y95493D01*
G75*
G01*
X-677954Y19975D02*
G02*
X-662714Y4735I0J-15240D01*
G75*
G01*
X-662714Y-64506D02*
G02*
X-677954Y-79746I-15240J0D01*
G75*
G01*
X-822231Y-79954D02*
G02*
X-837471Y-64714I0J15240D01*
G75*
G01*
X-837471Y4526D02*
G02*
X-822231Y19766I15240J0D01*
G75*
G01*
X-797954Y179974D02*
G02*
X-782714Y164734I0J-15240D01*
G75*
G01*
X-782714Y95494D02*
G02*
X-797954Y80254I-15240J0D01*
G75*
G01*
X-942231Y80046D02*
G02*
X-957471Y95286I0J15240D01*
G75*
G01*
X-957471Y164526D02*
G02*
X-942231Y179766I15240J0D01*
D13*
G75*
G01*
X-70955Y730034D02*
G03*
X74331Y729544I72657J3980D01*
D11*
G75*
G01*
X-547954Y179974D02*
G02*
X-532714Y164734I0J-15240D01*
G75*
G01*
X-532714Y95494D02*
G02*
X-547954Y80254I-15240J0D01*
G75*
G01*
X-692231Y80046D02*
G02*
X-707471Y95286I0J15240D01*
G75*
G01*
X-707471Y164526D02*
G02*
X-692231Y179766I15240J0D01*
G75*
G01*
X-677954Y-130025D02*
G02*
X-662714Y-145265I0J-15240D01*
G75*
G01*
X-662714Y-214506D02*
G02*
X-677954Y-229746I-15240J0D01*
G75*
G01*
X-822231Y-229954D02*
G02*
X-837471Y-214714I0J15240D01*
G75*
G01*
X-837471Y-145473D02*
G02*
X-822231Y-130233I15240J0D01*
G75*
G01*
X-47955Y179974D02*
G02*
X-32715Y164734I0J-15240D01*
G75*
G01*
X-32715Y95494D02*
G02*
X-47955Y80254I-15240J0D01*
G75*
G01*
X-192232Y80046D02*
G02*
X-207472Y95286I0J15240D01*
G75*
G01*
X-207472Y164526D02*
G02*
X-192232Y179766I15240J0D01*
D13*
G75*
G01
X813460Y-1079983D02*
G03X813460Y-1079983I-63500J0D01*
G75*
G01
X-686638Y-1079983D02*
G03X-686638Y-1079983I-63500J0D01*
G75*
G01
X-602412Y-282397D02*
G03X-602412Y-282397I-12700J0D01*
D15*
G75*
G01
X-84887Y657835D02*
G03X-84887Y657835I-15011J0D01*
M02*
