G04 Layer: TopLayer*
G04 EasyEDA v6.5.57, 2026-06-27 20:36:30*
G04 db5aa68870094b5ea620e0544f82f9b8,aded602c09064ad3b3ee905135c3d30b,10*
G04 Gerber Generator version 0.2*
G04 Scale: 100 percent, Rotated: No, Reflected: No *
G04 Dimensions in millimeters *
G04 leading zeros omitted , absolute positions ,4 integer and 5 decimal *
%FSLAX45Y45*%
%MOMM*%

%AMMACRO1*21,1,$1,$2,0,0,$3*%
%ADD10C,0.2000*%
%ADD11C,0.2540*%
%ADD12MACRO1,0.54X0.5656X90.0000*%
%ADD13MACRO1,0.54X0.5656X-90.0000*%
%ADD14R,0.5000X0.5400*%
%ADD15R,0.2000X0.7000*%
%ADD16R,0.7000X0.2000*%
%ADD17R,2.7000X2.7000*%
%ADD18R,0.0159X2.7000*%
%ADD19R,0.8000X1.5240*%
%ADD20R,0.6000X1.0000*%
%ADD21O,1.950212X0.568401*%
%ADD22R,0.3000X1.3000*%
%ADD23C,4.0000*%
%ADD24R,1.0000X1.0000*%
%ADD25C,1.0000*%
%ADD26O,1.199998X1.799996*%
%ADD27O,1.199998X1.999996*%
%ADD28C,0.6200*%

%LPD*%
G36*
X-82092Y-355346D02*
G01*
X-85852Y-353669D01*
X-88646Y-350723D01*
X-89865Y-348894D01*
X-94030Y-344779D01*
X-98907Y-341680D01*
X-105105Y-339496D01*
X-108661Y-337362D01*
X-111099Y-333959D01*
X-111912Y-329946D01*
X-111912Y-311861D01*
X-129997Y-311861D01*
X-134061Y-310946D01*
X-137464Y-308559D01*
X-139598Y-305054D01*
X-140766Y-299923D01*
X-139954Y-295757D01*
X-139192Y-289407D01*
X-139192Y-278282D01*
X-138430Y-274370D01*
X-136245Y-271119D01*
X-137617Y-270052D01*
X-139598Y-266039D01*
X-140462Y-262432D01*
X-140766Y-259537D01*
X-139903Y-255727D01*
X-139141Y-249377D01*
X-139141Y-230530D01*
X-140716Y-220065D01*
X-139852Y-215696D01*
X-139090Y-209397D01*
X-139090Y-190601D01*
X-139852Y-184251D01*
X-140716Y-179933D01*
X-139903Y-175717D01*
X-139141Y-169367D01*
X-139141Y-150571D01*
X-139903Y-144272D01*
X-140716Y-140462D01*
X-140462Y-137566D01*
X-139598Y-133959D01*
X-137617Y-129895D01*
X-136194Y-128778D01*
X-138430Y-125526D01*
X-139141Y-121716D01*
X-139141Y-110591D01*
X-139903Y-104241D01*
X-140766Y-99923D01*
X-139598Y-94945D01*
X-137515Y-91338D01*
X-134061Y-89001D01*
X-129997Y-88138D01*
X-111912Y-88138D01*
X-111912Y-70104D01*
X-111099Y-66040D01*
X-108661Y-62636D01*
X-105105Y-60452D01*
X-100076Y-59334D01*
X-95910Y-60198D01*
X-89560Y-60858D01*
X-78384Y-60858D01*
X-74472Y-61722D01*
X-71272Y-63804D01*
X-70154Y-62433D01*
X-66192Y-60452D01*
X-62433Y-59537D01*
X-59588Y-59334D01*
X-55880Y-60198D01*
X-49580Y-60858D01*
X-30632Y-60858D01*
X-24333Y-60198D01*
X-19964Y-59283D01*
X-15697Y-60198D01*
X-9448Y-60858D01*
X9448Y-60858D01*
X19862Y-59334D01*
X24130Y-60198D01*
X30480Y-60858D01*
X49326Y-60858D01*
X55626Y-60198D01*
X59385Y-59334D01*
X62280Y-59537D01*
X65989Y-60452D01*
X70002Y-62433D01*
X71069Y-63804D01*
X74371Y-61722D01*
X78232Y-60858D01*
X89357Y-60858D01*
X95707Y-60198D01*
X99872Y-59334D01*
X104952Y-60452D01*
X108508Y-62636D01*
X110947Y-66040D01*
X111760Y-70104D01*
X111760Y-88138D01*
X129895Y-88138D01*
X133959Y-89001D01*
X137312Y-91338D01*
X139446Y-94945D01*
X140614Y-99923D01*
X139700Y-104241D01*
X138988Y-110591D01*
X138988Y-121716D01*
X138226Y-125526D01*
X136042Y-128778D01*
X137464Y-129895D01*
X139446Y-133959D01*
X140360Y-137617D01*
X140614Y-140512D01*
X139750Y-144272D01*
X138988Y-150622D01*
X138988Y-169418D01*
X140614Y-179984D01*
X139700Y-184251D01*
X138988Y-190601D01*
X138988Y-209397D01*
X139700Y-215696D01*
X140614Y-220014D01*
X139700Y-224180D01*
X138988Y-230530D01*
X138988Y-249377D01*
X139700Y-255727D01*
X140614Y-259537D01*
X140360Y-262432D01*
X139446Y-266039D01*
X137464Y-270052D01*
X136042Y-271119D01*
X138277Y-274370D01*
X138988Y-278282D01*
X138988Y-289407D01*
X140614Y-299923D01*
X139446Y-305054D01*
X137312Y-308559D01*
X133908Y-310946D01*
X129844Y-311861D01*
X111760Y-311861D01*
X111760Y-329946D01*
X110947Y-333959D01*
X108508Y-337362D01*
X104952Y-339496D01*
X99872Y-340715D01*
X95707Y-339750D01*
X89357Y-339090D01*
X78232Y-339090D01*
X74371Y-338277D01*
X71069Y-336143D01*
X70002Y-337515D01*
X65989Y-339496D01*
X62280Y-340360D01*
X59385Y-340664D01*
X55676Y-339750D01*
X49377Y-339090D01*
X30480Y-339090D01*
X24180Y-339750D01*
X19862Y-340715D01*
X15697Y-339750D01*
X9347Y-339090D01*
X-9499Y-339090D01*
X-15849Y-339750D01*
X-20066Y-340715D01*
X-24333Y-339750D01*
X-30632Y-339090D01*
X-49530Y-339090D01*
X-55880Y-339750D01*
X-60452Y-341376D01*
X-64262Y-341934D01*
X-68224Y-340868D01*
X-68630Y-345541D01*
X-71526Y-350723D01*
X-74269Y-353669D01*
X-78028Y-355346D01*
G37*

%LPD*%
G36*
X-518210Y-492099D02*
G01*
X-522427Y-490677D01*
X-525678Y-487578D01*
X-527304Y-483362D01*
X-527913Y-478485D01*
X-532688Y-458165D01*
X-539343Y-438404D01*
X-547827Y-419354D01*
X-557987Y-401116D01*
X-569772Y-383844D01*
X-583031Y-367792D01*
X-597763Y-353009D01*
X-613816Y-339699D01*
X-631037Y-327964D01*
X-649325Y-317754D01*
X-668426Y-309372D01*
X-688136Y-302717D01*
X-708507Y-297942D01*
X-729132Y-295046D01*
X-750011Y-294081D01*
X-770839Y-295046D01*
X-791514Y-297942D01*
X-811784Y-302717D01*
X-831596Y-309372D01*
X-849223Y-317195D01*
X-855827Y-320649D01*
X-858113Y-321564D01*
X-860602Y-321818D01*
X-898194Y-321818D01*
X-898194Y-345033D01*
X-899160Y-349351D01*
X-902157Y-353009D01*
X-916889Y-367792D01*
X-930249Y-383844D01*
X-942035Y-401116D01*
X-952246Y-419354D01*
X-954684Y-425043D01*
X-956970Y-428193D01*
X-960272Y-430326D01*
X-964133Y-431088D01*
X-967994Y-430225D01*
X-971296Y-428091D01*
X-973378Y-424738D01*
X-974191Y-420878D01*
X-974191Y-350367D01*
X-973429Y-346557D01*
X-971346Y-343306D01*
X-968197Y-341122D01*
X-964437Y-340207D01*
X-960628Y-340766D01*
X-957275Y-342696D01*
X-953871Y-345694D01*
X-945692Y-350723D01*
X-941984Y-352298D01*
X-941984Y-321818D01*
X-963980Y-321818D01*
X-967892Y-321106D01*
X-971245Y-318820D01*
X-973378Y-315518D01*
X-974191Y-311658D01*
X-974191Y-288340D01*
X-973378Y-284429D01*
X-971245Y-281127D01*
X-967892Y-278892D01*
X-963980Y-278180D01*
X-941984Y-278180D01*
X-941984Y-247650D01*
X-945692Y-249224D01*
X-953871Y-254254D01*
X-957275Y-257251D01*
X-960628Y-259181D01*
X-964437Y-259740D01*
X-968197Y-258876D01*
X-971346Y-256692D01*
X-973429Y-253390D01*
X-974191Y-249580D01*
X-974191Y79298D01*
X-973378Y83159D01*
X-971245Y86461D01*
X-967892Y88646D01*
X-963980Y89458D01*
X-960119Y88646D01*
X-956818Y86461D01*
X-953211Y82804D01*
X-948334Y79756D01*
X-942797Y77825D01*
X-936548Y77063D01*
X-930910Y77063D01*
X-930910Y110134D01*
X-963980Y110134D01*
X-967892Y110947D01*
X-971245Y113131D01*
X-973378Y116433D01*
X-974191Y120345D01*
X-974191Y139700D01*
X-973378Y143611D01*
X-971245Y146862D01*
X-967892Y149098D01*
X-963980Y149809D01*
X-930910Y149809D01*
X-930910Y182930D01*
X-936548Y182930D01*
X-942797Y182219D01*
X-948334Y180340D01*
X-953211Y177190D01*
X-956818Y173583D01*
X-960119Y171348D01*
X-963980Y170637D01*
X-967892Y171348D01*
X-971245Y173583D01*
X-973378Y176885D01*
X-974191Y180797D01*
X-974191Y237642D01*
X-973378Y241554D01*
X-971245Y244805D01*
X-967943Y246989D01*
X-964082Y247853D01*
X-961847Y247396D01*
X-961847Y278180D01*
X-963980Y278180D01*
X-967892Y278942D01*
X-971245Y281127D01*
X-973378Y284480D01*
X-974191Y288340D01*
X-974191Y311708D01*
X-973378Y315620D01*
X-971245Y318871D01*
X-967892Y321106D01*
X-963980Y321868D01*
X-961847Y321868D01*
X-961847Y352653D01*
X-964082Y352247D01*
X-967943Y353009D01*
X-971245Y355244D01*
X-973378Y358546D01*
X-974191Y362356D01*
X-974191Y380898D01*
X-973378Y384759D01*
X-971296Y388061D01*
X-967994Y390296D01*
X-964133Y391058D01*
X-960272Y390398D01*
X-956970Y388213D01*
X-954684Y385013D01*
X-952246Y379272D01*
X-946962Y369925D01*
X-945743Y365709D01*
X-942797Y362458D01*
X-942035Y361086D01*
X-930249Y343916D01*
X-920496Y332130D01*
X-918718Y329031D01*
X-918108Y325577D01*
X-918108Y321868D01*
X-915162Y321868D01*
X-911301Y321106D01*
X-907999Y318871D01*
X-902157Y313080D01*
X-886104Y299720D01*
X-881684Y296722D01*
X-878738Y293624D01*
X-877671Y290474D01*
X-873810Y290372D01*
X-868883Y287934D01*
X-850646Y277774D01*
X-831596Y269392D01*
X-811784Y262686D01*
X-791514Y257962D01*
X-770839Y255066D01*
X-750011Y254152D01*
X-729132Y255066D01*
X-708507Y257962D01*
X-688136Y262686D01*
X-668426Y269392D01*
X-649325Y277774D01*
X-631037Y287934D01*
X-613816Y299720D01*
X-597763Y313080D01*
X-583031Y327863D01*
X-569772Y343916D01*
X-557987Y361086D01*
X-547827Y379272D01*
X-539343Y398373D01*
X-532688Y418185D01*
X-527913Y438454D01*
X-525018Y459181D01*
X-524052Y479958D01*
X-525018Y500888D01*
X-527913Y521462D01*
X-532688Y541832D01*
X-539343Y561594D01*
X-547827Y580644D01*
X-557987Y598932D01*
X-569772Y616153D01*
X-583031Y632206D01*
X-597763Y646988D01*
X-613816Y660247D01*
X-631037Y672033D01*
X-649325Y682193D01*
X-668426Y690676D01*
X-688136Y697280D01*
X-708507Y702056D01*
X-729132Y704951D01*
X-750011Y705916D01*
X-770839Y704951D01*
X-791514Y702056D01*
X-811784Y697280D01*
X-831596Y690676D01*
X-850646Y682193D01*
X-868883Y672033D01*
X-886104Y660247D01*
X-902157Y646988D01*
X-916889Y632206D01*
X-930249Y616153D01*
X-942035Y598932D01*
X-952246Y580644D01*
X-954684Y575005D01*
X-956970Y571754D01*
X-960272Y569671D01*
X-964133Y568909D01*
X-967994Y569772D01*
X-971296Y571906D01*
X-973378Y575208D01*
X-974191Y579069D01*
X-974191Y678738D01*
X-973226Y691286D01*
X-970838Y701548D01*
X-967079Y711403D01*
X-961948Y720648D01*
X-955497Y729030D01*
X-947978Y736346D01*
X-939495Y742645D01*
X-930198Y747572D01*
X-920191Y751230D01*
X-909878Y753364D01*
X-898804Y754075D01*
X898702Y754075D01*
X911199Y753110D01*
X921461Y750824D01*
X931265Y747014D01*
X940511Y741832D01*
X948944Y735431D01*
X956310Y727913D01*
X962558Y719378D01*
X967536Y710031D01*
X971042Y700176D01*
X973277Y689864D01*
X973988Y678738D01*
X973988Y579526D01*
X973277Y575665D01*
X971042Y572363D01*
X967841Y570179D01*
X963980Y569315D01*
X960069Y570077D01*
X956767Y572211D01*
X954582Y575462D01*
X952246Y580644D01*
X942035Y598932D01*
X930300Y616153D01*
X916940Y632206D01*
X902208Y646988D01*
X886155Y660247D01*
X868934Y672033D01*
X850646Y682193D01*
X831596Y690676D01*
X811834Y697280D01*
X791514Y702056D01*
X770890Y704951D01*
X750011Y705916D01*
X729183Y704951D01*
X708507Y702056D01*
X688187Y697280D01*
X668426Y690676D01*
X649325Y682193D01*
X631088Y672033D01*
X613816Y660247D01*
X597814Y646988D01*
X583031Y632206D01*
X569772Y616153D01*
X557987Y598932D01*
X547827Y580644D01*
X539394Y561594D01*
X532688Y541832D01*
X527964Y521462D01*
X525068Y500888D01*
X524103Y479958D01*
X525068Y459181D01*
X527964Y438454D01*
X532688Y418185D01*
X539394Y398373D01*
X547827Y379272D01*
X557987Y361086D01*
X569772Y343916D01*
X583031Y327863D01*
X597814Y313080D01*
X613816Y299720D01*
X631088Y287934D01*
X649325Y277774D01*
X668426Y269392D01*
X688187Y262686D01*
X708507Y257962D01*
X729183Y255066D01*
X750011Y254152D01*
X770890Y255066D01*
X791514Y257962D01*
X811834Y262686D01*
X831596Y269392D01*
X850646Y277774D01*
X868934Y287934D01*
X886155Y299720D01*
X902208Y313080D01*
X916940Y327863D01*
X930300Y343916D01*
X942035Y361086D01*
X952246Y379272D01*
X954582Y384606D01*
X956767Y387756D01*
X960069Y389940D01*
X963980Y390601D01*
X967841Y389839D01*
X971042Y387604D01*
X973277Y384302D01*
X973988Y380492D01*
X973988Y236626D01*
X973226Y232714D01*
X971042Y229362D01*
X967740Y227228D01*
X963879Y226415D01*
X951280Y226415D01*
X951280Y181864D01*
X963879Y181864D01*
X967740Y181051D01*
X971042Y178917D01*
X973226Y175615D01*
X973988Y171704D01*
X973988Y129285D01*
X973226Y125425D01*
X971042Y122174D01*
X967740Y119938D01*
X963879Y119176D01*
X951280Y119176D01*
X951280Y106781D01*
X950518Y103124D01*
X948486Y99872D01*
X945438Y97688D01*
X941781Y96723D01*
X925728Y99212D01*
X914146Y99212D01*
X898042Y96723D01*
X894384Y97688D01*
X891286Y99872D01*
X889253Y103124D01*
X888593Y106781D01*
X888593Y119176D01*
X844042Y119176D01*
X844042Y101092D01*
X844753Y94792D01*
X846632Y89255D01*
X849680Y84378D01*
X856996Y77266D01*
X858621Y73406D01*
X858469Y69138D01*
X850646Y54508D01*
X846734Y43637D01*
X844550Y32258D01*
X844092Y20624D01*
X845464Y9042D01*
X848512Y-2184D01*
X853287Y-12700D01*
X859536Y-22453D01*
X867257Y-31140D01*
X868578Y-32156D01*
X871169Y-35509D01*
X872185Y-39674D01*
X871524Y-43789D01*
X869137Y-47345D01*
X863295Y-52984D01*
X856234Y-62280D01*
X850646Y-72491D01*
X846734Y-83362D01*
X844550Y-94742D01*
X844092Y-106375D01*
X845464Y-117957D01*
X848512Y-129184D01*
X849172Y-130657D01*
X850087Y-134569D01*
X849274Y-138531D01*
X847090Y-141935D01*
X777951Y-211124D01*
X774700Y-213258D01*
X770788Y-214071D01*
X667512Y-214071D01*
X663600Y-213258D01*
X660400Y-211124D01*
X658164Y-207822D01*
X657402Y-203911D01*
X657402Y-199796D01*
X623722Y-199796D01*
X623722Y-203911D01*
X622909Y-207822D01*
X620674Y-211124D01*
X617423Y-213258D01*
X613562Y-214071D01*
X592836Y-214071D01*
X588924Y-213258D01*
X585673Y-211124D01*
X583488Y-207822D01*
X582726Y-203911D01*
X582726Y-199796D01*
X580999Y-199796D01*
X577088Y-199034D01*
X573786Y-196850D01*
X571601Y-193598D01*
X570788Y-189687D01*
X570788Y-170281D01*
X571601Y-166370D01*
X573786Y-163068D01*
X577088Y-160934D01*
X580999Y-160121D01*
X582726Y-160121D01*
X582726Y-156057D01*
X583488Y-152146D01*
X585673Y-148844D01*
X588924Y-146710D01*
X592836Y-145846D01*
X611225Y-145846D01*
X614883Y-146558D01*
X618032Y-148437D01*
X620318Y-150469D01*
X622808Y-153974D01*
X623722Y-158089D01*
X623722Y-160121D01*
X630834Y-160121D01*
X634593Y-160883D01*
X643280Y-164388D01*
X652729Y-166370D01*
X662381Y-166827D01*
X671880Y-165557D01*
X681126Y-162763D01*
X689762Y-158445D01*
X697534Y-152654D01*
X704138Y-145745D01*
X709523Y-137668D01*
X713587Y-128879D01*
X715924Y-119583D01*
X716838Y-110032D01*
X715924Y-100380D01*
X713587Y-91084D01*
X709523Y-82296D01*
X704138Y-74218D01*
X697534Y-67259D01*
X689762Y-61518D01*
X681126Y-57251D01*
X671880Y-54406D01*
X666292Y-53644D01*
X662533Y-52425D01*
X659536Y-49834D01*
X623722Y-49834D01*
X623722Y-61823D01*
X622808Y-66040D01*
X620318Y-69494D01*
X617982Y-71526D01*
X614883Y-73456D01*
X611225Y-74066D01*
X592836Y-74066D01*
X588924Y-73253D01*
X585673Y-71069D01*
X583488Y-67767D01*
X582726Y-63906D01*
X582726Y-49834D01*
X580999Y-49834D01*
X577088Y-49072D01*
X573786Y-46837D01*
X571601Y-43586D01*
X570788Y-39725D01*
X570788Y-20269D01*
X571601Y-16408D01*
X573786Y-13106D01*
X577088Y-10922D01*
X580999Y-10109D01*
X582726Y-10109D01*
X582726Y1778D01*
X583387Y5486D01*
X585368Y8585D01*
X597509Y17322D01*
X604215Y24282D01*
X605129Y25654D01*
X608228Y28600D01*
X611581Y29819D01*
X610870Y33375D01*
X611784Y37287D01*
X613562Y41097D01*
X616000Y50444D01*
X617321Y65227D01*
X619607Y68986D01*
X624840Y74117D01*
X628142Y76352D01*
X632002Y77063D01*
X644347Y77063D01*
X650697Y77825D01*
X656590Y79857D01*
X659942Y80416D01*
X663295Y79857D01*
X669188Y77825D01*
X675487Y77063D01*
X682650Y77063D01*
X682650Y110134D01*
X681024Y110134D01*
X677113Y110947D01*
X673811Y113131D01*
X671626Y116433D01*
X670864Y120345D01*
X670864Y139700D01*
X671626Y143611D01*
X673811Y146862D01*
X677113Y149098D01*
X681024Y149809D01*
X682650Y149809D01*
X682650Y182930D01*
X675487Y182930D01*
X669188Y182219D01*
X663295Y180136D01*
X659942Y179527D01*
X656590Y180136D01*
X650697Y182219D01*
X644347Y182930D01*
X588873Y182930D01*
X582574Y182219D01*
X577138Y180340D01*
X572211Y177190D01*
X568147Y173126D01*
X565099Y168249D01*
X563168Y162763D01*
X562457Y156464D01*
X562457Y126593D01*
X561746Y122834D01*
X559562Y119532D01*
X556463Y117348D01*
X543306Y114401D01*
X534314Y110794D01*
X526135Y105765D01*
X524256Y104139D01*
X520954Y102209D01*
X517093Y101600D01*
X513384Y102463D01*
X510184Y104749D01*
X508152Y108000D01*
X507339Y111709D01*
X507339Y156464D01*
X506679Y162763D01*
X504799Y168249D01*
X501700Y173126D01*
X497535Y177190D01*
X493979Y179527D01*
X491439Y181762D01*
X489762Y184759D01*
X489204Y188112D01*
X489204Y396240D01*
X488391Y404215D01*
X486105Y411327D01*
X482295Y417880D01*
X478434Y422401D01*
X392023Y508609D01*
X389839Y512064D01*
X389077Y516077D01*
X390042Y520039D01*
X392328Y524916D01*
X394817Y534111D01*
X395630Y543509D01*
X394817Y553008D01*
X392328Y562102D01*
X388366Y570687D01*
X382930Y578459D01*
X376224Y585165D01*
X368452Y590600D01*
X359918Y594563D01*
X349910Y597204D01*
X346049Y599236D01*
X343357Y602742D01*
X342392Y607009D01*
X343357Y611327D01*
X346049Y614781D01*
X349910Y616813D01*
X359918Y619556D01*
X368452Y623519D01*
X376224Y628904D01*
X381508Y634288D01*
X385064Y636574D01*
X389229Y637184D01*
X393344Y636117D01*
X396595Y633425D01*
X398830Y630682D01*
X406095Y624332D01*
X414324Y619201D01*
X418084Y617677D01*
X418084Y648106D01*
X374142Y648106D01*
X371043Y648665D01*
X368300Y649935D01*
X327355Y649935D01*
X327355Y607974D01*
X326542Y604113D01*
X324358Y600862D01*
X321056Y598627D01*
X317195Y597865D01*
X227279Y597865D01*
X223418Y598627D01*
X220065Y600862D01*
X217881Y604113D01*
X217119Y607974D01*
X217119Y649935D01*
X152501Y649935D01*
X152654Y647192D01*
X151485Y643483D01*
X148996Y640537D01*
X145592Y638657D01*
X141732Y638251D01*
X137972Y639267D01*
X131724Y642467D01*
X131724Y611835D01*
X162712Y611835D01*
X162255Y613765D01*
X162966Y617778D01*
X165303Y621182D01*
X168706Y623468D01*
X172720Y624078D01*
X176733Y623163D01*
X184556Y619556D01*
X194564Y616813D01*
X198424Y614781D01*
X201066Y611327D01*
X202031Y607009D01*
X201066Y602742D01*
X198424Y599236D01*
X194564Y597204D01*
X184556Y594563D01*
X176022Y590600D01*
X168249Y585165D01*
X161493Y578459D01*
X157378Y572516D01*
X155092Y570179D01*
X152196Y568706D01*
X149098Y568198D01*
X131724Y568198D01*
X131724Y537565D01*
X135534Y539496D01*
X139903Y540562D01*
X144322Y539648D01*
X147828Y537006D01*
X149961Y533044D01*
X152146Y524916D01*
X156057Y516432D01*
X161493Y508660D01*
X168249Y501904D01*
X176022Y496519D01*
X184556Y492556D01*
X194564Y489813D01*
X198424Y487781D01*
X201066Y484327D01*
X202031Y480009D01*
X201066Y475742D01*
X198424Y472236D01*
X194564Y470204D01*
X184556Y467563D01*
X176022Y463600D01*
X168249Y458165D01*
X161493Y451459D01*
X156057Y443687D01*
X152146Y435101D01*
X149707Y426008D01*
X149098Y419354D01*
X147980Y415543D01*
X145542Y412496D01*
X142087Y410565D01*
X138176Y410057D01*
X134416Y411124D01*
X131724Y412496D01*
X131724Y381863D01*
X157073Y381863D01*
X160934Y381101D01*
X164287Y378866D01*
X168249Y374904D01*
X176022Y369519D01*
X184556Y365556D01*
X194564Y362813D01*
X198424Y360781D01*
X201066Y357327D01*
X202031Y353009D01*
X201066Y348742D01*
X198424Y345236D01*
X194564Y343204D01*
X184556Y340563D01*
X179984Y338480D01*
X176072Y337515D01*
X172110Y338175D01*
X131724Y338175D01*
X131724Y307543D01*
X135026Y309219D01*
X139141Y310286D01*
X143357Y309524D01*
X146862Y307136D01*
X149148Y303530D01*
X149707Y299212D01*
X148793Y289509D01*
X149707Y280111D01*
X152095Y270967D01*
X156819Y261162D01*
X157784Y257200D01*
X157378Y254711D01*
X160782Y254203D01*
X164338Y251815D01*
X168249Y247904D01*
X176022Y242519D01*
X184556Y238556D01*
X193700Y236118D01*
X203606Y235204D01*
X213207Y235204D01*
X217119Y234442D01*
X220370Y232257D01*
X222554Y228904D01*
X223367Y225044D01*
X222554Y221132D01*
X220370Y217881D01*
X188366Y185877D01*
X185115Y183692D01*
X181254Y182930D01*
X164592Y182930D01*
X160934Y183540D01*
X157784Y185470D01*
X155549Y188417D01*
X154482Y191973D01*
X154686Y195630D01*
X155956Y200406D01*
X156819Y209956D01*
X155956Y219608D01*
X153568Y228904D01*
X149555Y237693D01*
X148742Y239014D01*
X147116Y242976D01*
X147269Y246735D01*
X143662Y247446D01*
X140309Y249783D01*
X137515Y252729D01*
X129692Y258470D01*
X121107Y262788D01*
X111912Y265582D01*
X102311Y266852D01*
X92710Y266446D01*
X83261Y264414D01*
X74320Y260756D01*
X66141Y255727D01*
X57962Y248462D01*
X54864Y246532D01*
X51206Y245922D01*
X46024Y245922D01*
X42113Y246735D01*
X38811Y248869D01*
X36626Y252221D01*
X35864Y256082D01*
X35864Y340309D01*
X36626Y344474D01*
X35864Y348335D01*
X35864Y371754D01*
X36677Y375818D01*
X35864Y379780D01*
X35864Y570280D01*
X36626Y574446D01*
X35864Y578358D01*
X35864Y601675D01*
X36677Y605790D01*
X35864Y609752D01*
X35864Y639572D01*
X34950Y647496D01*
X32715Y654659D01*
X28905Y661212D01*
X25044Y665683D01*
X-4775Y695553D01*
X-11023Y700633D01*
X-17678Y704037D01*
X-25095Y706018D01*
X-30988Y706475D01*
X-154889Y706475D01*
X-158800Y707186D01*
X-162102Y709422D01*
X-164846Y712165D01*
X-172618Y717600D01*
X-181102Y721563D01*
X-190246Y724001D01*
X-200152Y724865D01*
X-337413Y724865D01*
X-347319Y724001D01*
X-356463Y721563D01*
X-365048Y717600D01*
X-372770Y712165D01*
X-379476Y705459D01*
X-384251Y698601D01*
X-387096Y695858D01*
X-390702Y694385D01*
X-394614Y694436D01*
X-398272Y695909D01*
X-401015Y698754D01*
X-405739Y705713D01*
X-412445Y712724D01*
X-420166Y718413D01*
X-428142Y722477D01*
X-428142Y691896D01*
X-401370Y691896D01*
X-397357Y690981D01*
X-393954Y688543D01*
X-391769Y684987D01*
X-391261Y680770D01*
X-392176Y670509D01*
X-391007Y657250D01*
X-392074Y653694D01*
X-394360Y650798D01*
X-397459Y648868D01*
X-401116Y648106D01*
X-428142Y648106D01*
X-428142Y617575D01*
X-420166Y621588D01*
X-412445Y627329D01*
X-405739Y634288D01*
X-400608Y641858D01*
X-397865Y644550D01*
X-394258Y646074D01*
X-390347Y646074D01*
X-386689Y644652D01*
X-383895Y642010D01*
X-379476Y635660D01*
X-372770Y628904D01*
X-365048Y623519D01*
X-356463Y619556D01*
X-346506Y616813D01*
X-342646Y614781D01*
X-339902Y611327D01*
X-338937Y607009D01*
X-339902Y602742D01*
X-342646Y599236D01*
X-346506Y597204D01*
X-356463Y594563D01*
X-365048Y590600D01*
X-372770Y585165D01*
X-379476Y578459D01*
X-384911Y570687D01*
X-388874Y562102D01*
X-391312Y553008D01*
X-392176Y543509D01*
X-391312Y534111D01*
X-388874Y524916D01*
X-384911Y516432D01*
X-379476Y508660D01*
X-372770Y501904D01*
X-365048Y496519D01*
X-356463Y492556D01*
X-346506Y489813D01*
X-342646Y487781D01*
X-339902Y484327D01*
X-338937Y480009D01*
X-339902Y475742D01*
X-342646Y472236D01*
X-346506Y470204D01*
X-356463Y467563D01*
X-365048Y463600D01*
X-372770Y458165D01*
X-379476Y451459D01*
X-384911Y443687D01*
X-388874Y435101D01*
X-391312Y426008D01*
X-391515Y423824D01*
X-392785Y419811D01*
X-395630Y416559D01*
X-399491Y414832D01*
X-403809Y414832D01*
X-407670Y416559D01*
X-410159Y418388D01*
X-418134Y422401D01*
X-418134Y391871D01*
X-391972Y391871D01*
X-388721Y391363D01*
X-385826Y389839D01*
X-383641Y387553D01*
X-379476Y381660D01*
X-372770Y374904D01*
X-365048Y369519D01*
X-356463Y365556D01*
X-346506Y362813D01*
X-342646Y360781D01*
X-339902Y357327D01*
X-338937Y353009D01*
X-339902Y348742D01*
X-342646Y345236D01*
X-346506Y343204D01*
X-356463Y340563D01*
X-365048Y336600D01*
X-372770Y331165D01*
X-375310Y328625D01*
X-378815Y326339D01*
X-383032Y325678D01*
X-384911Y326186D01*
X-384302Y325323D01*
X-383692Y321259D01*
X-384657Y317296D01*
X-388010Y310083D01*
X-323900Y310083D01*
X-323900Y352044D01*
X-323138Y355904D01*
X-320903Y359257D01*
X-317652Y361442D01*
X-313791Y362204D01*
X-223875Y362204D01*
X-220014Y361442D01*
X-216662Y359257D01*
X-214426Y355904D01*
X-213715Y352044D01*
X-213715Y310083D01*
X-136093Y310083D01*
X-131927Y309016D01*
X-131927Y338175D01*
X-175869Y338175D01*
X-178968Y338683D01*
X-182676Y341020D01*
X-191160Y343204D01*
X-194970Y345236D01*
X-197662Y348742D01*
X-198628Y353009D01*
X-197662Y357327D01*
X-194970Y360781D01*
X-191160Y362813D01*
X-181102Y365556D01*
X-172618Y369519D01*
X-164846Y374904D01*
X-160883Y378866D01*
X-157530Y381101D01*
X-153670Y381863D01*
X-131927Y381863D01*
X-131927Y412343D01*
X-135585Y411581D01*
X-139293Y412292D01*
X-142494Y414274D01*
X-144830Y417271D01*
X-145796Y420827D01*
X-146253Y426008D01*
X-148742Y435101D01*
X-152654Y443687D01*
X-158089Y451459D01*
X-164846Y458165D01*
X-172618Y463600D01*
X-181102Y467563D01*
X-191160Y470204D01*
X-194970Y472236D01*
X-197662Y475742D01*
X-198628Y480009D01*
X-197662Y484327D01*
X-194970Y487781D01*
X-191160Y489813D01*
X-181102Y492556D01*
X-172618Y496519D01*
X-164846Y501904D01*
X-158089Y508660D01*
X-152654Y516432D01*
X-148742Y524916D01*
X-146913Y531520D01*
X-144983Y535330D01*
X-141681Y537972D01*
X-137515Y539038D01*
X-133350Y538327D01*
X-131927Y537667D01*
X-131927Y568198D01*
X-145643Y568198D01*
X-148793Y568706D01*
X-151688Y570179D01*
X-153924Y572516D01*
X-158089Y578459D01*
X-164846Y585165D01*
X-172618Y590600D01*
X-181102Y594563D01*
X-191160Y597204D01*
X-194970Y599236D01*
X-197662Y602742D01*
X-198628Y607009D01*
X-197662Y611327D01*
X-194970Y614781D01*
X-191160Y616813D01*
X-181102Y619556D01*
X-177495Y621182D01*
X-173634Y622147D01*
X-169722Y621588D01*
X-166319Y619556D01*
X-163982Y616356D01*
X-163118Y611835D01*
X-131927Y611835D01*
X-131927Y624484D01*
X-131165Y628396D01*
X-128930Y631698D01*
X-125628Y633831D01*
X-121818Y634644D01*
X-98399Y634644D01*
X-94538Y633831D01*
X-91186Y631698D01*
X-89052Y628396D01*
X-88188Y624484D01*
X-88188Y611835D01*
X-57810Y611835D01*
X-62788Y622858D01*
X-62484Y627227D01*
X-60452Y631088D01*
X-56946Y633730D01*
X-52679Y634644D01*
X-49631Y634644D01*
X-45720Y633831D01*
X-42418Y631698D01*
X-38912Y628192D01*
X-36728Y624890D01*
X-35966Y620979D01*
X-35966Y609650D01*
X-36728Y605536D01*
X-35966Y601675D01*
X-35966Y578358D01*
X-36830Y574294D01*
X-35966Y570331D01*
X-35966Y379679D01*
X-36728Y375615D01*
X-35966Y371754D01*
X-35966Y348335D01*
X-36830Y344373D01*
X-35966Y340360D01*
X-35966Y227126D01*
X-36728Y223215D01*
X-38912Y219913D01*
X-72999Y185877D01*
X-76250Y183692D01*
X-80111Y182930D01*
X-102514Y182930D01*
X-108813Y182219D01*
X-118160Y178663D01*
X-121970Y178663D01*
X-125831Y180340D01*
X-131318Y182219D01*
X-137617Y182930D01*
X-143205Y182930D01*
X-143205Y149809D01*
X-139141Y149809D01*
X-135229Y149098D01*
X-131978Y146862D01*
X-129743Y143611D01*
X-128981Y139700D01*
X-128981Y121259D01*
X-129743Y117348D01*
X-131978Y114046D01*
X-135229Y111861D01*
X-139141Y111099D01*
X-224383Y111099D01*
X-232308Y110185D01*
X-239420Y107950D01*
X-246024Y104139D01*
X-250494Y100279D01*
X-255270Y95504D01*
X-258724Y93268D01*
X-262788Y92557D01*
X-266750Y93472D01*
X-270052Y95961D01*
X-272135Y99466D01*
X-272592Y103581D01*
X-272592Y156464D01*
X-273405Y163474D01*
X-273202Y167081D01*
X-271780Y170332D01*
X-270408Y172262D01*
X-266446Y181051D01*
X-264007Y190347D01*
X-263194Y199999D01*
X-264007Y209651D01*
X-266446Y218948D01*
X-270408Y227736D01*
X-275793Y235712D01*
X-282549Y242671D01*
X-290322Y248412D01*
X-298856Y252780D01*
X-308102Y255625D01*
X-315010Y256489D01*
X-318516Y257606D01*
X-321360Y259892D01*
X-323240Y262991D01*
X-323900Y266547D01*
X-323900Y268935D01*
X-388010Y268935D01*
X-384911Y262432D01*
X-379476Y254660D01*
X-372770Y247904D01*
X-369824Y245922D01*
X-367233Y243230D01*
X-365709Y239826D01*
X-365607Y236118D01*
X-366776Y232613D01*
X-371957Y223469D01*
X-375107Y214325D01*
X-376783Y204825D01*
X-376682Y194767D01*
X-376885Y190398D01*
X-378917Y186486D01*
X-382422Y183896D01*
X-386689Y182930D01*
X-441045Y182930D01*
X-447395Y182219D01*
X-452831Y180340D01*
X-457758Y177190D01*
X-461822Y173126D01*
X-463397Y170688D01*
X-465683Y168148D01*
X-468680Y166471D01*
X-472033Y165862D01*
X-522732Y165862D01*
X-526084Y166471D01*
X-529031Y168148D01*
X-531317Y170688D01*
X-532841Y173126D01*
X-537006Y177190D01*
X-541883Y180340D01*
X-547319Y182219D01*
X-553669Y182930D01*
X-568096Y182930D01*
X-571957Y183743D01*
X-575259Y185877D01*
X-604164Y214934D01*
X-610362Y220014D01*
X-617016Y223418D01*
X-624433Y225399D01*
X-630377Y225907D01*
X-779576Y225907D01*
X-787603Y224993D01*
X-794664Y222758D01*
X-801319Y218948D01*
X-805738Y215087D01*
X-834999Y185877D01*
X-838250Y183692D01*
X-842111Y182930D01*
X-852525Y182930D01*
X-858875Y182219D01*
X-868222Y178663D01*
X-871931Y178663D01*
X-875842Y180340D01*
X-881380Y182219D01*
X-887628Y182930D01*
X-893216Y182930D01*
X-893216Y149809D01*
X-889203Y149809D01*
X-885291Y149098D01*
X-881938Y146862D01*
X-879754Y143611D01*
X-878992Y139700D01*
X-878992Y120345D01*
X-879754Y116433D01*
X-881938Y113131D01*
X-885291Y110947D01*
X-889203Y110134D01*
X-893216Y110134D01*
X-893216Y77063D01*
X-887628Y77063D01*
X-881380Y77825D01*
X-871931Y81330D01*
X-868222Y81330D01*
X-858875Y77825D01*
X-852525Y77063D01*
X-803706Y77063D01*
X-797356Y77825D01*
X-792581Y78841D01*
X-789127Y78130D01*
X-786130Y76301D01*
X-783793Y74320D01*
X-775563Y69189D01*
X-771804Y67665D01*
X-771804Y99415D01*
X-774649Y101650D01*
X-776528Y104749D01*
X-777138Y108305D01*
X-777138Y131673D01*
X-776528Y135280D01*
X-774649Y138379D01*
X-771804Y140665D01*
X-771804Y143256D01*
X-771042Y147167D01*
X-768197Y151130D01*
X-764895Y153263D01*
X-760984Y154076D01*
X-738327Y154076D01*
X-734415Y153263D01*
X-731113Y151130D01*
X-728980Y147777D01*
X-727049Y149098D01*
X-723188Y149809D01*
X-678992Y149809D01*
X-676757Y152146D01*
X-673912Y153568D01*
X-670814Y154076D01*
X-653389Y154076D01*
X-650240Y153568D01*
X-647446Y152146D01*
X-645007Y149809D01*
X-641096Y149098D01*
X-637743Y146862D01*
X-631952Y141020D01*
X-629818Y137769D01*
X-628954Y133908D01*
X-628954Y120345D01*
X-629818Y116433D01*
X-631952Y113131D01*
X-635254Y110947D01*
X-639165Y110134D01*
X-643229Y110134D01*
X-643229Y77063D01*
X-637692Y77063D01*
X-631342Y77825D01*
X-627481Y79197D01*
X-623671Y79756D01*
X-619912Y78841D01*
X-616762Y76555D01*
X-614730Y73355D01*
X-613968Y69596D01*
X-613968Y33680D01*
X-613105Y25654D01*
X-610819Y18542D01*
X-607009Y11988D01*
X-603300Y7620D01*
X-601522Y4572D01*
X-600862Y1066D01*
X-600862Y-49428D01*
X-600151Y-55778D01*
X-598220Y-61214D01*
X-595172Y-66141D01*
X-591058Y-70154D01*
X-586181Y-73253D01*
X-580694Y-75133D01*
X-574395Y-75946D01*
X-559054Y-75946D01*
X-555193Y-76657D01*
X-551891Y-78892D01*
X-515721Y-115011D01*
X-510387Y-119380D01*
X-507695Y-122783D01*
X-506628Y-126898D01*
X-507390Y-131165D01*
X-509879Y-134721D01*
X-521106Y-140970D01*
X-525576Y-144830D01*
X-560019Y-179222D01*
X-560933Y-180340D01*
X-564438Y-183083D01*
X-568807Y-184048D01*
X-574395Y-184048D01*
X-580745Y-184810D01*
X-586181Y-186740D01*
X-591108Y-189788D01*
X-595172Y-193852D01*
X-598271Y-198729D01*
X-600151Y-204266D01*
X-600862Y-211836D01*
X-601675Y-215747D01*
X-603910Y-219049D01*
X-607161Y-221234D01*
X-611022Y-221996D01*
X-614934Y-221234D01*
X-618236Y-219049D01*
X-654253Y-183083D01*
X-656386Y-179781D01*
X-657199Y-175869D01*
X-657199Y-153568D01*
X-657860Y-147269D01*
X-659790Y-141782D01*
X-662889Y-136906D01*
X-669950Y-130200D01*
X-671576Y-127254D01*
X-672134Y-123901D01*
X-672134Y-86106D01*
X-671576Y-82753D01*
X-669950Y-79756D01*
X-667004Y-77165D01*
X-662889Y-73101D01*
X-659790Y-68173D01*
X-657860Y-62788D01*
X-657199Y-56438D01*
X-657199Y-3606D01*
X-657860Y2743D01*
X-659790Y8178D01*
X-662889Y13106D01*
X-667004Y17221D01*
X-671880Y20269D01*
X-677316Y22250D01*
X-683666Y22961D01*
X-732485Y22961D01*
X-738835Y22250D01*
X-748182Y18694D01*
X-751992Y18694D01*
X-761288Y22250D01*
X-767638Y22961D01*
X-773226Y22961D01*
X-773226Y-10109D01*
X-769162Y-10109D01*
X-765251Y-10922D01*
X-761949Y-13106D01*
X-759815Y-16408D01*
X-759002Y-20269D01*
X-759002Y-39725D01*
X-759815Y-43586D01*
X-761949Y-46837D01*
X-765251Y-49072D01*
X-769162Y-49834D01*
X-773226Y-49834D01*
X-773226Y-82854D01*
X-767638Y-82854D01*
X-761288Y-82194D01*
X-757478Y-80822D01*
X-753668Y-80314D01*
X-749960Y-81229D01*
X-746760Y-83362D01*
X-744677Y-86664D01*
X-743966Y-90474D01*
X-743966Y-119532D01*
X-744677Y-123342D01*
X-746760Y-126593D01*
X-749960Y-128778D01*
X-753668Y-129692D01*
X-757478Y-129184D01*
X-761288Y-127762D01*
X-767638Y-127101D01*
X-773226Y-127101D01*
X-773226Y-160121D01*
X-769162Y-160121D01*
X-765251Y-160934D01*
X-761949Y-163068D01*
X-759815Y-166370D01*
X-759002Y-170281D01*
X-759002Y-189687D01*
X-759815Y-193598D01*
X-761949Y-196850D01*
X-765251Y-199034D01*
X-769162Y-199796D01*
X-773226Y-199796D01*
X-773226Y-232867D01*
X-767638Y-232867D01*
X-761288Y-232206D01*
X-751992Y-228701D01*
X-748182Y-228701D01*
X-738835Y-232206D01*
X-732485Y-232867D01*
X-710133Y-232867D01*
X-706272Y-233679D01*
X-702970Y-235864D01*
X-653846Y-285038D01*
X-647598Y-290017D01*
X-640892Y-293420D01*
X-633526Y-295402D01*
X-627684Y-295859D01*
X-611022Y-295859D01*
X-607161Y-296722D01*
X-603910Y-298856D01*
X-601675Y-302158D01*
X-600862Y-306019D01*
X-600862Y-309422D01*
X-600151Y-315772D01*
X-598271Y-321157D01*
X-595172Y-326085D01*
X-591108Y-330149D01*
X-586181Y-333298D01*
X-580745Y-335229D01*
X-574395Y-335889D01*
X-517651Y-335889D01*
X-513588Y-336804D01*
X-510184Y-339242D01*
X-508050Y-342798D01*
X-507542Y-347014D01*
X-508812Y-350977D01*
X-511911Y-356514D01*
X-512470Y-358140D01*
X-481939Y-358140D01*
X-481939Y-314096D01*
X-481380Y-310794D01*
X-479653Y-307746D01*
X-477062Y-305511D01*
X-473964Y-304190D01*
X-471322Y-303631D01*
X-471322Y-291388D01*
X-478942Y-291388D01*
X-482854Y-290525D01*
X-486105Y-288391D01*
X-488289Y-285038D01*
X-489102Y-281178D01*
X-489102Y-238760D01*
X-488289Y-234899D01*
X-486105Y-231648D01*
X-482854Y-229412D01*
X-478942Y-228600D01*
X-471322Y-228600D01*
X-471322Y-216052D01*
X-470611Y-212140D01*
X-468325Y-208838D01*
X-465074Y-206603D01*
X-461162Y-205892D01*
X-438861Y-205892D01*
X-434949Y-206603D01*
X-431596Y-208838D01*
X-429412Y-212140D01*
X-428650Y-216052D01*
X-428650Y-228600D01*
X-421030Y-228600D01*
X-417169Y-229412D01*
X-413918Y-231648D01*
X-411683Y-234899D01*
X-410870Y-238760D01*
X-410870Y-281178D01*
X-411683Y-285038D01*
X-413918Y-288391D01*
X-417169Y-290525D01*
X-421030Y-291388D01*
X-428650Y-291388D01*
X-428650Y-346049D01*
X-429361Y-349859D01*
X-431393Y-353009D01*
X-434492Y-355295D01*
X-438200Y-356209D01*
X-438200Y-358140D01*
X-407771Y-358140D01*
X-410464Y-352298D01*
X-413105Y-348284D01*
X-414680Y-344525D01*
X-414578Y-340309D01*
X-412902Y-336550D01*
X-409803Y-333857D01*
X-407619Y-332536D01*
X-404215Y-331317D01*
X-400507Y-331368D01*
X-396189Y-333298D01*
X-390753Y-335229D01*
X-384403Y-335889D01*
X-369976Y-335889D01*
X-366014Y-336753D01*
X-362661Y-339090D01*
X-360426Y-342493D01*
X-359816Y-346557D01*
X-360781Y-350469D01*
X-363220Y-353669D01*
X-371144Y-360680D01*
X-377190Y-368147D01*
X-381914Y-376529D01*
X-385165Y-385622D01*
X-386435Y-393395D01*
X-388213Y-397357D01*
X-386740Y-401980D01*
X-386588Y-406400D01*
X-387146Y-410514D01*
X-389331Y-413969D01*
X-392684Y-416306D01*
X-396697Y-417068D01*
X-398932Y-417068D01*
X-402844Y-416306D01*
X-406196Y-413969D01*
X-408381Y-410616D01*
X-409092Y-406654D01*
X-407771Y-401828D01*
X-438200Y-401828D01*
X-438200Y-407670D01*
X-438912Y-411276D01*
X-440842Y-414477D01*
X-443788Y-416661D01*
X-452831Y-419709D01*
X-457758Y-422757D01*
X-461822Y-426872D01*
X-463143Y-429006D01*
X-466242Y-432054D01*
X-470255Y-433578D01*
X-474573Y-433374D01*
X-478434Y-431241D01*
X-480974Y-427786D01*
X-481939Y-423621D01*
X-481939Y-401828D01*
X-512470Y-401828D01*
X-511911Y-403402D01*
X-507238Y-411784D01*
X-501142Y-419354D01*
X-493877Y-425704D01*
X-485749Y-430733D01*
X-475640Y-434695D01*
X-472287Y-436930D01*
X-470103Y-440232D01*
X-469239Y-444144D01*
X-470052Y-448056D01*
X-472185Y-451358D01*
X-509981Y-489204D01*
X-513791Y-491591D01*
G37*

%LPC*%
G36*
X-898194Y-278180D02*
G01*
X-867765Y-278180D01*
X-870407Y-272288D01*
X-875842Y-264210D01*
X-882497Y-257251D01*
X-890269Y-251510D01*
X-898194Y-247497D01*
G37*
G36*
X-816508Y-232867D02*
G01*
X-810920Y-232867D01*
X-810920Y-199796D01*
X-842975Y-199796D01*
X-842975Y-206400D01*
X-842314Y-212699D01*
X-840384Y-218186D01*
X-837285Y-223062D01*
X-833170Y-227228D01*
X-828294Y-230276D01*
X-822807Y-232206D01*
G37*
G36*
X-842975Y-160121D02*
G01*
X-810920Y-160121D01*
X-810920Y-127101D01*
X-816508Y-127101D01*
X-822807Y-127762D01*
X-828294Y-129692D01*
X-833170Y-132740D01*
X-837285Y-136906D01*
X-840384Y-141782D01*
X-842314Y-147269D01*
X-842975Y-153568D01*
G37*
G36*
X-816508Y-82854D02*
G01*
X-810920Y-82854D01*
X-810920Y-49834D01*
X-842975Y-49834D01*
X-842975Y-56438D01*
X-842314Y-62788D01*
X-840384Y-68173D01*
X-837285Y-73101D01*
X-833170Y-77165D01*
X-828294Y-80314D01*
X-822807Y-82194D01*
G37*
G36*
X-842975Y-10109D02*
G01*
X-810920Y-10109D01*
X-810920Y22961D01*
X-816508Y22961D01*
X-822807Y22250D01*
X-828294Y20269D01*
X-833170Y17221D01*
X-837285Y13106D01*
X-840384Y8178D01*
X-842314Y2743D01*
X-842975Y-3606D01*
G37*
G36*
X623722Y-10109D02*
G01*
X657402Y-10109D01*
X657402Y-3606D01*
X656691Y2743D01*
X654761Y8178D01*
X651713Y13106D01*
X647547Y17221D01*
X642721Y20269D01*
X637184Y22250D01*
X630885Y22961D01*
X623011Y22961D01*
X623722Y20015D01*
G37*
G36*
X-728116Y67564D02*
G01*
X-720191Y71577D01*
X-712419Y77317D01*
X-708609Y80416D01*
X-705307Y81432D01*
X-701852Y81280D01*
X-698296Y79756D01*
X-692861Y77825D01*
X-686511Y77063D01*
X-680923Y77063D01*
X-680923Y98653D01*
X-684022Y98196D01*
X-728116Y98196D01*
G37*
G36*
X723646Y77063D02*
G01*
X730910Y77063D01*
X737260Y77825D01*
X742696Y79756D01*
X747572Y82804D01*
X751687Y86918D01*
X754786Y91846D01*
X756666Y97282D01*
X757377Y103581D01*
X757377Y110134D01*
X723646Y110134D01*
G37*
G36*
X-212953Y149809D02*
G01*
X-180949Y149809D01*
X-180949Y182930D01*
X-186486Y182930D01*
X-192836Y182219D01*
X-198272Y180340D01*
X-203200Y177190D01*
X-207314Y173126D01*
X-210362Y168249D01*
X-212242Y162763D01*
X-212953Y156464D01*
G37*
G36*
X723646Y149809D02*
G01*
X757377Y149809D01*
X757377Y156464D01*
X756666Y162763D01*
X754786Y168249D01*
X751687Y173126D01*
X747572Y177190D01*
X742696Y180340D01*
X737260Y182219D01*
X730910Y182930D01*
X723646Y182930D01*
G37*
G36*
X844042Y181864D02*
G01*
X888593Y181864D01*
X888593Y226415D01*
X870508Y226415D01*
X864158Y225755D01*
X858723Y223824D01*
X853795Y220675D01*
X849680Y216611D01*
X846632Y211734D01*
X844753Y206298D01*
X844042Y199948D01*
G37*
G36*
X-213715Y235204D02*
G01*
X-200152Y235204D01*
X-190246Y236118D01*
X-181102Y238556D01*
X-172618Y242519D01*
X-164846Y247904D01*
X-158089Y254660D01*
X-152654Y262432D01*
X-149656Y268935D01*
X-213715Y268935D01*
G37*
G36*
X-918108Y247548D02*
G01*
X-910234Y251612D01*
X-902411Y257302D01*
X-895705Y264312D01*
X-890320Y272288D01*
X-887730Y278180D01*
X-918108Y278180D01*
G37*
G36*
X-88188Y307543D02*
G01*
X-80314Y311556D01*
X-72542Y317296D01*
X-65836Y324256D01*
X-60401Y332333D01*
X-57810Y338175D01*
X-88188Y338175D01*
G37*
G36*
X88087Y307746D02*
G01*
X88087Y338175D01*
X57556Y338175D01*
X58115Y336600D01*
X62788Y328218D01*
X68884Y320700D01*
X76047Y314299D01*
X84277Y309270D01*
G37*
G36*
X-418134Y317550D02*
G01*
X-410159Y321614D01*
X-402437Y327304D01*
X-401116Y328625D01*
X-397865Y330962D01*
X-393852Y331825D01*
X-391261Y331317D01*
X-392277Y333349D01*
X-392480Y337616D01*
X-387705Y348132D01*
X-418134Y348132D01*
G37*
G36*
X-461873Y317754D02*
G01*
X-461873Y348132D01*
X-492353Y348132D01*
X-491845Y346557D01*
X-487172Y338175D01*
X-481076Y330606D01*
X-473811Y324256D01*
X-465582Y319227D01*
G37*
G36*
X57556Y381863D02*
G01*
X88087Y381863D01*
X88087Y412343D01*
X84277Y410819D01*
X76047Y405739D01*
X68884Y399338D01*
X62788Y391871D01*
X58115Y383489D01*
G37*
G36*
X-88188Y381863D02*
G01*
X-57810Y381863D01*
X-60401Y387756D01*
X-65836Y395782D01*
X-72542Y402742D01*
X-80314Y408482D01*
X-88188Y412496D01*
G37*
G36*
X-492353Y391871D02*
G01*
X-461873Y391871D01*
X-461873Y422300D01*
X-465582Y420827D01*
X-473811Y415747D01*
X-481076Y409346D01*
X-487172Y401828D01*
X-491845Y393446D01*
G37*
G36*
X-88188Y537565D02*
G01*
X-80314Y541528D01*
X-72542Y547319D01*
X-65836Y554228D01*
X-60401Y562305D01*
X-57810Y568198D01*
X-88188Y568198D01*
G37*
G36*
X88087Y537667D02*
G01*
X88087Y568198D01*
X57556Y568198D01*
X58115Y566623D01*
X62788Y558139D01*
X68884Y550672D01*
X76047Y544322D01*
X84277Y539242D01*
G37*
G36*
X57556Y611835D02*
G01*
X88087Y611835D01*
X88087Y642315D01*
X84277Y640740D01*
X76047Y635711D01*
X68884Y629361D01*
X62788Y621893D01*
X58115Y613410D01*
G37*
G36*
X461772Y617575D02*
G01*
X469696Y621588D01*
X477469Y627329D01*
X484174Y634288D01*
X489559Y642315D01*
X492201Y648106D01*
X461772Y648106D01*
G37*
G36*
X-471830Y617677D02*
G01*
X-471830Y648106D01*
X-502361Y648106D01*
X-501853Y646531D01*
X-497128Y638149D01*
X-491083Y630682D01*
X-483819Y624281D01*
X-475589Y619201D01*
G37*
G36*
X370179Y690930D02*
G01*
X374142Y691896D01*
X418084Y691896D01*
X418084Y722274D01*
X414324Y720750D01*
X406095Y715772D01*
X398830Y709371D01*
X397103Y707136D01*
X393801Y704494D01*
X389737Y703427D01*
X385521Y704088D01*
X382016Y706374D01*
X376224Y712165D01*
X368452Y717600D01*
X359918Y721563D01*
X350774Y724001D01*
X340868Y724865D01*
X327355Y724865D01*
X327355Y691083D01*
G37*
G36*
X153060Y691083D02*
G01*
X217119Y691083D01*
X217119Y724865D01*
X203606Y724865D01*
X193700Y724001D01*
X184556Y721563D01*
X176022Y717600D01*
X168249Y712165D01*
X161493Y705459D01*
X156057Y697687D01*
G37*
G36*
X-502361Y691896D02*
G01*
X-471830Y691896D01*
X-471830Y722274D01*
X-475589Y720750D01*
X-483819Y715721D01*
X-491083Y709371D01*
X-497128Y701802D01*
X-501853Y693420D01*
G37*
G36*
X461772Y691896D02*
G01*
X492201Y691896D01*
X489559Y697788D01*
X484174Y705713D01*
X477469Y712724D01*
X469696Y718413D01*
X461772Y722477D01*
G37*

%LPD*%
G36*
X647852Y-1194054D02*
G01*
X643940Y-1193292D01*
X640638Y-1191107D01*
X638454Y-1187805D01*
X637692Y-1183894D01*
X638454Y-1179982D01*
X640638Y-1176731D01*
X645058Y-1172260D01*
X648157Y-1167384D01*
X650087Y-1161897D01*
X650798Y-1155598D01*
X650798Y-1004366D01*
X650087Y-998067D01*
X648157Y-992530D01*
X645058Y-987653D01*
X640994Y-983538D01*
X636117Y-980541D01*
X630631Y-978611D01*
X624332Y-977849D01*
X566064Y-977849D01*
X562203Y-977137D01*
X558901Y-974902D01*
X556666Y-971651D01*
X555904Y-967740D01*
X555904Y-908456D01*
X556615Y-904748D01*
X558749Y-901446D01*
X564286Y-895705D01*
X569671Y-887730D01*
X573633Y-878941D01*
X576224Y-868730D01*
X577951Y-865276D01*
X580847Y-862634D01*
X584454Y-861314D01*
X588365Y-861415D01*
X591921Y-862939D01*
X594614Y-865784D01*
X596442Y-871067D01*
X596595Y-873048D01*
X596595Y-926388D01*
X597306Y-932738D01*
X599186Y-938174D01*
X602335Y-943102D01*
X606399Y-947216D01*
X611327Y-950315D01*
X616712Y-952195D01*
X623062Y-952906D01*
X671880Y-952906D01*
X678230Y-952195D01*
X683666Y-950315D01*
X688086Y-948334D01*
X691896Y-948334D01*
X696315Y-950315D01*
X701700Y-952195D01*
X708050Y-952906D01*
X713689Y-952906D01*
X713689Y-919886D01*
X708558Y-919886D01*
X704646Y-919073D01*
X701395Y-916838D01*
X699211Y-913587D01*
X698449Y-909726D01*
X698449Y-890269D01*
X699211Y-886409D01*
X701395Y-883107D01*
X704646Y-880922D01*
X708558Y-880110D01*
X713689Y-880110D01*
X713689Y-847140D01*
X708050Y-847140D01*
X701700Y-847801D01*
X696315Y-849680D01*
X691896Y-851611D01*
X688086Y-851611D01*
X683666Y-849680D01*
X679907Y-848360D01*
X677468Y-847140D01*
X675386Y-845261D01*
X672592Y-841857D01*
X568807Y-738022D01*
X566623Y-734822D01*
X565861Y-730910D01*
X565861Y-679450D01*
X566623Y-675538D01*
X568807Y-672287D01*
X572109Y-670052D01*
X576021Y-669340D01*
X579882Y-670052D01*
X583184Y-672287D01*
X597814Y-686968D01*
X613816Y-700227D01*
X631088Y-712012D01*
X649325Y-722172D01*
X668426Y-730605D01*
X688187Y-737311D01*
X708507Y-742086D01*
X729183Y-744931D01*
X750011Y-745845D01*
X770890Y-744931D01*
X791514Y-742086D01*
X811834Y-737311D01*
X831596Y-730605D01*
X850646Y-722172D01*
X868934Y-712012D01*
X886155Y-700227D01*
X902208Y-686968D01*
X916940Y-672134D01*
X930300Y-656132D01*
X942035Y-638911D01*
X952246Y-620674D01*
X954582Y-615391D01*
X956767Y-612241D01*
X960069Y-610057D01*
X963980Y-609346D01*
X967841Y-610209D01*
X971042Y-612343D01*
X973277Y-615696D01*
X973988Y-619556D01*
X973988Y-968908D01*
X973328Y-972667D01*
X971296Y-975868D01*
X968197Y-978153D01*
X964488Y-979068D01*
X954379Y-977849D01*
X875537Y-977849D01*
X869238Y-978611D01*
X863752Y-980541D01*
X858875Y-983538D01*
X854760Y-987653D01*
X851662Y-992530D01*
X849731Y-998067D01*
X849071Y-1004366D01*
X849071Y-1033881D01*
X848258Y-1037793D01*
X846074Y-1041146D01*
X842822Y-1043279D01*
X838911Y-1044092D01*
X798322Y-1044092D01*
X794359Y-1043228D01*
X791006Y-1040993D01*
X787501Y-1037285D01*
X779729Y-1031544D01*
X771093Y-1027176D01*
X761847Y-1024432D01*
X752348Y-1023112D01*
X742696Y-1023569D01*
X733298Y-1025601D01*
X724306Y-1029157D01*
X716127Y-1034287D01*
X708863Y-1040637D01*
X702818Y-1048105D01*
X698093Y-1056538D01*
X694842Y-1065631D01*
X693267Y-1075131D01*
X693267Y-1084783D01*
X694842Y-1094333D01*
X698093Y-1103376D01*
X702818Y-1111859D01*
X708863Y-1119327D01*
X716127Y-1125677D01*
X724306Y-1130757D01*
X733298Y-1134364D01*
X742696Y-1136396D01*
X752348Y-1136853D01*
X761847Y-1135532D01*
X771093Y-1132738D01*
X779729Y-1128369D01*
X787501Y-1122680D01*
X791006Y-1118971D01*
X794359Y-1116736D01*
X798322Y-1115872D01*
X838911Y-1115872D01*
X842822Y-1116634D01*
X846074Y-1118819D01*
X848258Y-1122172D01*
X849071Y-1126083D01*
X849071Y-1155598D01*
X849731Y-1161897D01*
X851662Y-1167384D01*
X854760Y-1172260D01*
X859231Y-1176731D01*
X861415Y-1179982D01*
X862177Y-1183894D01*
X861415Y-1187805D01*
X859231Y-1191107D01*
X855929Y-1193292D01*
X852017Y-1194054D01*
G37*

%LPC*%
G36*
X751382Y-952906D02*
G01*
X756920Y-952906D01*
X763219Y-952195D01*
X768756Y-950315D01*
X773633Y-947216D01*
X777748Y-943102D01*
X780796Y-938225D01*
X783132Y-931265D01*
X785012Y-927862D01*
X788060Y-925474D01*
X791819Y-924407D01*
X795680Y-924814D01*
X799084Y-926541D01*
X801624Y-929538D01*
X802843Y-931824D01*
X808939Y-939292D01*
X816203Y-945743D01*
X824433Y-950772D01*
X828141Y-952246D01*
X828141Y-921867D01*
X784199Y-921867D01*
X781050Y-921359D01*
X778154Y-919886D01*
X751382Y-919886D01*
G37*
G36*
X871880Y-952398D02*
G01*
X879856Y-948385D01*
X887577Y-942644D01*
X894283Y-935685D01*
X899668Y-927760D01*
X902309Y-921867D01*
X871880Y-921867D01*
G37*
G36*
X778052Y-880313D02*
G01*
X780745Y-878738D01*
X784199Y-878128D01*
X828141Y-878128D01*
X828141Y-847699D01*
X824433Y-849172D01*
X816203Y-854252D01*
X808939Y-860602D01*
X802589Y-868476D01*
X801065Y-870712D01*
X797814Y-873709D01*
X793496Y-875080D01*
X789127Y-874521D01*
X785418Y-872134D01*
X783082Y-868324D01*
X780796Y-861821D01*
X777748Y-856894D01*
X773633Y-852779D01*
X768756Y-849680D01*
X763219Y-847801D01*
X756920Y-847140D01*
X751382Y-847140D01*
X751382Y-880110D01*
G37*
G36*
X871880Y-878128D02*
G01*
X902309Y-878128D01*
X899668Y-872236D01*
X894283Y-864260D01*
X887577Y-857250D01*
X879856Y-851560D01*
X871880Y-847496D01*
G37*

%LPD*%
G36*
X-852169Y-1194054D02*
G01*
X-856030Y-1193292D01*
X-859383Y-1191107D01*
X-861568Y-1187805D01*
X-862380Y-1183894D01*
X-861568Y-1179982D01*
X-859383Y-1176731D01*
X-854964Y-1172260D01*
X-851814Y-1167384D01*
X-849934Y-1161897D01*
X-849223Y-1155598D01*
X-849223Y-1124407D01*
X-888746Y-1124407D01*
X-888746Y-1183894D01*
X-889660Y-1187958D01*
X-891997Y-1191310D01*
X-895603Y-1193495D01*
X-899668Y-1194054D01*
X-911301Y-1193088D01*
X-921613Y-1190752D01*
X-931468Y-1186942D01*
X-936193Y-1184351D01*
X-939037Y-1182166D01*
X-940816Y-1179017D01*
X-941527Y-1175461D01*
X-941527Y-1124407D01*
X-963980Y-1124407D01*
X-967892Y-1123696D01*
X-971245Y-1121460D01*
X-973378Y-1118209D01*
X-974191Y-1114298D01*
X-974191Y-1045667D01*
X-973378Y-1041806D01*
X-971245Y-1038555D01*
X-967892Y-1036269D01*
X-963980Y-1035507D01*
X-941527Y-1035507D01*
X-941527Y-977849D01*
X-954532Y-977849D01*
X-964641Y-979068D01*
X-968349Y-978153D01*
X-971397Y-975868D01*
X-973429Y-972667D01*
X-974191Y-968908D01*
X-974191Y-807516D01*
X-973277Y-803300D01*
X-970737Y-799846D01*
X-966978Y-797814D01*
X-962710Y-797407D01*
X-958646Y-798880D01*
X-955649Y-800811D01*
X-951839Y-802284D01*
X-951839Y-771855D01*
X-963980Y-771855D01*
X-967892Y-771042D01*
X-971245Y-768807D01*
X-973378Y-765606D01*
X-974191Y-761695D01*
X-974191Y-738327D01*
X-973378Y-734415D01*
X-971245Y-731062D01*
X-967892Y-728929D01*
X-963980Y-728116D01*
X-951839Y-728116D01*
X-951839Y-697738D01*
X-955649Y-699211D01*
X-958646Y-701141D01*
X-962710Y-702564D01*
X-966978Y-702157D01*
X-970737Y-700074D01*
X-973277Y-696671D01*
X-974191Y-692404D01*
X-974191Y-619099D01*
X-973378Y-615238D01*
X-971296Y-611936D01*
X-967994Y-609752D01*
X-964133Y-608888D01*
X-960272Y-609600D01*
X-956970Y-611784D01*
X-954684Y-614984D01*
X-952246Y-620674D01*
X-942035Y-638911D01*
X-930249Y-656132D01*
X-916889Y-672134D01*
X-911148Y-677976D01*
X-908913Y-681278D01*
X-908202Y-685139D01*
X-908202Y-728116D01*
X-877671Y-728116D01*
X-878586Y-724052D01*
X-877722Y-719886D01*
X-875284Y-716432D01*
X-871677Y-714349D01*
X-867511Y-713841D01*
X-863447Y-715060D01*
X-850646Y-722172D01*
X-831596Y-730605D01*
X-811784Y-737311D01*
X-791514Y-742086D01*
X-770839Y-744931D01*
X-750011Y-745845D01*
X-729132Y-744931D01*
X-708507Y-742086D01*
X-688136Y-737311D01*
X-668426Y-730605D01*
X-649325Y-722172D01*
X-631037Y-712012D01*
X-613816Y-700227D01*
X-597763Y-686968D01*
X-583031Y-672134D01*
X-573887Y-661111D01*
X-570687Y-658622D01*
X-566674Y-657453D01*
X-562610Y-658114D01*
X-559104Y-660196D01*
X-556717Y-663600D01*
X-555904Y-667613D01*
X-555904Y-710946D01*
X-556666Y-714857D01*
X-558850Y-718159D01*
X-672490Y-831697D01*
X-677672Y-838047D01*
X-680262Y-842924D01*
X-680923Y-844803D01*
X-683361Y-848614D01*
X-687171Y-850900D01*
X-691642Y-851408D01*
X-701700Y-847801D01*
X-708050Y-847140D01*
X-713638Y-847140D01*
X-713638Y-880110D01*
X-708558Y-880110D01*
X-704646Y-880922D01*
X-701344Y-883107D01*
X-699211Y-886409D01*
X-698398Y-890269D01*
X-698398Y-909726D01*
X-699211Y-913587D01*
X-701344Y-916838D01*
X-704646Y-919073D01*
X-708558Y-919886D01*
X-713638Y-919886D01*
X-713638Y-952906D01*
X-708050Y-952906D01*
X-701700Y-952195D01*
X-696315Y-950315D01*
X-691896Y-948334D01*
X-688086Y-948334D01*
X-683666Y-950315D01*
X-678230Y-952195D01*
X-671880Y-952906D01*
X-623062Y-952906D01*
X-616712Y-952195D01*
X-611327Y-950315D01*
X-606399Y-947216D01*
X-602284Y-943102D01*
X-599186Y-938174D01*
X-597255Y-932738D01*
X-596595Y-926388D01*
X-596595Y-873607D01*
X-598119Y-862787D01*
X-597255Y-859028D01*
X-595172Y-855980D01*
X-521563Y-782320D01*
X-518515Y-780288D01*
X-514807Y-779373D01*
X-511149Y-779932D01*
X-507847Y-781761D01*
X-497484Y-795629D01*
X-488797Y-804316D01*
X-478993Y-811631D01*
X-468934Y-817168D01*
X-468934Y-755802D01*
X-476707Y-755802D01*
X-480415Y-755091D01*
X-483514Y-753110D01*
X-485800Y-750214D01*
X-486816Y-746658D01*
X-486562Y-742950D01*
X-484530Y-735482D01*
X-484073Y-729589D01*
X-484073Y-653237D01*
X-483311Y-649376D01*
X-481126Y-646023D01*
X-477875Y-643890D01*
X-473964Y-643077D01*
X-468934Y-643077D01*
X-468934Y-581863D01*
X-473964Y-581863D01*
X-477875Y-581050D01*
X-481126Y-578815D01*
X-483311Y-575614D01*
X-484073Y-571703D01*
X-484073Y-569010D01*
X-483311Y-565099D01*
X-481126Y-561848D01*
X-460400Y-541070D01*
X-457098Y-538937D01*
X-453186Y-538124D01*
X-441909Y-538124D01*
X-441909Y-533095D01*
X-441147Y-529183D01*
X-438962Y-525830D01*
X-435660Y-523646D01*
X-431749Y-522884D01*
X-408381Y-522884D01*
X-404469Y-523646D01*
X-401269Y-525830D01*
X-398983Y-529183D01*
X-398272Y-533095D01*
X-398272Y-538124D01*
X-354076Y-538124D01*
X-350418Y-538784D01*
X-348945Y-539699D01*
X-348945Y-533095D01*
X-348132Y-529183D01*
X-345998Y-525830D01*
X-342646Y-523646D01*
X-338734Y-522884D01*
X-331419Y-522884D01*
X-327507Y-523646D01*
X-324205Y-525830D01*
X-321970Y-529183D01*
X-321208Y-533095D01*
X-321208Y-583692D01*
X-318922Y-583692D01*
X-318922Y-533095D01*
X-318211Y-529183D01*
X-315925Y-525830D01*
X-312623Y-523646D01*
X-308762Y-522884D01*
X-301396Y-522884D01*
X-297484Y-523646D01*
X-294233Y-525830D01*
X-291998Y-529183D01*
X-291287Y-533095D01*
X-291287Y-540004D01*
X-291592Y-542899D01*
X-293370Y-546354D01*
X-295249Y-551789D01*
X-295960Y-558139D01*
X-295960Y-677773D01*
X-296570Y-681177D01*
X-298246Y-684174D01*
X-300837Y-686460D01*
X-304088Y-687679D01*
X-306679Y-688238D01*
X-311150Y-688187D01*
X-315214Y-686206D01*
X-317906Y-682650D01*
X-318922Y-678281D01*
X-318922Y-661466D01*
X-321208Y-661466D01*
X-321208Y-688644D01*
X-321665Y-691743D01*
X-323088Y-694436D01*
X-325120Y-696722D01*
X-332994Y-702767D01*
X-340055Y-710488D01*
X-345795Y-719277D01*
X-350012Y-728878D01*
X-352552Y-738987D01*
X-353212Y-746455D01*
X-354177Y-750062D01*
X-356463Y-753059D01*
X-359664Y-755040D01*
X-363321Y-755802D01*
X-396189Y-755802D01*
X-396189Y-793140D01*
X-385927Y-792937D01*
X-377088Y-794004D01*
X-373634Y-795121D01*
X-370230Y-798271D01*
X-367639Y-795629D01*
X-359968Y-785215D01*
X-357327Y-782116D01*
X-353517Y-780288D01*
X-349453Y-780084D01*
X-345541Y-781558D01*
X-342595Y-784555D01*
X-340055Y-788314D01*
X-332994Y-796036D01*
X-324713Y-802436D01*
X-315518Y-807415D01*
X-305612Y-810818D01*
X-295300Y-812546D01*
X-284835Y-812546D01*
X-274523Y-810818D01*
X-264617Y-807415D01*
X-255422Y-802436D01*
X-247142Y-796036D01*
X-243636Y-792175D01*
X-240334Y-789838D01*
X-236372Y-788974D01*
X-232359Y-789635D01*
X-228955Y-791972D01*
X-205892Y-814984D01*
X-199644Y-820013D01*
X-192989Y-823417D01*
X-185623Y-825398D01*
X-179730Y-825855D01*
X7569Y-825855D01*
X11379Y-826617D01*
X14630Y-828649D01*
X16865Y-831799D01*
X17729Y-835558D01*
X17322Y-838098D01*
X48107Y-838098D01*
X48107Y-836015D01*
X48920Y-832103D01*
X51104Y-828802D01*
X54457Y-826668D01*
X58318Y-825855D01*
X81686Y-825855D01*
X85598Y-826668D01*
X88900Y-828802D01*
X91084Y-832103D01*
X91846Y-836015D01*
X91846Y-838098D01*
X122783Y-838098D01*
X122377Y-836269D01*
X123088Y-832307D01*
X125272Y-828903D01*
X128574Y-826719D01*
X132537Y-825855D01*
X179527Y-825855D01*
X187502Y-824992D01*
X194614Y-822756D01*
X201218Y-818896D01*
X205689Y-815035D01*
X228854Y-791972D01*
X232206Y-789686D01*
X236169Y-788974D01*
X240131Y-789838D01*
X243484Y-792226D01*
X246938Y-796036D01*
X255219Y-802436D01*
X264464Y-807415D01*
X274320Y-810818D01*
X284683Y-812546D01*
X295148Y-812546D01*
X305460Y-810818D01*
X315315Y-807415D01*
X324561Y-802436D01*
X332841Y-796036D01*
X339902Y-788314D01*
X342392Y-784555D01*
X345338Y-781558D01*
X349250Y-780034D01*
X353415Y-780288D01*
X357124Y-782015D01*
X367538Y-795629D01*
X376072Y-804214D01*
X380949Y-803300D01*
X392328Y-802792D01*
X396087Y-803198D01*
X396087Y-755802D01*
X363169Y-755802D01*
X359460Y-755040D01*
X356311Y-753059D01*
X353974Y-750062D01*
X353060Y-746455D01*
X352450Y-738987D01*
X349859Y-728878D01*
X345592Y-719277D01*
X339902Y-710488D01*
X332841Y-702767D01*
X325018Y-696722D01*
X322884Y-694436D01*
X321564Y-691743D01*
X321056Y-688644D01*
X321056Y-661365D01*
X318719Y-661365D01*
X318719Y-678281D01*
X317754Y-682650D01*
X315010Y-686206D01*
X310946Y-688187D01*
X306527Y-688238D01*
X303936Y-687679D01*
X300685Y-686460D01*
X298145Y-684174D01*
X296418Y-681177D01*
X295808Y-677773D01*
X295808Y-558139D01*
X295148Y-551789D01*
X293217Y-546354D01*
X291439Y-542848D01*
X291084Y-540004D01*
X291084Y-533095D01*
X291846Y-529183D01*
X294030Y-525830D01*
X297281Y-523646D01*
X301193Y-522884D01*
X308610Y-522884D01*
X312521Y-523646D01*
X315772Y-525830D01*
X318008Y-529183D01*
X318719Y-533095D01*
X318719Y-583692D01*
X321056Y-583692D01*
X321056Y-533095D01*
X321868Y-529183D01*
X324053Y-525830D01*
X327355Y-523646D01*
X331216Y-522884D01*
X338632Y-522884D01*
X342493Y-523646D01*
X345795Y-525830D01*
X348030Y-529183D01*
X348792Y-533095D01*
X348792Y-538124D01*
X378053Y-538124D01*
X378053Y-533095D01*
X378815Y-529183D01*
X381050Y-525830D01*
X384352Y-523646D01*
X388162Y-522884D01*
X411581Y-522884D01*
X415442Y-523646D01*
X418795Y-525830D01*
X421030Y-529183D01*
X421792Y-533095D01*
X421792Y-538124D01*
X443179Y-538124D01*
X447040Y-538937D01*
X450342Y-541070D01*
X473100Y-563930D01*
X475538Y-567690D01*
X475996Y-572617D01*
X474929Y-576478D01*
X472338Y-579577D01*
X468731Y-581456D01*
X468731Y-643077D01*
X483819Y-643077D01*
X487730Y-643890D01*
X491032Y-646023D01*
X493268Y-649376D01*
X494030Y-653237D01*
X494030Y-745642D01*
X493268Y-749503D01*
X491032Y-752805D01*
X487730Y-754989D01*
X483819Y-755802D01*
X468731Y-755802D01*
X468731Y-830021D01*
X469036Y-832916D01*
X468477Y-835710D01*
X464972Y-845667D01*
X463296Y-855167D01*
X463296Y-857707D01*
X462534Y-861517D01*
X462381Y-863295D01*
X463651Y-866546D01*
X464972Y-874318D01*
X468172Y-883412D01*
X472897Y-891794D01*
X478942Y-899363D01*
X480669Y-900887D01*
X483209Y-904290D01*
X484124Y-908456D01*
X484124Y-1000861D01*
X483260Y-1005027D01*
X480822Y-1008430D01*
X477215Y-1010513D01*
X473100Y-1011021D01*
X468731Y-1009650D01*
X468731Y-1066038D01*
X508762Y-1066038D01*
X512673Y-1066800D01*
X515975Y-1069035D01*
X518210Y-1072337D01*
X518972Y-1076248D01*
X518972Y-1155598D01*
X519176Y-1157427D01*
X518769Y-1161694D01*
X516585Y-1165352D01*
X513181Y-1167841D01*
X509066Y-1168755D01*
X468731Y-1168755D01*
X468731Y-1183894D01*
X468020Y-1187805D01*
X465734Y-1191107D01*
X462483Y-1193292D01*
X458622Y-1194054D01*
X406196Y-1194054D01*
X402285Y-1193292D01*
X399034Y-1191107D01*
X396849Y-1187805D01*
X396087Y-1183894D01*
X396087Y-1168755D01*
X349402Y-1168755D01*
X349961Y-1171600D01*
X353314Y-1180338D01*
X353872Y-1184249D01*
X353060Y-1187958D01*
X350875Y-1191158D01*
X347522Y-1193292D01*
X343712Y-1194054D01*
X-343916Y-1194054D01*
X-347726Y-1193292D01*
X-350977Y-1191158D01*
X-353212Y-1187958D01*
X-354076Y-1184249D01*
X-353415Y-1180338D01*
X-350164Y-1171600D01*
X-349554Y-1168755D01*
X-396189Y-1168755D01*
X-396189Y-1183894D01*
X-397002Y-1187805D01*
X-399237Y-1191107D01*
X-402488Y-1193292D01*
X-406349Y-1194054D01*
X-458825Y-1194054D01*
X-462635Y-1193292D01*
X-465937Y-1191107D01*
X-468172Y-1187805D01*
X-468934Y-1183894D01*
X-468934Y-1168755D01*
X-509219Y-1168755D01*
X-513384Y-1167841D01*
X-516788Y-1165352D01*
X-518972Y-1161694D01*
X-519328Y-1157427D01*
X-519125Y-1155598D01*
X-519125Y-1076248D01*
X-518312Y-1072337D01*
X-516128Y-1069035D01*
X-512826Y-1066800D01*
X-508965Y-1066038D01*
X-468934Y-1066038D01*
X-468934Y-1005636D01*
X-471678Y-1003452D01*
X-473506Y-1000302D01*
X-474065Y-996797D01*
X-474065Y-988466D01*
X-473354Y-984707D01*
X-471271Y-981506D01*
X-465734Y-975715D01*
X-460349Y-967740D01*
X-456387Y-958951D01*
X-453999Y-949655D01*
X-453085Y-940053D01*
X-453999Y-930351D01*
X-456387Y-921054D01*
X-460349Y-912266D01*
X-465734Y-904290D01*
X-472389Y-897280D01*
X-480161Y-891590D01*
X-488797Y-887272D01*
X-497992Y-884377D01*
X-507542Y-883158D01*
X-517194Y-883564D01*
X-526643Y-885596D01*
X-535584Y-889253D01*
X-543864Y-894232D01*
X-551027Y-900633D01*
X-557123Y-908202D01*
X-561797Y-916584D01*
X-564997Y-925626D01*
X-566623Y-935177D01*
X-566623Y-944829D01*
X-564997Y-954278D01*
X-561492Y-964336D01*
X-560933Y-968095D01*
X-561797Y-971854D01*
X-564032Y-975055D01*
X-567283Y-977137D01*
X-571042Y-977849D01*
X-624484Y-977849D01*
X-630834Y-978611D01*
X-636219Y-980541D01*
X-641146Y-983538D01*
X-645210Y-987653D01*
X-648360Y-992530D01*
X-650189Y-998067D01*
X-650900Y-1004366D01*
X-650900Y-1155598D01*
X-650189Y-1161897D01*
X-648360Y-1167384D01*
X-645210Y-1172260D01*
X-640791Y-1176731D01*
X-638657Y-1179982D01*
X-637794Y-1183894D01*
X-638657Y-1187805D01*
X-640791Y-1191107D01*
X-644093Y-1193292D01*
X-647954Y-1194054D01*
G37*

%LPC*%
G36*
X-728218Y-1132433D02*
G01*
X-720242Y-1128369D01*
X-712520Y-1122680D01*
X-705815Y-1115669D01*
X-700430Y-1107694D01*
X-697788Y-1101801D01*
X-728218Y-1101801D01*
G37*
G36*
X-771956Y-1132230D02*
G01*
X-771956Y-1101801D01*
X-802436Y-1101801D01*
X-801878Y-1103376D01*
X-797204Y-1111859D01*
X-791108Y-1119327D01*
X-783894Y-1125677D01*
X-775665Y-1130757D01*
G37*
G36*
X-396189Y-1066038D02*
G01*
X-349554Y-1066038D01*
X-350164Y-1063193D01*
X-354431Y-1051763D01*
X-360324Y-1040993D01*
X-367639Y-1031138D01*
X-376377Y-1022553D01*
X-386130Y-1015187D01*
X-396189Y-1009650D01*
G37*
G36*
X349402Y-1066038D02*
G01*
X396087Y-1066038D01*
X396087Y-1009650D01*
X385978Y-1015187D01*
X376174Y-1022553D01*
X367538Y-1031138D01*
X360172Y-1040993D01*
X354330Y-1051763D01*
X349961Y-1063193D01*
G37*
G36*
X-802436Y-1058164D02*
G01*
X-771956Y-1058164D01*
X-771956Y-1027684D01*
X-775665Y-1029157D01*
X-783894Y-1034287D01*
X-791108Y-1040637D01*
X-797204Y-1048105D01*
X-801878Y-1056538D01*
G37*
G36*
X-728218Y-1058164D02*
G01*
X-697788Y-1058164D01*
X-700430Y-1052271D01*
X-705815Y-1044244D01*
X-712520Y-1037285D01*
X-720242Y-1031544D01*
X-728218Y-1027531D01*
G37*
G36*
X-888746Y-1035507D02*
G01*
X-849223Y-1035507D01*
X-849223Y-1004366D01*
X-849934Y-998067D01*
X-851814Y-992530D01*
X-854964Y-987653D01*
X-859028Y-983538D01*
X-863904Y-980541D01*
X-869391Y-978611D01*
X-875690Y-977849D01*
X-888746Y-977849D01*
G37*
G36*
X-756920Y-952906D02*
G01*
X-751332Y-952906D01*
X-751332Y-919886D01*
X-783386Y-919886D01*
X-783386Y-926388D01*
X-782726Y-932738D01*
X-780796Y-938174D01*
X-777697Y-943102D01*
X-773582Y-947216D01*
X-768705Y-950315D01*
X-763219Y-952195D01*
G37*
G36*
X411784Y-932383D02*
G01*
X419760Y-928369D01*
X427482Y-922629D01*
X434187Y-915669D01*
X439572Y-907745D01*
X442214Y-901852D01*
X411784Y-901852D01*
G37*
G36*
X368046Y-932230D02*
G01*
X368046Y-901852D01*
X337566Y-901852D01*
X338124Y-903427D01*
X342747Y-911809D01*
X348843Y-919378D01*
X356108Y-925728D01*
X364337Y-930757D01*
G37*
G36*
X-368249Y-922477D02*
G01*
X-360273Y-918464D01*
X-352501Y-912672D01*
X-345846Y-905764D01*
X-340410Y-897686D01*
X-337769Y-891794D01*
X-368249Y-891794D01*
G37*
G36*
X-411988Y-922324D02*
G01*
X-411988Y-891794D01*
X-442468Y-891794D01*
X-441909Y-893368D01*
X-437184Y-901852D01*
X-431139Y-909319D01*
X-423875Y-915669D01*
X-415696Y-920750D01*
G37*
G36*
X91846Y-912418D02*
G01*
X99822Y-908405D01*
X107594Y-902665D01*
X114249Y-895705D01*
X119684Y-887730D01*
X122326Y-881837D01*
X91846Y-881837D01*
G37*
G36*
X48107Y-912266D02*
G01*
X48107Y-881837D01*
X17627Y-881837D01*
X18186Y-883361D01*
X22910Y-891794D01*
X28956Y-899363D01*
X36220Y-905713D01*
X44399Y-910742D01*
G37*
G36*
X-783386Y-880110D02*
G01*
X-751332Y-880110D01*
X-751332Y-847140D01*
X-756920Y-847140D01*
X-763219Y-847801D01*
X-768705Y-849680D01*
X-773582Y-852779D01*
X-777697Y-856894D01*
X-780796Y-861821D01*
X-782726Y-867257D01*
X-783386Y-873607D01*
G37*
G36*
X411784Y-858113D02*
G01*
X442214Y-858113D01*
X439572Y-852220D01*
X435000Y-845464D01*
X431647Y-845667D01*
X418033Y-844651D01*
X411784Y-843381D01*
G37*
G36*
X337566Y-858113D02*
G01*
X368046Y-858113D01*
X368046Y-827684D01*
X364337Y-829157D01*
X356108Y-834237D01*
X348843Y-840587D01*
X342747Y-848156D01*
X338124Y-856538D01*
G37*
G36*
X-442468Y-848156D02*
G01*
X-411988Y-848156D01*
X-411988Y-843381D01*
X-418185Y-844651D01*
X-431850Y-845667D01*
X-441045Y-845007D01*
X-441909Y-846531D01*
G37*
G36*
X-368249Y-848156D02*
G01*
X-337769Y-848156D01*
X-340410Y-842264D01*
X-345846Y-834237D01*
X-352501Y-827278D01*
X-360222Y-821537D01*
X-368249Y-817575D01*
G37*
G36*
X-908202Y-802386D02*
G01*
X-900176Y-798372D01*
X-892403Y-792632D01*
X-885799Y-785672D01*
X-880364Y-777748D01*
X-877671Y-771855D01*
X-908202Y-771855D01*
G37*
G36*
X-396189Y-593496D02*
G01*
X-395528Y-589991D01*
X-393293Y-586740D01*
X-390042Y-584504D01*
X-386130Y-583692D01*
X-348945Y-583692D01*
X-348945Y-580186D01*
X-350418Y-581101D01*
X-354076Y-581863D01*
X-396189Y-581863D01*
G37*
G36*
X348792Y-583692D02*
G01*
X378053Y-583692D01*
X378053Y-581863D01*
X348792Y-581863D01*
G37*

%LPD*%
D10*
X-413382Y-469999D02*
G01*
X-440072Y-469999D01*
X-520011Y-549937D01*
X-520011Y-730021D01*
X-647496Y-857503D01*
X-647496Y-899998D01*
X919911Y-230403D02*
G01*
X860221Y-290093D01*
X419785Y-290093D01*
X249859Y-119913D01*
X199821Y-119913D01*
X-225120Y-622579D02*
G01*
X-225120Y-745007D01*
X-180162Y-789965D01*
X180009Y-789965D01*
X224967Y-745007D01*
X224967Y-622579D01*
X413184Y-469999D02*
G01*
X430001Y-469999D01*
X529902Y-569899D01*
X529902Y-749970D01*
X647522Y-867590D01*
X647522Y-899998D01*
X-259918Y-25D02*
G01*
X-259918Y40106D01*
X-224866Y75158D01*
X-59766Y75158D01*
X-39954Y55092D01*
X-39954Y5054D01*
X0Y0D02*
G01*
X0Y79999D01*
X9999Y89999D01*
X99905Y210009D02*
G01*
X-76Y210009D01*
X-268808Y670534D02*
G01*
X-30556Y670534D01*
X-76Y640054D01*
X-76Y208000D01*
X-78054Y130022D01*
X-920089Y-299999D02*
G01*
X-900089Y-279999D01*
X-659998Y-279999D01*
X-549998Y-389999D01*
X-470110Y-389999D01*
X-460095Y-379984D01*
X-535000Y-290093D02*
G01*
X-535000Y-205003D01*
X-499948Y-169951D01*
X-400126Y-169951D01*
X-354914Y-214909D01*
X-354914Y-260121D01*
X-544984Y25D02*
G01*
X-544984Y-35011D01*
X-489999Y-89997D01*
X-319999Y-89997D01*
X-270080Y-40078D01*
X-270080Y-10086D01*
X-259994Y0D01*
X-828116Y130022D02*
G01*
X-828116Y141960D01*
X-780110Y189966D01*
X-629996Y189966D01*
X-578180Y137896D01*
X-578180Y130022D01*
X453313Y130022D02*
G01*
X453313Y396722D01*
X306247Y543534D01*
X272211Y543534D01*
X366610Y130004D02*
G01*
X309905Y130004D01*
X453199Y130004D02*
G01*
X453199Y103304D01*
X329905Y-19989D01*
X329905Y-85034D01*
X272442Y-142496D01*
X183311Y130022D02*
G01*
X273227Y219938D01*
X379907Y219938D01*
X409879Y249910D01*
X409879Y359892D01*
X353491Y416534D01*
X272211Y416534D01*
X96619Y129994D02*
G01*
X96619Y166725D01*
X99898Y170002D01*
X99898Y210007D01*
X183197Y129997D02*
G01*
X269905Y43289D01*
X269905Y-59989D01*
X-78094Y130007D02*
G01*
X-78094Y88153D01*
X-60020Y70078D01*
X159918Y50012D02*
G01*
X139910Y50012D01*
X119885Y29989D01*
X119885Y17D01*
X326567Y-469925D02*
G01*
X326567Y-356641D01*
X249859Y-279933D01*
X199821Y-279933D01*
X254914Y-622579D02*
G01*
X224917Y-622579D01*
X914958Y-1079982D02*
G01*
X749909Y-1079982D01*
X749909Y-1079982D01*
X-320093Y199999D02*
G01*
X-326796Y193296D01*
X-326796Y129997D01*
X-585038Y-1079982D02*
G01*
X-510006Y-1004953D01*
X-510006Y-940003D01*
X659914Y-109984D02*
G01*
X559915Y-109984D01*
X516610Y-153288D01*
X516610Y-179984D01*
X584862Y-1079982D02*
G01*
X519988Y-1015108D01*
X519988Y-859993D01*
X-80111Y-399999D02*
G01*
X-80111Y-299971D01*
X-90093Y-289989D01*
X919911Y-103403D02*
G01*
X919911Y-119910D01*
X789861Y-249963D01*
X479884Y-249963D01*
X389915Y-159994D01*
X269900Y-59994D02*
G01*
X249887Y-80007D01*
X199900Y-80007D01*
X-125094Y-622579D02*
G01*
X-120093Y-627580D01*
X-120093Y-729988D01*
X39878Y-399973D02*
G01*
X39878Y-509978D01*
X24815Y-525040D01*
X24815Y-622579D01*
X559917Y60020D02*
G01*
X616612Y116715D01*
X616612Y129994D01*
X449910Y10007D02*
G01*
X476636Y10007D01*
X516613Y-29969D01*
X-25222Y-622579D02*
G01*
X-25222Y-704875D01*
X-9982Y-719861D01*
X59867Y-719861D01*
X74853Y-704875D01*
X74853Y-622579D01*
X-255092Y-622579D02*
G01*
X-255092Y-359892D01*
X-354990Y-259994D01*
X-708101Y-179981D02*
G01*
X-628088Y-259994D01*
X-544982Y-259994D01*
X-708101Y-179984D02*
G01*
X-708075Y-179959D01*
X-708075Y-29994D01*
X-544982Y25D02*
G01*
X-578081Y33124D01*
X-578081Y129994D01*
D11*
X-268808Y670534D02*
G01*
X-268808Y543534D01*
D10*
X79908Y-399973D02*
G01*
X79908Y-617573D01*
X74909Y-622571D01*
X-305097Y-622574D02*
G01*
X-335094Y-622574D01*
X516613Y-179981D02*
G01*
X489912Y-179981D01*
X389915Y-79984D01*
X-578081Y129994D02*
G01*
X-413385Y129994D01*
X-413385Y129997D01*
X-120091Y-399981D02*
G01*
X-120091Y-439978D01*
X-170103Y-489991D01*
X-330098Y-399999D02*
G01*
X-326821Y-403275D01*
X-326821Y-469999D01*
X174929Y-622579D02*
G01*
X174929Y-514883D01*
X150037Y-489991D01*
X150037Y-480085D01*
X-39954Y-400075D02*
G01*
X-39954Y-459765D01*
X-70180Y-489991D01*
X-89992Y-489991D01*
X-255084Y-622574D02*
G01*
X-225087Y-622574D01*
X-75006Y-622579D02*
G01*
X-75006Y-555015D01*
X-45034Y-525043D01*
X24815Y-525043D01*
D12*
G01*
X-326810Y-469988D03*
G01*
X-413376Y-469988D03*
D13*
G01*
X326622Y-469988D03*
G01*
X413188Y-469988D03*
D14*
G01*
X647496Y-899998D03*
G01*
X732510Y-899998D03*
G01*
X-647496Y-899998D03*
G01*
X-732510Y-899998D03*
G01*
X-708101Y-29997D03*
G01*
X-792098Y-29997D03*
G01*
X-828090Y129997D03*
G01*
X-912088Y129997D03*
D13*
G01*
X366622Y130009D03*
G01*
X453188Y130009D03*
G01*
X96622Y130009D03*
G01*
X183188Y130009D03*
G01*
X516622Y-29989D03*
G01*
X603187Y-29989D03*
D12*
G01*
X703187Y130009D03*
G01*
X616621Y130009D03*
D15*
G01*
X0Y0D03*
G01*
X-40106Y0D03*
G01*
X-80111Y0D03*
G01*
X-120091Y0D03*
G01*
X39878Y0D03*
G01*
X79908Y0D03*
G01*
X119888Y0D03*
D16*
G01*
X-200101Y-80010D03*
G01*
X-200101Y-119989D03*
G01*
X-200101Y-159994D03*
G01*
X-200025Y-199999D03*
G01*
X-200101Y-239979D03*
G01*
X-200101Y-280009D03*
G01*
X-200101Y-319989D03*
D15*
G01*
X-120091Y-399999D03*
G01*
X-80111Y-399999D03*
G01*
X-40081Y-399999D03*
G01*
X-101Y-399999D03*
G01*
X39878Y-399999D03*
G01*
X79908Y-399999D03*
G01*
X119888Y-399999D03*
D16*
G01*
X199897Y-319989D03*
G01*
X199897Y-280009D03*
G01*
X199897Y-239979D03*
G01*
X199872Y-199999D03*
G01*
X199897Y-160019D03*
G01*
X199897Y-119989D03*
G01*
X199897Y-80010D03*
D17*
G01*
X-127Y-199999D03*
D19*
G01*
X584860Y-1079982D03*
G01*
X914958Y-1079982D03*
G01*
X-585038Y-1079982D03*
G01*
X-915136Y-1079982D03*
D20*
G01*
X-545007Y-260019D03*
G01*
X-449986Y-260019D03*
G01*
X-354990Y-260019D03*
G01*
X-354990Y0D03*
G01*
X-545007Y0D03*
D21*
G01*
X-268808Y670534D03*
G01*
X-268808Y543534D03*
G01*
X-268808Y416534D03*
G01*
X-268808Y289534D03*
G01*
X272211Y670534D03*
G01*
X272211Y543534D03*
G01*
X272211Y416534D03*
G01*
X272211Y289534D03*
D22*
G01*
X-175107Y-622579D03*
G01*
X-125094Y-622579D03*
G01*
X-75107Y-622579D03*
G01*
X-25095Y-622579D03*
G01*
X24892Y-622579D03*
G01*
X74904Y-622579D03*
G01*
X124866Y-622579D03*
G01*
X174904Y-622579D03*
G01*
X-335076Y-622579D03*
G01*
X-305079Y-622579D03*
G01*
X-255092Y-622579D03*
G01*
X-225094Y-622579D03*
G01*
X224917Y-622579D03*
G01*
X254914Y-622579D03*
G01*
X304901Y-622553D03*
G01*
X334898Y-622553D03*
D12*
G01*
X-326810Y130009D03*
G01*
X-413376Y130009D03*
D13*
G01*
X516622Y-179989D03*
G01*
X603187Y-179989D03*
D14*
G01*
X-578103Y129997D03*
G01*
X-662101Y129997D03*
G01*
X-708101Y-179984D03*
G01*
X-792098Y-179984D03*
G01*
X-78104Y129997D03*
G01*
X-162102Y129997D03*
D23*
G01*
X750011Y-519988D03*
G01*
X-749985Y-519988D03*
G01*
X750011Y480009D03*
G01*
X-749985Y480009D03*
D24*
G01*
X919911Y150520D03*
D25*
G01*
X919911Y23520D03*
G01*
X919911Y-103479D03*
G01*
X919911Y-230479D03*
D26*
G01*
X432409Y-1117396D03*
D27*
G01*
X432409Y-699414D03*
G01*
X-432612Y-699414D03*
D26*
G01*
X-432612Y-1117396D03*
D28*
G01*
X439902Y670001D03*
G01*
X109905Y590016D03*
G01*
X109905Y360019D03*
G01*
X-110083Y360019D03*
G01*
X-110083Y590016D03*
G01*
X-749985Y119989D03*
G01*
X-90093Y-109981D03*
G01*
X89915Y-109981D03*
G01*
X-90093Y-289991D03*
G01*
X89915Y-289991D03*
G01*
X-460095Y-379984D03*
G01*
X389915Y-879982D03*
G01*
X-390093Y-870000D03*
G01*
X-750087Y-1079982D03*
G01*
X850011Y-899998D03*
G01*
X-920089Y-299999D03*
G01*
X-420090Y-559993D03*
G01*
X399897Y-559993D03*
G01*
X-449986Y670001D03*
G01*
X-940003Y299999D03*
G01*
X70002Y-859993D03*
G01*
X-929995Y-750011D03*
G01*
X-440004Y370001D03*
G01*
X149910Y-479983D03*
G01*
X449910Y10007D03*
G01*
X559917Y60020D03*
G01*
X-120091Y-729995D03*
G01*
X389915Y-79984D03*
G01*
X159918Y50012D03*
G01*
X-170103Y-489991D03*
G01*
X-330098Y-399999D03*
G01*
X389915Y-159994D03*
G01*
X269900Y-59994D03*
G01*
X99898Y210007D03*
G01*
X519988Y-859993D03*
G01*
X659917Y-109981D03*
G01*
X-510006Y-940003D03*
G01*
X-320090Y199999D03*
G01*
X-90093Y-489991D03*
G01*
X-259994Y0D03*
G01*
X749909Y-1079982D03*
G01*
X309905Y129997D03*
G01*
X10007Y89992D03*
M02*
