G04 Layer: BottomSilkscreenLayer*
G04 EasyEDA v6.5.57, 2026-06-27 20:36:30*
G04 db5aa68870094b5ea620e0544f82f9b8,aded602c09064ad3b3ee905135c3d30b,10*
G04 Gerber Generator version 0.2*
G04 Scale: 100 percent, Rotated: No, Reflected: No *
G04 Dimensions in millimeters *
G04 leading zeros omitted , absolute positions ,4 integer and 5 decimal *
%FSLAX45Y45*%
%MOMM*%

%ADD10C,0.2000*%
%ADD11C,0.4000*%
%ADD12C,2.0000*%
%ADD13C,0.2540*%
%ADD14C,0.0115*%

%LPD*%
G36*
X298450Y-809853D02*
G01*
X293827Y-810361D01*
X290728Y-811326D01*
X287731Y-812800D01*
X285800Y-814374D01*
X282956Y-817270D01*
X281279Y-819912D01*
X280212Y-822401D01*
X279501Y-827176D01*
X279146Y-930859D01*
X263448Y-920902D01*
X260604Y-918768D01*
X228396Y-898093D01*
X227736Y-897432D01*
X206552Y-883919D01*
X206298Y-883564D01*
X204012Y-882192D01*
X203758Y-881837D01*
X176682Y-864412D01*
X176174Y-863853D01*
X172618Y-861872D01*
X168554Y-860298D01*
X166878Y-859840D01*
X161798Y-860044D01*
X159308Y-860348D01*
X158546Y-860755D01*
X157683Y-860907D01*
X155295Y-861974D01*
X153111Y-863244D01*
X150317Y-865530D01*
X147421Y-869137D01*
X145186Y-873861D01*
X144576Y-876503D01*
X144424Y-879805D01*
X144576Y-883158D01*
X145389Y-886460D01*
X147421Y-890371D01*
X149098Y-892454D01*
X151231Y-894435D01*
X167030Y-904849D01*
X176987Y-911047D01*
X177139Y-911352D01*
X188112Y-918210D01*
X188569Y-918667D01*
X257860Y-962507D01*
X257759Y-963168D01*
X255524Y-964641D01*
X253796Y-965504D01*
X229565Y-981049D01*
X221691Y-985824D01*
X221030Y-986434D01*
X209905Y-993394D01*
X209651Y-993800D01*
X204774Y-996645D01*
X204571Y-997000D01*
X166725Y-1020775D01*
X166471Y-1021130D01*
X158394Y-1026058D01*
X150672Y-1031290D01*
X148437Y-1033424D01*
X146354Y-1036015D01*
X144678Y-1038606D01*
X143357Y-1042263D01*
X142494Y-1048156D01*
X143103Y-1051966D01*
X143611Y-1053541D01*
X145745Y-1058062D01*
X149047Y-1061669D01*
X153517Y-1064158D01*
X159004Y-1065631D01*
X160883Y-1065885D01*
X165760Y-1065174D01*
X168605Y-1064260D01*
X174193Y-1061212D01*
X183692Y-1055319D01*
X183946Y-1054912D01*
X195834Y-1047597D01*
X196138Y-1047191D01*
X203301Y-1042974D01*
X203606Y-1042568D01*
X212750Y-1037082D01*
X212953Y-1036726D01*
X216458Y-1034796D01*
X216611Y-1034440D01*
X223621Y-1030224D01*
X223926Y-1029817D01*
X225399Y-1029106D01*
X259486Y-1007516D01*
X279247Y-995426D01*
X279349Y-1039266D01*
X279654Y-1052322D01*
X280466Y-1055065D01*
X281889Y-1057910D01*
X283159Y-1059738D01*
X286512Y-1062888D01*
X289458Y-1064615D01*
X294538Y-1066342D01*
X301447Y-1066292D01*
X305714Y-1065022D01*
X308864Y-1063447D01*
X312318Y-1060551D01*
X313893Y-1058672D01*
X315925Y-1054862D01*
X316788Y-1051153D01*
X316788Y-826058D01*
X316331Y-823671D01*
X316026Y-823061D01*
X315925Y-822147D01*
X314858Y-819708D01*
X313537Y-817473D01*
X312166Y-815848D01*
X307644Y-812241D01*
X304901Y-811072D01*
X301244Y-810209D01*
G37*
G36*
X-34188Y-810260D02*
G01*
X-40538Y-810361D01*
X-43332Y-810615D01*
X-48514Y-813155D01*
X-49428Y-813816D01*
X-52273Y-816762D01*
X-53746Y-818845D01*
X-55219Y-822807D01*
X-55880Y-826262D01*
X-56184Y-921105D01*
X-66192Y-916076D01*
X-71932Y-914095D01*
X-80924Y-911860D01*
X-87782Y-911047D01*
X-99618Y-911047D01*
X-108712Y-912317D01*
X-113436Y-913384D01*
X-119633Y-915416D01*
X-126796Y-918667D01*
X-132283Y-921766D01*
X-138176Y-925880D01*
X-143510Y-930198D01*
X-146761Y-933348D01*
X-150622Y-937615D01*
X-155143Y-943864D01*
X-157530Y-947674D01*
X-161442Y-954735D01*
X-164592Y-962456D01*
X-167081Y-971499D01*
X-168416Y-980744D01*
X-132435Y-980744D01*
X-131013Y-974242D01*
X-128828Y-968502D01*
X-125120Y-962152D01*
X-123342Y-959764D01*
X-120091Y-956513D01*
X-116535Y-953617D01*
X-112776Y-951230D01*
X-107442Y-948791D01*
X-106629Y-948690D01*
X-106121Y-948334D01*
X-101193Y-947318D01*
X-89357Y-946912D01*
X-82397Y-948537D01*
X-77520Y-950264D01*
X-73253Y-953008D01*
X-68884Y-956564D01*
X-64617Y-961339D01*
X-62738Y-964234D01*
X-61112Y-967282D01*
X-58166Y-975360D01*
X-57302Y-980744D01*
X-57150Y-985266D01*
X-57353Y-989837D01*
X-58521Y-997051D01*
X-58978Y-998524D01*
X-61823Y-1004976D01*
X-65176Y-1010056D01*
X-69291Y-1014628D01*
X-73914Y-1018336D01*
X-77520Y-1020318D01*
X-82905Y-1022502D01*
X-85293Y-1023162D01*
X-87731Y-1023569D01*
X-94589Y-1024077D01*
X-100888Y-1023670D01*
X-105460Y-1022858D01*
X-109829Y-1021435D01*
X-114147Y-1019302D01*
X-116332Y-1017930D01*
X-121666Y-1013307D01*
X-125730Y-1008430D01*
X-128371Y-1003960D01*
X-131013Y-997712D01*
X-131165Y-996594D01*
X-131521Y-995832D01*
X-132283Y-992124D01*
X-132435Y-980744D01*
X-168416Y-980744D01*
X-168656Y-982776D01*
X-168656Y-993241D01*
X-167030Y-1005179D01*
X-164642Y-1013764D01*
X-164236Y-1014374D01*
X-163474Y-1016711D01*
X-162102Y-1019810D01*
X-159258Y-1025296D01*
X-157073Y-1029004D01*
X-156565Y-1029462D01*
X-156413Y-1030020D01*
X-153670Y-1033576D01*
X-147878Y-1040079D01*
X-142138Y-1045362D01*
X-136194Y-1049832D01*
X-128117Y-1054404D01*
X-125628Y-1055471D01*
X-125323Y-1055827D01*
X-120853Y-1057554D01*
X-113487Y-1059789D01*
X-109118Y-1060653D01*
X-102108Y-1061567D01*
X-87325Y-1061567D01*
X-80772Y-1060653D01*
X-74168Y-1059383D01*
X-67411Y-1057249D01*
X-62941Y-1055420D01*
X-57556Y-1052728D01*
X-57200Y-1052779D01*
X-54305Y-1057706D01*
X-52120Y-1060246D01*
X-49428Y-1062329D01*
X-46126Y-1064158D01*
X-44145Y-1064920D01*
X-41198Y-1065174D01*
X-35306Y-1065225D01*
X-31851Y-1064310D01*
X-27025Y-1061669D01*
X-25196Y-1059942D01*
X-23469Y-1057910D01*
X-22199Y-1055827D01*
X-21234Y-1053642D01*
X-20675Y-1051763D01*
X-19964Y-1040892D01*
X-20066Y-824687D01*
X-22707Y-818184D01*
X-24384Y-815848D01*
X-28092Y-812698D01*
X-32004Y-810920D01*
G37*
G36*
X-200456Y-910894D02*
G01*
X-206349Y-911250D01*
X-208940Y-911758D01*
X-211226Y-912621D01*
X-215646Y-915263D01*
X-217271Y-917041D01*
X-220116Y-921258D01*
X-220929Y-922985D01*
X-221488Y-925830D01*
X-221792Y-941832D01*
X-222097Y-995070D01*
X-223062Y-999744D01*
X-224485Y-1004112D01*
X-227380Y-1009650D01*
X-230682Y-1013815D01*
X-235254Y-1017930D01*
X-239217Y-1020470D01*
X-243128Y-1022350D01*
X-247700Y-1023619D01*
X-250190Y-1024026D01*
X-257759Y-1024636D01*
X-266852Y-1023569D01*
X-270713Y-1022350D01*
X-273761Y-1020978D01*
X-276758Y-1019200D01*
X-279349Y-1017269D01*
X-281838Y-1015034D01*
X-284327Y-1012139D01*
X-287629Y-1007059D01*
X-289001Y-1004011D01*
X-289204Y-1002995D01*
X-289661Y-1002030D01*
X-290830Y-995781D01*
X-291084Y-941730D01*
X-291439Y-925830D01*
X-292049Y-923239D01*
X-293674Y-920140D01*
X-295097Y-918210D01*
X-298500Y-915009D01*
X-301548Y-913282D01*
X-306171Y-911809D01*
X-313334Y-911809D01*
X-315772Y-912520D01*
X-318465Y-913637D01*
X-320852Y-915009D01*
X-322884Y-916889D01*
X-324866Y-919276D01*
X-326339Y-921562D01*
X-327507Y-925321D01*
X-328066Y-935177D01*
X-327812Y-1175156D01*
X-327355Y-1176426D01*
X-327304Y-1177290D01*
X-326948Y-1177798D01*
X-326339Y-1179576D01*
X-324967Y-1182014D01*
X-322376Y-1184960D01*
X-319989Y-1187043D01*
X-315772Y-1188974D01*
X-312928Y-1189786D01*
X-305663Y-1189837D01*
X-300685Y-1188161D01*
X-298450Y-1186840D01*
X-296316Y-1185062D01*
X-294335Y-1182928D01*
X-292862Y-1180388D01*
X-291846Y-1177848D01*
X-291388Y-1175562D01*
X-291134Y-1148588D01*
X-290982Y-1053998D01*
X-283210Y-1057808D01*
X-278180Y-1059789D01*
X-275691Y-1060399D01*
X-275132Y-1060754D01*
X-262940Y-1062939D01*
X-250444Y-1062939D01*
X-241604Y-1061669D01*
X-233578Y-1059586D01*
X-228396Y-1057656D01*
X-220573Y-1053693D01*
X-211937Y-1047851D01*
X-205282Y-1041857D01*
X-199390Y-1035253D01*
X-196697Y-1031697D01*
X-193090Y-1025804D01*
X-189433Y-1018286D01*
X-187045Y-1011631D01*
X-186029Y-1007871D01*
X-184912Y-1002131D01*
X-183896Y-991463D01*
X-183896Y-928116D01*
X-184708Y-924153D01*
X-185775Y-921258D01*
X-187350Y-918870D01*
X-189433Y-916432D01*
X-191465Y-914603D01*
X-194005Y-913130D01*
X-196850Y-911910D01*
X-197713Y-911758D01*
X-198069Y-911504D01*
X-199644Y-911301D01*
G37*
G36*
X64566Y-911758D02*
G01*
X58166Y-911961D01*
X47650Y-913739D01*
X41402Y-915517D01*
X36169Y-917600D01*
X30784Y-920191D01*
X22910Y-924966D01*
X18948Y-927862D01*
X13309Y-932789D01*
X8432Y-938021D01*
X1371Y-947521D01*
X-1981Y-953617D01*
X-6096Y-963015D01*
X-7569Y-967841D01*
X-9448Y-977290D01*
X-10058Y-982776D01*
X-10058Y-992124D01*
X26720Y-992124D01*
X26924Y-983335D01*
X27584Y-979068D01*
X28803Y-974902D01*
X31140Y-969518D01*
X33731Y-965352D01*
X33934Y-964742D01*
X37947Y-960272D01*
X42265Y-956462D01*
X45212Y-954430D01*
X52069Y-951128D01*
X53543Y-950620D01*
X59232Y-949401D01*
X63347Y-948944D01*
X69596Y-948791D01*
X76657Y-949807D01*
X79603Y-950468D01*
X80721Y-950976D01*
X81584Y-951128D01*
X87426Y-954024D01*
X91744Y-956868D01*
X94945Y-959612D01*
X99568Y-964946D01*
X102209Y-969264D01*
X105054Y-976071D01*
X105308Y-977442D01*
X105765Y-978509D01*
X106426Y-982573D01*
X106426Y-992124D01*
X104698Y-999845D01*
X104343Y-1000353D01*
X104089Y-1001521D01*
X102006Y-1005992D01*
X99771Y-1009599D01*
X96316Y-1013917D01*
X91846Y-1017981D01*
X87630Y-1020775D01*
X83464Y-1023010D01*
X79298Y-1024585D01*
X76149Y-1025448D01*
X69697Y-1026261D01*
X65582Y-1026515D01*
X56134Y-1025296D01*
X52374Y-1024128D01*
X49022Y-1022756D01*
X44551Y-1020318D01*
X41046Y-1017879D01*
X34899Y-1011936D01*
X31242Y-1006246D01*
X29362Y-1002334D01*
X28346Y-999642D01*
X26720Y-992124D01*
X-10058Y-992124D01*
X-10058Y-994613D01*
X-8534Y-1005179D01*
X-7366Y-1010107D01*
X-5588Y-1015441D01*
X-4165Y-1018946D01*
X-1320Y-1024686D01*
X1625Y-1029766D01*
X5842Y-1035558D01*
X13208Y-1043482D01*
X19304Y-1048715D01*
X23876Y-1051915D01*
X29718Y-1055420D01*
X39573Y-1059789D01*
X45516Y-1061466D01*
X50647Y-1062583D01*
X60553Y-1063853D01*
X70764Y-1063853D01*
X80416Y-1062685D01*
X89255Y-1060551D01*
X96672Y-1057910D01*
X106324Y-1053084D01*
X110947Y-1050137D01*
X119532Y-1043127D01*
X125425Y-1036777D01*
X130860Y-1029716D01*
X136144Y-1020673D01*
X139446Y-1012494D01*
X141986Y-1002995D01*
X143256Y-994156D01*
X143205Y-980948D01*
X141884Y-971702D01*
X141173Y-968146D01*
X139598Y-962812D01*
X139344Y-962507D01*
X139141Y-961491D01*
X136194Y-954532D01*
X133197Y-948842D01*
X129895Y-943864D01*
X126085Y-938834D01*
X121767Y-934161D01*
X116179Y-928878D01*
X111048Y-925017D01*
X106629Y-922274D01*
X106426Y-921918D01*
X100431Y-918667D01*
X93980Y-916127D01*
X87985Y-914196D01*
X79705Y-912418D01*
X73507Y-911860D01*
G37*
G36*
X318262Y-1078230D02*
G01*
X-274980Y-1078484D01*
X-276199Y-1079347D01*
X-276961Y-1080770D01*
X-277368Y-1081125D01*
X-277368Y-1178915D01*
X-269189Y-1178915D01*
X-269036Y-1088948D01*
X-268681Y-1087475D01*
X-267462Y-1086662D01*
X312267Y-1086815D01*
X313334Y-1088034D01*
X313334Y-1179728D01*
X312877Y-1180795D01*
X312166Y-1181455D01*
X310997Y-1182014D01*
X-266649Y-1182014D01*
X-268020Y-1181506D01*
X-268681Y-1180693D01*
X-269189Y-1178915D01*
X-277368Y-1178915D01*
X-277368Y-1185621D01*
X-276606Y-1187246D01*
X-275793Y-1188161D01*
X-274675Y-1188821D01*
X319227Y-1188821D01*
X320395Y-1188110D01*
X321310Y-1187145D01*
X321614Y-1186332D01*
X321919Y-1186078D01*
X321919Y-1081582D01*
X320649Y-1079296D01*
X319989Y-1078636D01*
G37*
G36*
X-155244Y-1089761D02*
G01*
X-255625Y-1089863D01*
X-265074Y-1090015D01*
X-265029Y-1129030D01*
X-239928Y-1129030D01*
X-239115Y-1123137D01*
X-238607Y-1121664D01*
X-236677Y-1117904D01*
X-235153Y-1115720D01*
X-233476Y-1113790D01*
X-231800Y-1112266D01*
X-228041Y-1109929D01*
X-223824Y-1108100D01*
X-217322Y-1107084D01*
X-212648Y-1106982D01*
X-207365Y-1108049D01*
X-203301Y-1109675D01*
X-200253Y-1111554D01*
X-197561Y-1113739D01*
X-195021Y-1116736D01*
X-193141Y-1120089D01*
X-192430Y-1121867D01*
X-191465Y-1126083D01*
X-191617Y-1131671D01*
X-191922Y-1134160D01*
X-192735Y-1136904D01*
X-194360Y-1140561D01*
X-196494Y-1143508D01*
X-201015Y-1147673D01*
X-203860Y-1149299D01*
X-207721Y-1150823D01*
X-211277Y-1151636D01*
X-215138Y-1151788D01*
X-218998Y-1151636D01*
X-222808Y-1150721D01*
X-227126Y-1148638D01*
X-230530Y-1145794D01*
X-231495Y-1144473D01*
X-231495Y-1144168D01*
X-232206Y-1144168D01*
X-231952Y-1150213D01*
X-231597Y-1152855D01*
X-230428Y-1155649D01*
X-229463Y-1157224D01*
X-227025Y-1159611D01*
X-224891Y-1160881D01*
X-222605Y-1161846D01*
X-219913Y-1162558D01*
X-214325Y-1162558D01*
X-211175Y-1161999D01*
X-207619Y-1160526D01*
X-204012Y-1157884D01*
X-200812Y-1153718D01*
X-198374Y-1152906D01*
X-197091Y-1153160D01*
X-183794Y-1153160D01*
X-183591Y-1126744D01*
X-182626Y-1122426D01*
X-180289Y-1117193D01*
X-177596Y-1113942D01*
X-174802Y-1111605D01*
X-171805Y-1109675D01*
X-167233Y-1108049D01*
X-164744Y-1107592D01*
X-158445Y-1107338D01*
X-152755Y-1108710D01*
X-151536Y-1109218D01*
X-149504Y-1110488D01*
X-146659Y-1112875D01*
X-145186Y-1114602D01*
X-144932Y-1114602D01*
X-145135Y-1111250D01*
X-144627Y-1109624D01*
X-143967Y-1108659D01*
X-142798Y-1108100D01*
X-138176Y-1108100D01*
X-137617Y-1108405D01*
X-124256Y-1108405D01*
X-124053Y-1105052D01*
X-122682Y-1102868D01*
X-120345Y-1101344D01*
X-116332Y-1101344D01*
X-116078Y-1101699D01*
X-114960Y-1102156D01*
X-113233Y-1103985D01*
X-112471Y-1105763D01*
X-112522Y-1107541D01*
X-112979Y-1109421D01*
X-114655Y-1111046D01*
X-102006Y-1111097D01*
X-101803Y-1109929D01*
X-101346Y-1108862D01*
X-100685Y-1108100D01*
X-99822Y-1107643D01*
X-95148Y-1107389D01*
X-88493Y-1107795D01*
X-83007Y-1109675D01*
X-78740Y-1112062D01*
X-76149Y-1114907D01*
X-73761Y-1118514D01*
X-71424Y-1124915D01*
X-71424Y-1132535D01*
X-62026Y-1132535D01*
X-61823Y-1127556D01*
X-61518Y-1125118D01*
X-61112Y-1124254D01*
X-60909Y-1123035D01*
X-59029Y-1119124D01*
X-56743Y-1115923D01*
X-53898Y-1113282D01*
X-50596Y-1110945D01*
X-46583Y-1109014D01*
X-42773Y-1107948D01*
X-39268Y-1107490D01*
X-34188Y-1107338D01*
X-29718Y-1107998D01*
X-26771Y-1108811D01*
X-23571Y-1110030D01*
X-18237Y-1113790D01*
X-15849Y-1116380D01*
X-13766Y-1119378D01*
X-11887Y-1123289D01*
X-11328Y-1125372D01*
X-10871Y-1129131D01*
X-10823Y-1132433D01*
X-4724Y-1132433D01*
X-4673Y-1128522D01*
X-3403Y-1123289D01*
X-2692Y-1121308D01*
X-914Y-1118108D01*
X2794Y-1114044D01*
X6096Y-1111453D01*
X11836Y-1108659D01*
X15697Y-1107694D01*
X20929Y-1107389D01*
X25298Y-1107389D01*
X29362Y-1108252D01*
X33426Y-1110030D01*
X36271Y-1111707D01*
X38404Y-1113485D01*
X42214Y-1117752D01*
X44704Y-1122934D01*
X45974Y-1128776D01*
X45948Y-1131773D01*
X52730Y-1131773D01*
X53136Y-1126286D01*
X53695Y-1123035D01*
X55422Y-1118717D01*
X57048Y-1116076D01*
X58928Y-1113790D01*
X62026Y-1111148D01*
X64465Y-1109827D01*
X67513Y-1108557D01*
X70358Y-1107846D01*
X73050Y-1107490D01*
X77266Y-1107389D01*
X80924Y-1107846D01*
X111556Y-1107897D01*
X111556Y-1105255D01*
X111963Y-1104950D01*
X112928Y-1103223D01*
X115417Y-1101344D01*
X119633Y-1101394D01*
X121208Y-1102360D01*
X122428Y-1103579D01*
X123393Y-1105255D01*
X123393Y-1108405D01*
X122377Y-1110183D01*
X121158Y-1111351D01*
X119227Y-1112418D01*
X115722Y-1112418D01*
X113537Y-1111250D01*
X112064Y-1109065D01*
X111556Y-1107897D01*
X81051Y-1107897D01*
X84937Y-1109370D01*
X87782Y-1111097D01*
X91490Y-1114552D01*
X91592Y-1109827D01*
X93116Y-1108252D01*
X96215Y-1108049D01*
X97688Y-1108202D01*
X98856Y-1108659D01*
X99771Y-1109878D01*
X99771Y-1154125D01*
X112928Y-1154125D01*
X112928Y-1119784D01*
X113436Y-1118819D01*
X114604Y-1118006D01*
X118465Y-1117650D01*
X119887Y-1117955D01*
X120751Y-1118616D01*
X121564Y-1120648D01*
X121447Y-1139190D01*
X131826Y-1139190D01*
X131978Y-1127150D01*
X132283Y-1124305D01*
X134112Y-1119225D01*
X134721Y-1118006D01*
X135077Y-1117752D01*
X135788Y-1116482D01*
X139293Y-1112621D01*
X140817Y-1111402D01*
X145745Y-1108862D01*
X148386Y-1107998D01*
X154076Y-1107084D01*
X158038Y-1106830D01*
X163068Y-1107694D01*
X169062Y-1110132D01*
X172364Y-1112215D01*
X176174Y-1116228D01*
X178104Y-1119428D01*
X179324Y-1122527D01*
X179933Y-1125524D01*
X180019Y-1128572D01*
X186740Y-1128572D01*
X187350Y-1123188D01*
X188112Y-1120749D01*
X189128Y-1118463D01*
X191465Y-1115009D01*
X195072Y-1111707D01*
X198983Y-1109218D01*
X204470Y-1107643D01*
X212344Y-1107338D01*
X215798Y-1108303D01*
X219760Y-1110030D01*
X222554Y-1112113D01*
X225196Y-1114806D01*
X225145Y-1110437D01*
X225704Y-1109319D01*
X226263Y-1108710D01*
X227329Y-1108100D01*
X232105Y-1108100D01*
X233324Y-1109167D01*
X233527Y-1111961D01*
X233629Y-1132332D01*
X241046Y-1132332D01*
X241604Y-1126642D01*
X242519Y-1123035D01*
X243687Y-1119987D01*
X247497Y-1115009D01*
X249986Y-1112875D01*
X252831Y-1110945D01*
X257200Y-1108760D01*
X258216Y-1108608D01*
X259079Y-1108151D01*
X260959Y-1107795D01*
X265023Y-1107440D01*
X270510Y-1107287D01*
X273354Y-1107948D01*
X278180Y-1109624D01*
X281432Y-1111453D01*
X285800Y-1115568D01*
X287578Y-1117600D01*
X289966Y-1122070D01*
X291541Y-1127455D01*
X291185Y-1136243D01*
X290626Y-1139190D01*
X288747Y-1143558D01*
X287172Y-1146403D01*
X283921Y-1150112D01*
X280263Y-1153007D01*
X274472Y-1155750D01*
X270103Y-1156766D01*
X265836Y-1157224D01*
X258724Y-1156411D01*
X256590Y-1155750D01*
X251307Y-1153210D01*
X248412Y-1150924D01*
X246075Y-1148283D01*
X244703Y-1145997D01*
X244703Y-1143254D01*
X245110Y-1143203D01*
X245211Y-1142796D01*
X247091Y-1141374D01*
X249732Y-1141425D01*
X250799Y-1141984D01*
X253898Y-1145387D01*
X256235Y-1147267D01*
X258470Y-1148638D01*
X261061Y-1149604D01*
X267055Y-1150162D01*
X270205Y-1149451D01*
X273253Y-1148384D01*
X275234Y-1147114D01*
X279095Y-1143711D01*
X281686Y-1139342D01*
X282854Y-1135684D01*
X282854Y-1134516D01*
X243586Y-1134618D01*
X241604Y-1133703D01*
X241046Y-1132332D01*
X233629Y-1132332D01*
X233476Y-1154887D01*
X232257Y-1156106D01*
X226771Y-1156157D01*
X225704Y-1154887D01*
X225399Y-1153007D01*
X224891Y-1127455D01*
X224586Y-1125220D01*
X223824Y-1123137D01*
X222707Y-1121359D01*
X219659Y-1118006D01*
X217728Y-1116685D01*
X215493Y-1115720D01*
X213664Y-1115263D01*
X206044Y-1115314D01*
X202844Y-1116330D01*
X199440Y-1118514D01*
X197764Y-1120394D01*
X195884Y-1123848D01*
X195478Y-1125372D01*
X195072Y-1126083D01*
X194818Y-1154785D01*
X193700Y-1155954D01*
X190906Y-1156512D01*
X187858Y-1155954D01*
X186893Y-1154887D01*
X186740Y-1128572D01*
X180019Y-1128572D01*
X179933Y-1132789D01*
X179171Y-1136192D01*
X176987Y-1141018D01*
X174904Y-1143762D01*
X171246Y-1147114D01*
X168097Y-1149197D01*
X167589Y-1149248D01*
X167335Y-1149604D01*
X162052Y-1151280D01*
X156667Y-1151788D01*
X153060Y-1151636D01*
X150164Y-1150975D01*
X149606Y-1150620D01*
X148590Y-1150467D01*
X144780Y-1148486D01*
X142544Y-1146759D01*
X139496Y-1143914D01*
X139293Y-1144422D01*
X139446Y-1149045D01*
X139954Y-1152093D01*
X140614Y-1154430D01*
X142240Y-1156970D01*
X145592Y-1159967D01*
X147269Y-1161034D01*
X151638Y-1162507D01*
X159461Y-1162507D01*
X159918Y-1162151D01*
X161340Y-1161846D01*
X163830Y-1160780D01*
X166420Y-1159052D01*
X168757Y-1157071D01*
X170332Y-1154785D01*
X171653Y-1153363D01*
X173837Y-1152804D01*
X175564Y-1153363D01*
X177342Y-1154785D01*
X177952Y-1156716D01*
X176834Y-1159154D01*
X173939Y-1162812D01*
X171450Y-1164894D01*
X169418Y-1166063D01*
X169164Y-1166469D01*
X168402Y-1166622D01*
X166370Y-1167587D01*
X161239Y-1169111D01*
X156464Y-1169466D01*
X151434Y-1169263D01*
X145694Y-1168044D01*
X143408Y-1167079D01*
X142595Y-1166926D01*
X138938Y-1164386D01*
X136499Y-1162050D01*
X134620Y-1159764D01*
X133807Y-1157986D01*
X133451Y-1157782D01*
X132435Y-1154887D01*
X132029Y-1152093D01*
X131826Y-1139190D01*
X121447Y-1139190D01*
X121208Y-1154836D01*
X119887Y-1156157D01*
X114350Y-1156157D01*
X113436Y-1155141D01*
X112928Y-1154125D01*
X99771Y-1154125D01*
X99771Y-1154582D01*
X98450Y-1156157D01*
X92811Y-1156157D01*
X91440Y-1154785D01*
X91236Y-1125829D01*
X89611Y-1122273D01*
X88341Y-1120394D01*
X86817Y-1118717D01*
X84074Y-1116736D01*
X82092Y-1115923D01*
X79908Y-1115314D01*
X76352Y-1115161D01*
X72796Y-1115314D01*
X68884Y-1116533D01*
X65328Y-1119225D01*
X63906Y-1120851D01*
X62839Y-1122629D01*
X62077Y-1124610D01*
X61315Y-1128369D01*
X61112Y-1154836D01*
X60045Y-1155954D01*
X56997Y-1156563D01*
X54660Y-1156004D01*
X53492Y-1155446D01*
X52832Y-1154531D01*
X52730Y-1131773D01*
X45948Y-1131773D01*
X45923Y-1134719D01*
X44145Y-1141272D01*
X42062Y-1145235D01*
X37693Y-1150416D01*
X34442Y-1152906D01*
X30784Y-1154887D01*
X25450Y-1156614D01*
X22707Y-1156970D01*
X18542Y-1157173D01*
X12700Y-1156462D01*
X7264Y-1154328D01*
X3810Y-1152093D01*
X914Y-1149451D01*
X-1574Y-1145743D01*
X-1320Y-1143609D01*
X-660Y-1142593D01*
X355Y-1141831D01*
X2540Y-1141222D01*
X4318Y-1141730D01*
X9855Y-1147064D01*
X13512Y-1148994D01*
X15240Y-1149604D01*
X20777Y-1150162D01*
X26162Y-1148842D01*
X28702Y-1147622D01*
X31038Y-1145844D01*
X34086Y-1142796D01*
X35915Y-1139647D01*
X37490Y-1135126D01*
X37490Y-1134618D01*
X-2286Y-1134618D01*
X-3251Y-1134110D01*
X-4724Y-1132433D01*
X-10823Y-1132433D01*
X-11023Y-1135278D01*
X-11938Y-1139240D01*
X-13563Y-1143304D01*
X-15646Y-1146556D01*
X-19405Y-1150670D01*
X-22453Y-1153109D01*
X-28143Y-1155801D01*
X-30988Y-1156614D01*
X-36220Y-1157173D01*
X-42367Y-1156766D01*
X-45872Y-1156004D01*
X-48717Y-1154938D01*
X-52832Y-1152601D01*
X-55117Y-1150670D01*
X-57759Y-1147622D01*
X-58623Y-1145895D01*
X-58826Y-1144778D01*
X-58521Y-1143304D01*
X-57759Y-1142390D01*
X-56692Y-1141679D01*
X-55372Y-1141374D01*
X-53086Y-1141526D01*
X-47345Y-1147165D01*
X-43383Y-1149146D01*
X-41960Y-1149604D01*
X-36017Y-1150162D01*
X-32359Y-1149299D01*
X-28397Y-1147724D01*
X-26771Y-1146708D01*
X-22707Y-1142593D01*
X-20828Y-1139139D01*
X-19507Y-1134618D01*
X-59283Y-1134618D01*
X-61010Y-1134059D01*
X-62026Y-1132535D01*
X-71424Y-1132535D01*
X-71424Y-1154785D01*
X-72745Y-1156157D01*
X-78028Y-1156157D01*
X-79197Y-1154938D01*
X-79603Y-1154125D01*
X-79857Y-1132382D01*
X-80162Y-1125423D01*
X-81635Y-1121867D01*
X-83972Y-1119174D01*
X-86715Y-1116888D01*
X-90474Y-1115415D01*
X-95046Y-1115212D01*
X-99872Y-1115517D01*
X-101396Y-1113993D01*
X-102006Y-1111097D01*
X-114706Y-1111097D01*
X-116585Y-1112418D01*
X-120497Y-1112367D01*
X-122174Y-1111300D01*
X-123291Y-1110132D01*
X-124256Y-1108405D01*
X-137617Y-1108405D01*
X-136753Y-1109268D01*
X-136499Y-1109827D01*
X-136499Y-1154074D01*
X-136630Y-1154379D01*
X-122428Y-1154379D01*
X-122428Y-1119378D01*
X-120904Y-1117854D01*
X-118668Y-1117600D01*
X-115366Y-1117955D01*
X-114300Y-1118870D01*
X-113792Y-1119784D01*
X-113944Y-1149248D01*
X-114198Y-1154938D01*
X-115265Y-1155954D01*
X-118364Y-1156462D01*
X-120700Y-1156004D01*
X-121869Y-1155395D01*
X-122428Y-1154379D01*
X-136630Y-1154379D01*
X-137058Y-1155547D01*
X-138176Y-1156157D01*
X-143459Y-1156157D01*
X-144830Y-1154582D01*
X-145084Y-1126286D01*
X-146659Y-1122426D01*
X-148894Y-1119327D01*
X-150926Y-1117600D01*
X-153873Y-1116126D01*
X-156311Y-1115364D01*
X-158038Y-1115110D01*
X-162560Y-1115060D01*
X-166471Y-1116076D01*
X-169621Y-1117803D01*
X-171450Y-1119327D01*
X-173634Y-1122324D01*
X-174752Y-1125423D01*
X-175107Y-1128166D01*
X-175666Y-1154887D01*
X-176631Y-1156004D01*
X-179882Y-1156411D01*
X-182067Y-1155903D01*
X-182727Y-1155547D01*
X-183184Y-1154988D01*
X-183794Y-1153160D01*
X-197091Y-1153160D01*
X-195783Y-1153566D01*
X-194208Y-1154988D01*
X-194208Y-1157579D01*
X-195478Y-1159764D01*
X-197307Y-1162050D01*
X-200660Y-1165047D01*
X-202742Y-1166317D01*
X-206502Y-1167841D01*
X-210108Y-1168908D01*
X-212039Y-1169263D01*
X-216103Y-1169517D01*
X-222656Y-1169060D01*
X-227787Y-1167536D01*
X-231190Y-1165809D01*
X-233527Y-1164031D01*
X-235458Y-1162151D01*
X-237794Y-1158951D01*
X-238353Y-1157478D01*
X-238658Y-1157274D01*
X-239725Y-1154125D01*
X-239928Y-1129030D01*
X-265029Y-1129030D01*
X-264972Y-1178255D01*
X309219Y-1178356D01*
X309118Y-1089914D01*
G37*
G36*
X158038Y-1114094D02*
G01*
X153365Y-1114399D01*
X149656Y-1115263D01*
X146202Y-1116990D01*
X142697Y-1120698D01*
X142036Y-1121765D01*
X140817Y-1124762D01*
X140157Y-1126998D01*
X140411Y-1132027D01*
X140716Y-1133754D01*
X141274Y-1135329D01*
X142240Y-1137107D01*
X144780Y-1140104D01*
X148234Y-1142593D01*
X151892Y-1143965D01*
X155803Y-1144727D01*
X159054Y-1144219D01*
X161899Y-1143508D01*
X163830Y-1142644D01*
X166319Y-1141069D01*
X168757Y-1138631D01*
X170891Y-1135176D01*
X171653Y-1132687D01*
X172059Y-1127658D01*
X171094Y-1124051D01*
X170383Y-1122426D01*
X168960Y-1120140D01*
X167386Y-1118463D01*
X165658Y-1117041D01*
X162915Y-1115618D01*
X160426Y-1114704D01*
X158851Y-1114501D01*
G37*
G36*
X-215392Y-1114145D02*
G01*
X-218846Y-1114552D01*
X-220776Y-1115009D01*
X-224129Y-1116533D01*
X-227279Y-1118971D01*
X-229666Y-1121714D01*
X-231190Y-1126134D01*
X-231343Y-1129030D01*
X-231190Y-1132128D01*
X-230784Y-1134262D01*
X-229311Y-1137158D01*
X-227431Y-1139748D01*
X-225552Y-1141628D01*
X-223774Y-1142492D01*
X-223723Y-1142695D01*
X-222961Y-1142898D01*
X-222707Y-1143203D01*
X-218846Y-1144371D01*
X-212547Y-1144371D01*
X-208737Y-1143254D01*
X-206654Y-1142085D01*
X-204571Y-1140510D01*
X-201676Y-1137056D01*
X-200406Y-1133906D01*
X-199644Y-1131316D01*
X-199796Y-1127048D01*
X-200101Y-1125016D01*
X-201574Y-1121664D01*
X-202946Y-1119733D01*
X-206603Y-1116584D01*
X-209499Y-1115263D01*
G37*
G36*
X20370Y-1114856D02*
G01*
X15494Y-1115466D01*
X13868Y-1116025D01*
X10617Y-1117650D01*
X9347Y-1118565D01*
X5740Y-1122019D01*
X3505Y-1126998D01*
X3657Y-1127353D01*
X37236Y-1127353D01*
X37541Y-1126845D01*
X37033Y-1126032D01*
X36576Y-1124458D01*
X35356Y-1122426D01*
X33782Y-1120343D01*
X31140Y-1117955D01*
X26466Y-1115771D01*
X25095Y-1115314D01*
X22961Y-1114958D01*
G37*
G36*
X-35560Y-1114907D02*
G01*
X-39725Y-1115060D01*
X-42265Y-1115618D01*
X-46786Y-1117549D01*
X-48361Y-1118666D01*
X-50850Y-1121054D01*
X-51968Y-1122527D01*
X-53340Y-1124915D01*
X-54051Y-1127353D01*
X-19761Y-1127353D01*
X-19812Y-1126337D01*
X-20929Y-1123797D01*
X-22606Y-1121257D01*
X-24536Y-1118971D01*
X-26365Y-1117701D01*
X-29616Y-1116076D01*
X-31038Y-1115568D01*
G37*
G36*
X266395Y-1114958D02*
G01*
X263245Y-1115110D01*
X260807Y-1115618D01*
X257556Y-1116888D01*
X255422Y-1118311D01*
X251764Y-1121714D01*
X250444Y-1123848D01*
X250088Y-1124966D01*
X249783Y-1125169D01*
X249224Y-1126794D01*
X249224Y-1127353D01*
X282854Y-1127302D01*
X282803Y-1126744D01*
X280263Y-1121714D01*
X279095Y-1120241D01*
X275996Y-1117549D01*
X274421Y-1116634D01*
X270916Y-1115415D01*
G37*
G36*
X575208Y81229D02*
G01*
X568553Y78740D01*
X564235Y74930D01*
X561594Y71424D01*
X559511Y67716D01*
X557530Y61722D01*
X557530Y48869D01*
X561340Y39319D01*
X566369Y33680D01*
X570331Y31445D01*
X575005Y29616D01*
X734009Y29565D01*
X739698Y28295D01*
X743458Y27127D01*
X748233Y24485D01*
X753973Y18643D01*
X758494Y8280D01*
X758850Y-23215D01*
X584657Y-23520D01*
X578561Y-26720D01*
X573532Y-31902D01*
X570585Y-36728D01*
X568299Y-44043D01*
X568299Y-52120D01*
X569468Y-57759D01*
X572719Y-65278D01*
X577951Y-70764D01*
X584098Y-73863D01*
X616864Y-74828D01*
X758748Y-74879D01*
X758748Y-102209D01*
X757123Y-109270D01*
X753872Y-116078D01*
X749960Y-120599D01*
X745591Y-123901D01*
X739190Y-126796D01*
X573379Y-127406D01*
X567283Y-130606D01*
X562457Y-135585D01*
X559054Y-141478D01*
X557580Y-147828D01*
X557580Y-158597D01*
X559054Y-164185D01*
X561238Y-168910D01*
X567690Y-175615D01*
X573938Y-178409D01*
X739190Y-178765D01*
X751636Y-177546D01*
X761695Y-174650D01*
X770280Y-170942D01*
X779576Y-164998D01*
X785926Y-159562D01*
X792276Y-151993D01*
X797915Y-143611D01*
X802690Y-132791D01*
X805332Y-123799D01*
X806500Y-117805D01*
X807567Y-110693D01*
X807567Y12598D01*
X805383Y25704D01*
X803046Y34086D01*
X797763Y46075D01*
X794512Y51511D01*
X788111Y59690D01*
X780491Y66548D01*
X776173Y69646D01*
X771347Y72694D01*
X764743Y75793D01*
X755294Y78892D01*
X744524Y81127D01*
G37*
G36*
X-725119Y81229D02*
G01*
X-735482Y79451D01*
X-745998Y76454D01*
X-752805Y73456D01*
X-759968Y69037D01*
X-766064Y64414D01*
X-772668Y57607D01*
X-779322Y48260D01*
X-783742Y38303D01*
X-785876Y31089D01*
X-788111Y17373D01*
X-788111Y3810D01*
X-741070Y3810D01*
X-739749Y12242D01*
X-736600Y19304D01*
X-730402Y25704D01*
X-725627Y27381D01*
X-724560Y28244D01*
X-720242Y29159D01*
X-601980Y29616D01*
X-601980Y-23266D01*
X-718870Y-23266D01*
X-724560Y-21945D01*
X-731774Y-18288D01*
X-737057Y-12344D01*
X-739851Y-5842D01*
X-741070Y3810D01*
X-788111Y3810D01*
X-788111Y-10566D01*
X-786993Y-16916D01*
X-784809Y-25958D01*
X-783742Y-28956D01*
X-780491Y-36169D01*
X-775614Y-43332D01*
X-772566Y-47040D01*
X-779729Y-54102D01*
X-784453Y-61315D01*
X-788720Y-71170D01*
X-790854Y-79349D01*
X-792429Y-93167D01*
X-792378Y-105003D01*
X-744169Y-105003D01*
X-744169Y-96012D01*
X-742035Y-88493D01*
X-738225Y-82296D01*
X-733653Y-78638D01*
X-729386Y-76250D01*
X-723900Y-74777D01*
X-628497Y-74574D01*
X-601980Y-74879D01*
X-601980Y-127152D01*
X-727252Y-126796D01*
X-734415Y-122885D01*
X-740460Y-116687D01*
X-742442Y-112318D01*
X-744169Y-105003D01*
X-792378Y-105003D01*
X-792378Y-109982D01*
X-790854Y-123189D01*
X-788822Y-131622D01*
X-786993Y-137007D01*
X-783285Y-145186D01*
X-777240Y-154432D01*
X-770636Y-161594D01*
X-764133Y-166878D01*
X-757529Y-170891D01*
X-747471Y-175107D01*
X-737768Y-177495D01*
X-725119Y-178765D01*
X-569468Y-178409D01*
X-562457Y-174701D01*
X-557479Y-168960D01*
X-554482Y-162204D01*
X-553923Y46685D01*
X-554482Y64719D01*
X-556971Y70612D01*
X-562508Y77114D01*
X-566775Y79552D01*
X-570585Y81127D01*
G37*
G36*
X485393Y81178D02*
G01*
X478485Y79400D01*
X471779Y75793D01*
X466496Y71120D01*
X429564Y24434D01*
X422757Y15494D01*
X398475Y-15138D01*
X355600Y-68580D01*
X327710Y-102616D01*
X326847Y-100025D01*
X327202Y57505D01*
X326288Y65176D01*
X322884Y72288D01*
X317652Y77571D01*
X311556Y80924D01*
X294894Y80924D01*
X287731Y76962D01*
X282295Y70358D01*
X279349Y63042D01*
X279349Y-147828D01*
X281330Y-155600D01*
X284073Y-162509D01*
X289661Y-170129D01*
X295706Y-174599D01*
X301345Y-177393D01*
X307035Y-178714D01*
X324408Y-178714D01*
X331876Y-176936D01*
X339445Y-172872D01*
X343865Y-169214D01*
X481380Y3098D01*
X482447Y3860D01*
X482447Y-157429D01*
X483920Y-163576D01*
X486968Y-169875D01*
X491693Y-174548D01*
X498754Y-178409D01*
X514350Y-178409D01*
X518668Y-176784D01*
X524205Y-172669D01*
X528523Y-166268D01*
X530707Y-158699D01*
X530707Y49682D01*
X529234Y56286D01*
X527151Y62128D01*
X522020Y69850D01*
X515772Y75692D01*
X509016Y79400D01*
X503072Y81127D01*
G37*
G36*
X-33477Y81178D02*
G01*
X-48514Y80873D01*
X-55168Y77470D01*
X-61163Y70459D01*
X-64058Y63500D01*
X-64566Y-102209D01*
X-67056Y-109778D01*
X-69799Y-114808D01*
X-73152Y-118821D01*
X-78536Y-123291D01*
X-86055Y-126796D01*
X-187655Y-126796D01*
X-189026Y-125272D01*
X-190855Y-125272D01*
X-197561Y-121462D01*
X-203657Y-115163D01*
X-206959Y-108204D01*
X-208940Y-102209D01*
X-209448Y63550D01*
X-213055Y71678D01*
X-218033Y77165D01*
X-225044Y80924D01*
X-241655Y80924D01*
X-248310Y77470D01*
X-253796Y71018D01*
X-257200Y62890D01*
X-257200Y-55372D01*
X-256540Y-112369D01*
X-254711Y-123189D01*
X-251053Y-133705D01*
X-247040Y-143002D01*
X-240639Y-152603D01*
X-232105Y-161950D01*
X-223316Y-168503D01*
X-214274Y-173228D01*
X-202996Y-176784D01*
X-193903Y-178409D01*
X-77470Y-178409D01*
X-66548Y-175717D01*
X-57099Y-172008D01*
X-46532Y-165811D01*
X-37744Y-157886D01*
X-30784Y-149606D01*
X-24282Y-138785D01*
X-22555Y-134620D01*
X-20218Y-128016D01*
X-18846Y-123189D01*
X-16560Y-111201D01*
X-16357Y63500D01*
X-19202Y70408D01*
X-24892Y77114D01*
X-29159Y79603D01*
G37*
G36*
X182219Y81026D02*
G01*
X24485Y80924D01*
X17221Y77063D01*
X11582Y70713D01*
X9601Y66040D01*
X8128Y58115D01*
X8128Y52679D01*
X9601Y44805D01*
X11582Y40081D01*
X17526Y33477D01*
X22352Y30886D01*
X25958Y29565D01*
X172770Y29565D01*
X178460Y28295D01*
X182778Y26974D01*
X183794Y26009D01*
X185267Y26009D01*
X190246Y22199D01*
X193852Y18491D01*
X198018Y11734D01*
X200456Y3454D01*
X200456Y-100990D01*
X198018Y-109118D01*
X194208Y-115773D01*
X190804Y-119430D01*
X184912Y-123901D01*
X179527Y-126695D01*
X162356Y-127152D01*
X24485Y-127508D01*
X18034Y-130860D01*
X14122Y-134315D01*
X10363Y-140614D01*
X8128Y-148336D01*
X8128Y-156210D01*
X9550Y-163423D01*
X11480Y-168046D01*
X16611Y-174294D01*
X24485Y-178409D01*
X185978Y-178409D01*
X195580Y-176225D01*
X205841Y-172618D01*
X213360Y-168402D01*
X222097Y-161950D01*
X230428Y-153212D01*
X237744Y-143052D01*
X244043Y-129184D01*
X246176Y-122021D01*
X247345Y-117195D01*
X248462Y-110591D01*
X249580Y-101955D01*
X249580Y2895D01*
X247954Y16662D01*
X247345Y19659D01*
X243992Y31699D01*
X238810Y42926D01*
X233476Y51612D01*
X223824Y62534D01*
X217119Y67868D01*
X208534Y73406D01*
X196697Y78079D01*
X185420Y80568D01*
G37*
G36*
X-346303Y81026D02*
G01*
X-505104Y80924D01*
X-512267Y76962D01*
X-517448Y70612D01*
X-519734Y65328D01*
X-520954Y61925D01*
X-520954Y49428D01*
X-518617Y42468D01*
X-515061Y36474D01*
X-511251Y33121D01*
X-505104Y29870D01*
X-353263Y29209D01*
X-348945Y27990D01*
X-342849Y24892D01*
X-337413Y19202D01*
X-334264Y11887D01*
X-333044Y3810D01*
X-334213Y-6045D01*
X-336702Y-12141D01*
X-339699Y-16103D01*
X-345744Y-20624D01*
X-354330Y-23215D01*
X-466343Y-23266D01*
X-473456Y-24587D01*
X-483666Y-27381D01*
X-489966Y-29921D01*
X-497585Y-34239D01*
X-505104Y-39878D01*
X-514248Y-50546D01*
X-517702Y-56184D01*
X-521919Y-65582D01*
X-524052Y-72745D01*
X-526288Y-85852D01*
X-526288Y-115925D01*
X-525119Y-123189D01*
X-524103Y-128016D01*
X-521868Y-135788D01*
X-518566Y-143611D01*
X-513283Y-152450D01*
X-503478Y-163576D01*
X-492759Y-170738D01*
X-481279Y-175768D01*
X-468071Y-178409D01*
X-301193Y-178409D01*
X-293928Y-174599D01*
X-288594Y-168402D01*
X-286359Y-163576D01*
X-284835Y-158038D01*
X-284835Y-149860D01*
X-286004Y-144221D01*
X-288848Y-137668D01*
X-294386Y-131572D01*
X-302310Y-127406D01*
X-461619Y-126746D01*
X-465378Y-124968D01*
X-469849Y-122326D01*
X-475843Y-114909D01*
X-478129Y-108204D01*
X-478688Y-96113D01*
X-476859Y-89001D01*
X-473659Y-83362D01*
X-469493Y-79146D01*
X-465378Y-76809D01*
X-459282Y-74777D01*
X-346303Y-74371D01*
X-340360Y-73558D01*
X-332333Y-71831D01*
X-323189Y-68732D01*
X-314096Y-63601D01*
X-306578Y-57658D01*
X-299008Y-49276D01*
X-293420Y-40944D01*
X-289255Y-31343D01*
X-287375Y-25349D01*
X-286359Y-20523D01*
X-285292Y-13919D01*
X-284734Y14274D01*
X-285953Y23876D01*
X-287121Y29311D01*
X-289255Y36474D01*
X-293370Y46126D01*
X-300075Y56286D01*
X-306730Y63601D01*
X-315722Y70307D01*
X-323189Y74472D01*
X-332486Y78130D01*
X-344678Y80822D01*
G37*
D10*
X179905Y-273260D02*
G01*
X141724Y-362353D01*
X103543Y-273260D02*
G01*
X141724Y-362353D01*
X61541Y-254170D02*
G01*
X48816Y-247807D01*
X29723Y-228716D01*
X29723Y-362353D01*
X-18638Y-330535D02*
G01*
X-12275Y-336897D01*
X-18638Y-343260D01*
X-25003Y-336897D01*
X-18638Y-330535D01*
X-105183Y-228716D02*
G01*
X-86093Y-235079D01*
X-73365Y-254170D01*
X-67002Y-285988D01*
X-67002Y-305079D01*
X-73365Y-336897D01*
X-86093Y-355988D01*
X-105183Y-362353D01*
X-117911Y-362353D01*
X-137002Y-355988D01*
X-149730Y-336897D01*
X-156093Y-305079D01*
X-156093Y-285988D01*
X-149730Y-254170D01*
X-137002Y-235079D01*
X-117911Y-228716D01*
X-105183Y-228716D01*
D11*
X899998Y-1119997D02*
G01*
X899998Y-719998D01*
X-899998Y-719998D02*
G01*
X-899904Y-1120007D01*
X432409Y-1117396D02*
G01*
X899998Y-1119997D01*
X-889998Y-1119997D02*
G01*
X-439999Y-1119997D01*
D12*
G75*
G01
X99898Y480009D02*
G03X99898Y480009I-100000J0D01*
D10*
G75*
G01
X249911Y480009D02*
G03X249911Y480009I-250012J0D01*
D13*
G75*
G01
X990016Y-519989D02*
G03X990016Y-519989I-240005J0D01*
G75*
G01
X-509981Y-519989D02*
G03X-509981Y-519989I-240005J0D01*
G75*
G01
X990016Y480009D02*
G03X990016Y480009I-240005J0D01*
G75*
G01
X-509981Y480009D02*
G03X-509981Y480009I-240005J0D01*
M02*
