G04 Layer: TopPasteMaskLayer*
G04 EasyEDA v6.5.57, 2026-06-27 20:36:30*
G04 db5aa68870094b5ea620e0544f82f9b8,aded602c09064ad3b3ee905135c3d30b,10*
G04 Gerber Generator version 0.2*
G04 Scale: 100 percent, Rotated: No, Reflected: No *
G04 Dimensions in millimeters *
G04 leading zeros omitted , absolute positions ,4 integer and 5 decimal *
%FSLAX45Y45*%
%MOMM*%

%ADD10R,0.5000X0.5400*%
%ADD11R,0.8000X1.5240*%
%ADD12R,0.6000X1.0000*%
%ADD13O,1.950212X0.568401*%
%ADD14O,0.0105X0.568401*%

%LPD*%
G36*
X-352602Y-442976D02*
G01*
X-356616Y-446989D01*
X-356616Y-493014D01*
X-352602Y-496976D01*
X-302514Y-496976D01*
X-298551Y-493014D01*
X-298551Y-446989D01*
X-302514Y-442976D01*
G37*
G36*
X-437642Y-442976D02*
G01*
X-441655Y-446989D01*
X-441655Y-493014D01*
X-437642Y-496976D01*
X-387604Y-496976D01*
X-383590Y-493014D01*
X-383590Y-446989D01*
X-387604Y-442976D01*
G37*
G36*
X302361Y-442976D02*
G01*
X298348Y-446989D01*
X298348Y-493014D01*
X302361Y-496976D01*
X352399Y-496976D01*
X356412Y-493014D01*
X356412Y-446989D01*
X352399Y-442976D01*
G37*
G36*
X387400Y-442976D02*
G01*
X383387Y-446989D01*
X383387Y-493014D01*
X387400Y-496976D01*
X437489Y-496976D01*
X441451Y-493014D01*
X441451Y-446989D01*
X437489Y-442976D01*
G37*
G36*
X342341Y157022D02*
G01*
X338328Y153009D01*
X338328Y107035D01*
X342341Y103022D01*
X392430Y103022D01*
X396392Y107035D01*
X396392Y153009D01*
X392430Y157022D01*
G37*
G36*
X427431Y157022D02*
G01*
X423418Y153009D01*
X423418Y107035D01*
X427431Y103022D01*
X477469Y103022D01*
X481482Y107035D01*
X481482Y153009D01*
X477469Y157022D01*
G37*
G36*
X72339Y157022D02*
G01*
X68326Y153009D01*
X68326Y107035D01*
X72339Y103022D01*
X122428Y103022D01*
X126390Y107035D01*
X126390Y153009D01*
X122428Y157022D01*
G37*
G36*
X157429Y157022D02*
G01*
X153416Y153009D01*
X153416Y107035D01*
X157429Y103022D01*
X207467Y103022D01*
X211480Y107035D01*
X211480Y153009D01*
X207467Y157022D01*
G37*
G36*
X492353Y-2997D02*
G01*
X488340Y-7010D01*
X488340Y-52984D01*
X492353Y-56997D01*
X542391Y-56997D01*
X546404Y-52984D01*
X546404Y-7010D01*
X542391Y-2997D01*
G37*
G36*
X577392Y-2997D02*
G01*
X573430Y-7010D01*
X573430Y-52984D01*
X577392Y-56997D01*
X627481Y-56997D01*
X631494Y-52984D01*
X631494Y-7010D01*
X627481Y-2997D01*
G37*
G36*
X677418Y157022D02*
G01*
X673404Y153009D01*
X673404Y107035D01*
X677418Y103022D01*
X727456Y103022D01*
X731469Y107035D01*
X731469Y153009D01*
X727456Y157022D01*
G37*
G36*
X592328Y157022D02*
G01*
X588365Y153009D01*
X588365Y107035D01*
X592328Y103022D01*
X642416Y103022D01*
X646430Y107035D01*
X646430Y153009D01*
X642416Y157022D01*
G37*
G36*
X-130098Y-364998D02*
G01*
X-130098Y-435000D01*
X-110083Y-435000D01*
X-110083Y-364998D01*
G37*
G36*
X-90119Y-364998D02*
G01*
X-90119Y-435000D01*
X-70104Y-435000D01*
X-70104Y-364998D01*
G37*
G36*
X109880Y-364998D02*
G01*
X109880Y-435000D01*
X129895Y-435000D01*
X129895Y-364998D01*
G37*
G36*
X69900Y-364998D02*
G01*
X69900Y-435000D01*
X89916Y-435000D01*
X89916Y-364998D01*
G37*
G36*
X29870Y-364998D02*
G01*
X29870Y-435000D01*
X49885Y-435000D01*
X49885Y-364998D01*
G37*
G36*
X-50088Y-364998D02*
G01*
X-50088Y-435000D01*
X-30073Y-435000D01*
X-30073Y-364998D01*
G37*
G36*
X-10109Y-364998D02*
G01*
X-10109Y-435000D01*
X9906Y-435000D01*
X9906Y-364998D01*
G37*
G36*
X-108102Y-91998D02*
G01*
X-108102Y-308000D01*
X107899Y-308000D01*
X107899Y-91998D01*
G37*
G36*
X164896Y-309981D02*
G01*
X164896Y-329996D01*
X234899Y-329996D01*
X234899Y-309981D01*
G37*
G36*
X-235102Y-309981D02*
G01*
X-235102Y-329996D01*
X-165100Y-329996D01*
X-165100Y-309981D01*
G37*
G36*
X164896Y-270002D02*
G01*
X164896Y-290017D01*
X234899Y-290017D01*
X234899Y-270002D01*
G37*
G36*
X-235102Y-270002D02*
G01*
X-235102Y-290017D01*
X-165100Y-290017D01*
X-165100Y-270002D01*
G37*
G36*
X164896Y-229971D02*
G01*
X164896Y-249986D01*
X234899Y-249986D01*
X234899Y-229971D01*
G37*
G36*
X-235102Y-229971D02*
G01*
X-235102Y-249986D01*
X-165100Y-249986D01*
X-165100Y-229971D01*
G37*
G36*
X164896Y-189992D02*
G01*
X164896Y-210007D01*
X234899Y-210007D01*
X234899Y-189992D01*
G37*
G36*
X-235000Y-189992D02*
G01*
X-235000Y-210007D01*
X-164998Y-210007D01*
X-164998Y-189992D01*
G37*
G36*
X164896Y-150012D02*
G01*
X164896Y-170027D01*
X234899Y-170027D01*
X234899Y-150012D01*
G37*
G36*
X-235102Y-149961D02*
G01*
X-235102Y-169976D01*
X-165100Y-169976D01*
X-165100Y-149961D01*
G37*
G36*
X164896Y-109982D02*
G01*
X164896Y-129997D01*
X234899Y-129997D01*
X234899Y-109982D01*
G37*
G36*
X-235102Y-109982D02*
G01*
X-235102Y-129997D01*
X-165100Y-129997D01*
X-165100Y-109982D01*
G37*
G36*
X164896Y-70002D02*
G01*
X164896Y-90017D01*
X234899Y-90017D01*
X234899Y-70002D01*
G37*
G36*
X-235102Y-70002D02*
G01*
X-235102Y-90017D01*
X-165100Y-90017D01*
X-165100Y-70002D01*
G37*
G36*
X109880Y35001D02*
G01*
X109880Y-35001D01*
X129895Y-35001D01*
X129895Y35001D01*
G37*
G36*
X-10007Y35001D02*
G01*
X-10007Y-35001D01*
X10007Y-35001D01*
X10007Y35001D01*
G37*
G36*
X69900Y35001D02*
G01*
X69900Y-35001D01*
X89916Y-35001D01*
X89916Y35001D01*
G37*
G36*
X29870Y35001D02*
G01*
X29870Y-35001D01*
X49885Y-35001D01*
X49885Y35001D01*
G37*
G36*
X-130098Y35001D02*
G01*
X-130098Y-35001D01*
X-110083Y-35001D01*
X-110083Y35001D01*
G37*
G36*
X-50088Y35001D02*
G01*
X-50088Y-35001D01*
X-30073Y-35001D01*
X-30073Y35001D01*
G37*
G36*
X-90119Y35001D02*
G01*
X-90119Y-35001D01*
X-70104Y-35001D01*
X-70104Y35001D01*
G37*
G36*
X289915Y-557580D02*
G01*
X289915Y-687578D01*
X349910Y-687578D01*
X349910Y-557580D01*
G37*
G36*
X-90119Y-557580D02*
G01*
X-90119Y-687578D01*
X-60096Y-687578D01*
X-60096Y-557580D01*
G37*
G36*
X-350062Y-557580D02*
G01*
X-350062Y-687578D01*
X-290068Y-687578D01*
X-290068Y-557580D01*
G37*
G36*
X9906Y-557580D02*
G01*
X9906Y-687578D01*
X39878Y-687578D01*
X39878Y-557580D01*
G37*
G36*
X159918Y-557580D02*
G01*
X159918Y-687578D01*
X189890Y-687578D01*
X189890Y-557580D01*
G37*
G36*
X-140106Y-557580D02*
G01*
X-140106Y-687578D01*
X-110083Y-687578D01*
X-110083Y-557580D01*
G37*
G36*
X109880Y-557580D02*
G01*
X109880Y-687578D01*
X139852Y-687578D01*
X139852Y-557580D01*
G37*
G36*
X59893Y-557580D02*
G01*
X59893Y-687578D01*
X89916Y-687578D01*
X89916Y-557580D01*
G37*
G36*
X-190093Y-557580D02*
G01*
X-190093Y-687578D01*
X-160121Y-687578D01*
X-160121Y-557580D01*
G37*
G36*
X-40081Y-557580D02*
G01*
X-40081Y-687578D01*
X-10109Y-687578D01*
X-10109Y-557580D01*
G37*
G36*
X-270103Y-557580D02*
G01*
X-270103Y-687578D01*
X-210108Y-687578D01*
X-210108Y-557580D01*
G37*
G36*
X-434085Y-599440D02*
G01*
X-440080Y-599897D01*
X-445973Y-600913D01*
X-451713Y-602538D01*
X-457301Y-604723D01*
X-462584Y-607466D01*
X-467614Y-610717D01*
X-472287Y-614426D01*
X-476605Y-618591D01*
X-480415Y-623163D01*
X-483819Y-628142D01*
X-486664Y-633374D01*
X-489000Y-638911D01*
X-490728Y-644601D01*
X-491947Y-650443D01*
X-492556Y-656437D01*
X-492607Y-739394D01*
X-492302Y-745388D01*
X-491439Y-751281D01*
X-489915Y-757072D01*
X-487883Y-762711D01*
X-485292Y-768096D01*
X-482193Y-773226D01*
X-478586Y-777951D01*
X-474522Y-782370D01*
X-470001Y-786333D01*
X-465175Y-789787D01*
X-459993Y-792784D01*
X-454507Y-795274D01*
X-448868Y-797153D01*
X-443026Y-798474D01*
X-437083Y-799236D01*
X-431088Y-799388D01*
X-425145Y-798931D01*
X-419252Y-797915D01*
X-413512Y-796290D01*
X-407924Y-794105D01*
X-402590Y-791362D01*
X-397560Y-788111D01*
X-392887Y-784402D01*
X-388620Y-780237D01*
X-384759Y-775614D01*
X-381406Y-770686D01*
X-378561Y-765454D01*
X-376224Y-759917D01*
X-374446Y-754227D01*
X-373278Y-748334D01*
X-372668Y-742391D01*
X-372618Y-659384D01*
X-372922Y-653440D01*
X-373786Y-647496D01*
X-375259Y-641705D01*
X-377342Y-636117D01*
X-379933Y-630732D01*
X-383032Y-625602D01*
X-386638Y-620826D01*
X-390702Y-616458D01*
X-395173Y-612495D01*
X-400050Y-608990D01*
X-405231Y-605993D01*
X-410667Y-603554D01*
X-416356Y-601675D01*
X-422198Y-600303D01*
X-428142Y-599592D01*
G37*
G36*
X430936Y-599440D02*
G01*
X424942Y-599897D01*
X419049Y-600913D01*
X413308Y-602538D01*
X407720Y-604723D01*
X402437Y-607466D01*
X397408Y-610717D01*
X392734Y-614426D01*
X388416Y-618591D01*
X384606Y-623163D01*
X381203Y-628142D01*
X378358Y-633374D01*
X376021Y-638911D01*
X374294Y-644601D01*
X373075Y-650443D01*
X372465Y-656437D01*
X372414Y-739394D01*
X372719Y-745388D01*
X373583Y-751281D01*
X375107Y-757072D01*
X377139Y-762711D01*
X379730Y-768096D01*
X382828Y-773226D01*
X386435Y-777951D01*
X390499Y-782370D01*
X395020Y-786333D01*
X399846Y-789787D01*
X405028Y-792784D01*
X410514Y-795274D01*
X416153Y-797153D01*
X421995Y-798474D01*
X427939Y-799236D01*
X433933Y-799388D01*
X439877Y-798931D01*
X445770Y-797915D01*
X451510Y-796290D01*
X457098Y-794105D01*
X462432Y-791362D01*
X467461Y-788111D01*
X472135Y-784402D01*
X476402Y-780237D01*
X480263Y-775614D01*
X483616Y-770686D01*
X486460Y-765454D01*
X488797Y-759917D01*
X490575Y-754227D01*
X491743Y-748334D01*
X492353Y-742391D01*
X492404Y-659384D01*
X492099Y-653440D01*
X491235Y-647496D01*
X489762Y-641705D01*
X487730Y-636117D01*
X485089Y-630732D01*
X481990Y-625602D01*
X478383Y-620826D01*
X474319Y-616458D01*
X469849Y-612495D01*
X464972Y-608990D01*
X459790Y-605993D01*
X454355Y-603554D01*
X448665Y-601675D01*
X442823Y-600303D01*
X436880Y-599592D01*
G37*
G36*
X-434085Y-1027430D02*
G01*
X-440080Y-1027887D01*
X-445973Y-1028903D01*
X-451713Y-1030528D01*
X-457301Y-1032713D01*
X-462584Y-1035456D01*
X-467614Y-1038707D01*
X-472287Y-1042416D01*
X-476605Y-1046581D01*
X-480415Y-1051153D01*
X-483819Y-1056132D01*
X-486664Y-1061364D01*
X-489000Y-1066901D01*
X-490728Y-1072591D01*
X-491947Y-1078433D01*
X-492556Y-1084427D01*
X-492607Y-1147419D01*
X-492302Y-1153363D01*
X-491439Y-1159306D01*
X-489915Y-1165098D01*
X-487883Y-1170686D01*
X-485292Y-1176070D01*
X-482193Y-1181201D01*
X-478586Y-1185976D01*
X-474522Y-1190345D01*
X-470001Y-1194308D01*
X-465175Y-1197813D01*
X-459993Y-1200810D01*
X-454507Y-1203248D01*
X-448868Y-1205179D01*
X-443026Y-1206500D01*
X-437083Y-1207211D01*
X-431088Y-1207363D01*
X-425145Y-1206957D01*
X-419252Y-1205890D01*
X-413512Y-1204264D01*
X-407924Y-1202080D01*
X-402590Y-1199337D01*
X-397560Y-1196136D01*
X-392887Y-1192377D01*
X-388620Y-1188212D01*
X-384759Y-1183640D01*
X-381406Y-1178661D01*
X-378561Y-1173429D01*
X-376224Y-1167942D01*
X-374446Y-1162202D01*
X-373278Y-1156360D01*
X-372668Y-1150366D01*
X-372618Y-1087424D01*
X-372922Y-1081430D01*
X-373786Y-1075486D01*
X-375259Y-1069695D01*
X-377342Y-1064107D01*
X-379933Y-1058722D01*
X-383032Y-1053592D01*
X-386638Y-1048816D01*
X-390702Y-1044448D01*
X-395173Y-1040485D01*
X-400050Y-1036980D01*
X-405231Y-1033983D01*
X-410667Y-1031544D01*
X-416356Y-1029665D01*
X-422198Y-1028293D01*
X-428142Y-1027582D01*
G37*
G36*
X430936Y-1027430D02*
G01*
X424942Y-1027887D01*
X419049Y-1028903D01*
X413308Y-1030528D01*
X407720Y-1032713D01*
X402437Y-1035456D01*
X397408Y-1038707D01*
X392734Y-1042416D01*
X388416Y-1046581D01*
X384606Y-1051153D01*
X381203Y-1056132D01*
X378358Y-1061364D01*
X376021Y-1066901D01*
X374294Y-1072591D01*
X373075Y-1078433D01*
X372465Y-1084427D01*
X372414Y-1147419D01*
X372719Y-1153363D01*
X373583Y-1159306D01*
X375107Y-1165098D01*
X377139Y-1170686D01*
X379730Y-1176070D01*
X382828Y-1181201D01*
X386435Y-1185976D01*
X390499Y-1190345D01*
X395020Y-1194308D01*
X399846Y-1197813D01*
X405028Y-1200810D01*
X410514Y-1203248D01*
X416153Y-1205179D01*
X421995Y-1206500D01*
X427939Y-1207211D01*
X433933Y-1207363D01*
X439877Y-1206957D01*
X445770Y-1205890D01*
X451510Y-1204264D01*
X457098Y-1202080D01*
X462432Y-1199337D01*
X467461Y-1196136D01*
X472135Y-1192377D01*
X476402Y-1188212D01*
X480263Y-1183640D01*
X483616Y-1178661D01*
X486460Y-1173429D01*
X488797Y-1167942D01*
X490575Y-1162202D01*
X491743Y-1156360D01*
X492353Y-1150366D01*
X492404Y-1087424D01*
X492099Y-1081430D01*
X491235Y-1075486D01*
X489762Y-1069695D01*
X487730Y-1064107D01*
X485089Y-1058722D01*
X481990Y-1053592D01*
X478383Y-1048816D01*
X474319Y-1044448D01*
X469849Y-1040485D01*
X464972Y-1036980D01*
X459790Y-1033983D01*
X454355Y-1031544D01*
X448665Y-1029665D01*
X442823Y-1028293D01*
X436880Y-1027582D01*
G37*
G36*
X209905Y-557580D02*
G01*
X209905Y-687578D01*
X269900Y-687578D01*
X269900Y-557580D01*
G37*
G36*
X-352602Y157022D02*
G01*
X-356616Y153009D01*
X-356616Y107035D01*
X-352602Y103022D01*
X-302514Y103022D01*
X-298551Y107035D01*
X-298551Y153009D01*
X-302514Y157022D01*
G37*
G36*
X-437642Y157022D02*
G01*
X-441655Y153009D01*
X-441655Y107035D01*
X-437642Y103022D01*
X-387604Y103022D01*
X-383590Y107035D01*
X-383590Y153009D01*
X-387604Y157022D01*
G37*
G36*
X492353Y-153009D02*
G01*
X488340Y-156972D01*
X488340Y-202996D01*
X492353Y-207010D01*
X542391Y-207010D01*
X546404Y-202996D01*
X546404Y-156972D01*
X542391Y-153009D01*
G37*
G36*
X577392Y-153009D02*
G01*
X573430Y-156972D01*
X573430Y-202996D01*
X577392Y-207010D01*
X627481Y-207010D01*
X631494Y-202996D01*
X631494Y-156972D01*
X627481Y-153009D01*
G37*
D10*
G01*
X647496Y-899998D03*
G01*
X732510Y-899998D03*
G01*
X-647496Y-899998D03*
G01*
X-732510Y-899998D03*
G01*
X-708101Y-29997D03*
G01*
X-792098Y-29997D03*
G01*
X-828090Y129997D03*
G01*
X-912088Y129997D03*
D11*
G01*
X584860Y-1079982D03*
G01*
X914958Y-1079982D03*
G01*
X-585038Y-1079982D03*
G01*
X-915136Y-1079982D03*
D12*
G01*
X-545007Y-260019D03*
G01*
X-449986Y-260019D03*
G01*
X-354990Y-260019D03*
G01*
X-354990Y0D03*
G01*
X-545007Y0D03*
D13*
G01*
X-268808Y670534D03*
G01*
X-268808Y543534D03*
G01*
X-268808Y416534D03*
G01*
X-268808Y289534D03*
G01*
X272211Y670534D03*
G01*
X272211Y543534D03*
G01*
X272211Y416534D03*
G01*
X272211Y289534D03*
D10*
G01*
X-578103Y129997D03*
G01*
X-662101Y129997D03*
G01*
X-708101Y-179984D03*
G01*
X-792098Y-179984D03*
G01*
X-78104Y129997D03*
G01*
X-162102Y129997D03*
M02*
